<?xml version="1.0" encoding="iso-8859-1"?>
<!-- Generator: Adobe Illustrator 19.0.0, SVG Export Plug-In . SVG Version: 6.00 Build 0)  -->
<svg version="1.1" id="Capa_1" xmlns="http://www.w3.org/2000/svg" xmlns:xlink="http://www.w3.org/1999/xlink" x="0px" y="0px"
	 viewBox="0 0 512 512" style="enable-background:new 0 0 512 512;" xml:space="preserve">
<circle style="fill:#FA5D0F;" cx="256" cy="256" r="256"/>
<path style="fill:#D84C0F;" d="M277.031,511.135c118.287-9.62,213.828-99.644,231.885-215.344L435,221.874l-21.386,19.499
	L313.147,140.311L69.44,303.437L277.031,511.135z"/>
<rect x="191.29" y="221.87" style="fill:#F5F0EB;" width="243.71" height="163.13"/>
<rect x="312.71" y="221.87" style="fill:#EBE1DC;" width="122.29" height="163.13"/>
<path style="fill:#FFFFFF;" d="M435,385l-90.967-85.098c-17.381-16.259-44.391-16.259-61.772,0L191.293,385H435z"/>
<path style="fill:#EBEBF0;" d="M344.033,299.901c-8.803-8.235-20.077-12.292-31.318-12.185V385H435L344.033,299.901z"/>
<path style="fill:#EBE1DC;" d="M191.293,221.874l88.026,82.347c19.036,17.808,48.619,17.808,67.655,0L435,221.874H191.293z"/>
<path style="fill:#C8BEB9;" d="M312.714,221.874v95.693c12.298,0.107,24.629-4.336,34.26-13.346L435,221.874H312.714z"/>
<rect x="69.44" y="140.31" style="fill:#FFDA00;" width="243.71" height="163.13"/>
<rect x="191.29" y="140.31" style="fill:#FFB600;" width="121.86" height="163.13"/>
<path style="fill:#FFF04A;" d="M313.147,303.437l-90.967-85.098c-17.381-16.259-44.391-16.259-61.772,0L69.44,303.437H313.147z"/>
<path style="fill:#FFDA00;" d="M222.179,218.338c-8.692-8.132-19.793-12.196-30.894-12.194v97.293h121.861L222.179,218.338z"/>
<path style="fill:#FFB600;" d="M69.44,140.311l88.026,82.347c19.036,17.808,48.619,17.808,67.655,0l88.026-82.347H69.44z"/>
<path style="fill:#FF9500;" d="M191.286,140.311v95.703c12.157,0.002,24.315-4.45,33.835-13.356l88.026-82.347H191.286z"/>
<g>
</g>
<g>
</g>
<g>
</g>
<g>
</g>
<g>
</g>
<g>
</g>
<g>
</g>
<g>
</g>
<g>
</g>
<g>
</g>
<g>
</g>
<g>
</g>
<g>
</g>
<g>
</g>
<g>
</g>
</svg>
