<svg width="1280" height="720" viewBox="0 0 1280 720" fill="none" xmlns="http://www.w3.org/2000/svg">
<rect width="1280" height="720" fill="#979696"/>
<path d="M38.9358 688.254C44.2702 688.254 48.5951 682.988 48.5951 676.493C48.5951 669.997 47.175 664.731 38.9358 664.731C30.6962 664.731 29.2764 669.997 29.2764 676.493C29.2765 682.988 33.6013 688.254 38.9358 688.254Z" fill="white"/>
<path d="M57.1591 705.738C56.9804 694.422 55.5061 691.198 44.2254 689.157C44.2254 689.157 42.6371 691.185 38.936 691.185C35.2348 691.185 33.6468 689.157 33.6468 689.157C22.4891 691.175 20.925 694.352 20.7194 705.37C20.7027 706.27 20.6949 706.317 20.6919 706.213C20.6925 706.409 20.6933 706.77 20.6933 707.402C20.6933 707.402 23.3791 712.829 38.9361 712.829C54.4931 712.829 57.1791 707.402 57.1791 707.402C57.1791 706.996 57.1794 706.714 57.1797 706.522C57.1767 706.587 57.1704 706.462 57.1591 705.738Z" fill="white"/>
<path d="M52.3406 686.154C56.6733 686.154 60.1856 681.877 60.1856 676.602C60.1856 671.326 59.0324 667.049 52.3406 667.049C51.215 667.049 50.2464 667.17 49.4132 667.397C50.9588 670.253 51.1706 673.723 51.1706 676.492C51.1706 679.628 50.3227 682.622 48.7612 685.101C49.8345 685.773 51.0507 686.154 52.3406 686.154Z" fill="white"/>
<path d="M67.1408 700.354C66.9954 691.164 65.7983 688.545 56.6361 686.887C56.6361 686.887 55.3464 688.535 52.3403 688.535C52.216 688.535 52.0954 688.531 51.9768 688.525C53.8868 689.389 55.6243 690.591 56.9039 692.35C59.116 695.391 59.6246 699.476 59.7296 705.477C65.8936 704.256 67.1569 701.706 67.1569 701.706C67.1569 701.373 67.1569 701.145 67.1575 700.989C67.155 701.044 67.1499 700.946 67.1408 700.354Z" fill="white"/>
<path d="M25.5306 686.154C26.8206 686.154 28.0365 685.773 29.1102 685.101C27.5487 682.622 26.7008 679.628 26.7008 676.493C26.7008 673.723 26.9126 670.253 28.458 667.397C27.6249 667.17 26.6565 667.049 25.5306 667.049C18.8387 667.049 17.6858 671.326 17.6858 676.602C17.6858 681.877 21.1981 686.154 25.5306 686.154Z" fill="white"/>
<path d="M25.894 688.525C25.7757 688.531 25.6552 688.534 25.5306 688.534C22.5245 688.534 21.2347 686.887 21.2347 686.887C12.0729 688.545 10.8754 691.163 10.7303 700.354C10.7209 700.946 10.7161 701.044 10.7136 700.989C10.7139 701.145 10.7142 701.373 10.7142 701.705C10.7142 701.705 11.9776 704.255 18.1413 705.476C18.2467 699.475 18.755 695.39 20.9674 692.349C22.2468 690.591 23.9841 689.389 25.894 688.525Z" fill="white"/>
<g clip-path="url(#clip0)">
<path d="M39.2238 711.034C44.2632 711.034 48.3484 706.939 48.3484 701.887C48.3484 696.835 44.2632 692.739 39.2238 692.739C34.1844 692.739 30.0991 696.835 30.0991 701.887C30.0991 706.939 34.1844 711.034 39.2238 711.034Z" fill="#424242"/>
<path d="M48.2357 703.326L41.928 697.002L35.5686 704.318L41.8763 710.641C45.1776 709.637 47.6868 706.809 48.2357 703.326Z" fill="#232323"/>
<path d="M41.928 702.245V697.002H39.2434L35.5686 702.288V704.318H39.8607V706.772H41.928V704.318H43.2493V702.245H41.928ZM39.8607 702.245H38.1178L39.8607 699.739V702.245Z" fill="#F8FFFB"/>
<path d="M41.9279 702.245V697.002H39.2432L39.2236 697.031V700.655L39.8606 699.739V702.245H39.2236V704.318H39.8606V706.772H41.9279V704.318H43.2492V702.245H41.9279Z" fill="#D8D8D8"/>
</g>
<path d="M541.259 339.461C541.259 452.716 448.42 544.606 333.8 544.606C219.18 544.606 126.341 452.716 126.341 339.461C126.341 226.205 219.18 134.315 333.8 134.315C448.42 134.315 541.259 226.205 541.259 339.461Z" fill="#4E4949" stroke="black" stroke-width="8.35959"/>
<path d="M500.603 339.461C500.603 430.536 425.949 504.414 333.8 504.414C241.651 504.414 166.997 430.536 166.997 339.461C166.997 248.386 241.651 174.509 333.8 174.509C425.949 174.509 500.603 248.386 500.603 339.461Z" fill="#525252" stroke="black" stroke-width="5.01576"/>
<path d="M411.167 267.489C423.815 245.724 427.908 235.788 442.125 216.873C424.595 202.864 415.858 195.375 391.625 187.575C379.708 207.008 368.871 216.444 355.375 235.682C337.716 237.96 328.54 243.07 314.152 262.633C308.785 273.23 308.661 278.443 314.113 286.256C297.096 297.404 296.727 308.618 314.347 319.416C318.783 331.551 323.613 335.23 335.847 336.935C347.519 345.968 352.284 346.507 361.991 341.674C376.991 352.304 383.765 347.024 393.951 324.533C404.025 297.38 410.964 280.242 408.197 272.107C410.203 270.368 410.671 269.343 411.167 267.489Z" fill="#0116D1" stroke="black" stroke-width="0.835959"/>
<path d="M339.891 275.128C354.232 279.024 363.223 276.372 380.216 266.815M389.714 290.165C376.295 292.407 366.205 289.13 353.024 283.819M397.393 233.394L388.198 245.588M402.76 220.833L385.309 244.717M361.481 237.525C367.713 239.639 370.96 240.943 376.209 243.546M389.343 252.237C394.767 256.885 397.62 259.597 402.109 264.756M387.333 331.99C391.318 307.973 386.618 300.205 372.14 301.406M372.14 301.406C371.983 314.536 370.174 322.616 360.59 339.676M372.14 301.406C368.316 294.828 364.767 293.005 356.625 293.616M334.882 333.492C342.257 322.28 347.913 311.528 356.404 293.505L356.625 293.616M356.625 293.616C354.463 286.415 351.431 284.052 343.202 282.43M343.202 282.43L342.044 283.656M343.202 282.43C340.574 277.103 338.443 274.651 333.106 271.505M333.106 271.505L332.452 273.671M333.106 271.505C333.369 270.173 333.171 269.379 332.533 268.181M326.991 299.597C321.891 303.244 320.548 307.895 313.668 317.636M313.216 285.198C313.216 285.198 326.201 296.995 330.67 303.071C335.139 309.147 347.855 297.759 345.355 290.958C338.184 275.725 333.787 271.679 325.082 274.598" stroke="black" stroke-width="0.835959"/>
<path d="M311.182 447.404C298.041 468.875 293.708 472.458 282.143 493.66C272.62 490.291 255.645 484.843 229.102 465.771C240.538 446.052 246.171 434.442 256.685 413.426C250.299 396.805 250.435 386.304 260.812 364.348C267.586 354.59 272.113 352.004 281.579 353.089C283.302 332.819 292.994 327.165 310.868 337.539C323.653 335.675 329.185 338.178 336.498 348.132C349.993 354.11 352.731 358.047 353.091 368.885C369.571 377.032 368.145 385.501 353.194 405.151C334.089 426.916 322.307 441.166 313.835 442.596C313.257 445.188 312.578 446.087 311.182 447.404Z" fill="#950000" stroke="black" stroke-width="0.835959"/>
<path d="M284.036 381.058C294.279 391.826 296.217 400.998 295.882 420.491M320.941 417.753C316.538 404.881 308.86 397.559 297.924 388.485M274.637 451.485L280.998 437.6M266.135 462.176L278.858 435.473M261.208 417.923C266.029 422.403 268.719 424.64 273.504 428.022M287.391 435.449C294.059 438.013 297.801 439.234 304.473 440.733M356.611 395.784C337.372 410.703 328.304 410.258 322.481 396.949M322.481 396.949C333.96 390.571 340.21 385.141 350.667 368.602M322.481 396.949C314.876 396.709 311.586 394.453 308.255 386.998M333.011 348.919C326.65 360.736 319.876 370.822 308.053 386.856L308.255 386.998M308.255 386.998C300.891 388.517 297.371 386.972 292.034 380.502M292.034 380.502L292.563 378.901M292.034 380.502C286.099 380.722 282.928 380.011 277.624 376.81M277.624 376.81L279.219 375.206M277.624 376.81C276.578 377.675 275.785 377.877 274.427 377.886M299.437 358.081C300.222 351.861 303.676 348.469 308.979 337.787M280.222 352.803C280.222 352.803 296.772 358.622 304.242 359.668C311.711 360.713 307.733 377.313 300.562 378.345C283.75 379.273 278.101 377.326 276.533 368.28" stroke="black" stroke-width="0.835959"/>
<path d="M285.943 163.81C283.43 163.663 281.522 163.219 280.221 162.478C278.926 161.725 278.116 160.622 277.789 159.169C277.419 157.526 277.768 156.021 278.836 154.656C279.912 153.279 281.501 152.354 283.604 151.88C285.037 151.558 286.376 151.548 287.618 151.85C288.871 152.151 289.913 152.719 290.744 153.557C291.585 154.391 292.135 155.387 292.396 156.544L289.629 157.167C289.345 155.905 288.721 155.006 287.756 154.47C286.79 153.925 285.576 153.816 284.114 154.146C282.756 154.451 281.763 154.991 281.134 155.765C280.513 156.528 280.321 157.439 280.56 158.5C280.752 159.351 281.273 159.992 282.123 160.423C282.98 160.842 284.329 161.101 286.169 161.199C288.018 161.295 289.496 161.529 290.605 161.902C291.72 162.264 292.6 162.784 293.245 163.462C293.899 164.138 294.346 165.006 294.585 166.067C294.966 167.759 294.612 169.264 293.523 170.584C292.432 171.894 290.783 172.797 288.575 173.295C287.142 173.617 285.742 173.646 284.377 173.381C283.01 173.106 281.88 172.568 280.986 171.765C280.102 170.96 279.523 169.95 279.25 168.736L282.017 168.114C282.301 169.375 282.989 170.269 284.082 170.797C285.182 171.312 286.511 171.395 288.069 171.044C289.521 170.717 290.568 170.17 291.209 169.403C291.85 168.636 292.055 167.741 291.825 166.719C291.594 165.696 291.058 164.988 290.217 164.595C289.373 164.193 287.949 163.931 285.943 163.81Z" fill="white"/>
<path d="M392.671 164.748L383.711 162.364L381.761 169.691L392.17 172.461L391.577 174.69L378.441 171.195L383.943 150.519L396.937 153.977L396.339 156.22L386.073 153.488L384.304 160.134L393.265 162.519L392.671 164.748Z" fill="white"/>
<path d="M334.141 155.414L339.725 144.673H342.929L335.552 158.089V166.068H332.731V158.089L325.354 144.673H328.587L334.141 155.414Z" fill="white"/>
<path d="M367.88 168.983L365.069 168.606L356.584 150.834L354.394 167.176L351.583 166.799L354.425 145.593L357.236 145.97L365.741 163.819L367.94 147.405L370.722 147.777L367.88 168.983Z" fill="white"/>
<path d="M316.333 157.503L307.14 158.713L308.13 166.23L318.809 164.825L319.11 167.112L305.633 168.886L302.842 147.673L316.173 145.919L316.476 148.221L305.942 149.607L306.839 156.426L316.032 155.216L316.333 157.503Z" fill="white"/>
<path d="M259.815 512.393C259.051 514.131 257.957 515.32 256.532 515.959C255.117 516.593 253.48 516.625 251.623 516.056C249.609 515.439 248.214 514.222 247.439 512.405C246.671 510.591 246.658 508.473 247.399 506.054L247.902 504.415C248.387 502.83 249.095 501.523 250.025 500.493C250.963 499.465 252.049 498.791 253.283 498.468C254.52 498.139 255.821 498.183 257.187 498.601C258.998 499.156 260.295 500.108 261.077 501.458C261.861 502.799 262.069 504.391 261.701 506.234L259.441 505.542C259.662 504.124 259.538 503.01 259.069 502.2C258.608 501.393 257.791 500.81 256.621 500.451C255.184 500.011 253.894 500.197 252.749 501.007C251.612 501.82 250.744 503.206 250.143 505.165L249.638 506.816C249.071 508.666 249.007 510.256 249.445 511.585C249.883 512.915 250.796 513.792 252.186 514.218C253.435 514.601 254.477 514.613 255.313 514.254C256.158 513.89 256.906 513.038 257.555 511.7L259.815 512.393Z" fill="white"/>
<path d="M382.369 511.603L376.822 513.043L380.815 528.428L378.552 529.016L374.558 513.631L369.023 515.068L368.537 513.195L381.883 509.731L382.369 511.603Z" fill="white"/>
<path d="M304.407 524.602L303.591 531.534L301.256 531.259L303.34 513.552L309.871 514.321C311.809 514.549 313.267 515.222 314.245 516.34C315.231 517.459 315.628 518.833 315.436 520.462C315.234 522.181 314.539 523.443 313.351 524.249C312.172 525.047 310.581 525.329 308.578 525.093L304.407 524.602ZM304.632 522.693L308.827 523.186C310.076 523.333 311.067 523.154 311.801 522.649C312.535 522.135 312.968 521.323 313.099 520.212C313.223 519.158 312.989 518.276 312.399 517.565C311.809 516.854 310.935 516.419 309.779 516.258L305.449 515.748L304.632 522.693Z" fill="white"/>
<path d="M290.171 520.927L286.064 520.106L284.649 527.178L282.332 526.714L285.83 509.231L291.617 510.389C293.586 510.783 295.01 511.534 295.887 512.642C296.772 513.752 297.044 515.163 296.701 516.876C296.483 517.965 295.997 518.854 295.243 519.544C294.497 520.236 293.559 520.677 292.431 520.867L295.052 529.11L295.023 529.254L292.55 528.759L290.171 520.927ZM286.441 518.22L289.984 518.929C291.128 519.158 292.096 519.044 292.887 518.586C293.686 518.13 294.185 517.405 294.383 516.413C294.6 515.332 294.441 514.439 293.908 513.732C293.383 513.028 292.513 512.55 291.298 512.299L287.767 511.592L286.441 518.22Z" fill="white"/>
<path d="M344.482 526.675H340.294V533.887H337.93V516.058H343.833C345.841 516.058 347.384 516.515 348.461 517.429C349.547 518.344 350.09 519.675 350.09 521.422C350.09 522.532 349.788 523.499 349.184 524.324C348.588 525.148 347.755 525.765 346.686 526.173L350.874 533.741V533.887H348.351L344.482 526.675ZM340.294 524.752H343.906C345.073 524.752 346 524.45 346.686 523.846C347.38 523.242 347.727 522.434 347.727 521.422C347.727 520.319 347.396 519.474 346.735 518.887C346.082 518.299 345.135 518.001 343.894 517.993H340.294V524.752Z" fill="white"/>
<path d="M278.987 516.17C278.608 517.875 277.99 519.302 277.133 520.449C276.278 521.589 275.25 522.377 274.049 522.812C272.848 523.248 271.547 523.31 270.144 522.999C268.773 522.694 267.632 522.089 266.721 521.184C265.812 520.271 265.2 519.128 264.887 517.754C264.583 516.373 264.605 514.86 264.954 513.215L265.233 511.96C265.605 510.286 266.224 508.873 267.091 507.719C267.958 506.565 268.996 505.767 270.207 505.325C271.427 504.877 272.723 504.805 274.093 505.11C275.488 505.42 276.64 506.031 277.549 506.944C278.468 507.851 279.072 509.009 279.361 510.42C279.652 511.823 279.608 513.373 279.231 515.07L278.987 516.17ZM276.953 514.539C277.412 512.475 277.349 510.801 276.764 509.517C276.182 508.225 275.145 507.414 273.655 507.082C272.205 506.76 270.938 507.06 269.855 507.982C268.782 508.897 268.016 510.333 267.556 512.288L267.272 513.567C266.827 515.567 266.896 517.234 267.478 518.568C268.07 519.895 269.103 520.722 270.577 521.05C272.059 521.379 273.326 521.096 274.378 520.201C275.432 519.298 276.195 517.841 276.666 515.83L276.953 514.539Z" fill="white"/>
<path d="M411 507.452C411.557 509.108 411.765 510.649 411.625 512.074C411.482 513.492 411.009 514.697 410.207 515.691C409.404 516.685 408.322 517.411 406.96 517.869C405.629 518.317 404.34 518.389 403.092 518.086C401.842 517.774 400.727 517.112 399.749 516.097C398.775 515.073 398.012 513.766 397.46 512.177L397.05 510.959C396.503 509.334 396.302 507.804 396.448 506.368C396.593 504.932 397.07 503.712 397.878 502.708C398.69 501.694 399.762 500.963 401.093 500.515C402.447 500.059 403.749 499.987 405 500.298C406.255 500.599 407.371 501.279 408.347 502.337C409.321 503.387 410.085 504.736 410.64 506.384L411 507.452ZM408.416 507.107C407.741 505.103 406.822 503.703 405.658 502.906C404.491 502.102 403.184 501.943 401.738 502.43C400.329 502.904 399.4 503.815 398.95 505.164C398.504 506.503 398.591 508.127 399.208 510.039L399.626 511.28C400.28 513.222 401.2 514.614 402.388 515.455C403.58 516.285 404.892 516.459 406.323 515.977C407.763 515.493 408.701 514.596 409.139 513.286C409.574 511.968 409.473 510.326 408.838 508.361L408.416 507.107Z" fill="white"/>
<path d="M333.197 525.548C333.197 527.295 332.903 528.822 332.316 530.128C331.728 531.426 330.895 532.418 329.818 533.104C328.74 533.789 327.483 534.132 326.046 534.132C324.642 534.132 323.397 533.789 322.311 533.104C321.225 532.41 320.38 531.426 319.776 530.153C319.18 528.871 318.874 527.389 318.858 525.707V524.422C318.858 522.707 319.156 521.193 319.752 519.879C320.348 518.564 321.189 517.56 322.274 516.866C323.368 516.164 324.617 515.813 326.021 515.813C327.45 515.813 328.707 516.16 329.793 516.854C330.887 517.54 331.728 518.54 332.316 519.854C332.903 521.16 333.197 522.683 333.197 524.422V525.548ZM330.858 524.397C330.858 522.283 330.434 520.662 329.585 519.536C328.736 518.401 327.548 517.834 326.021 517.834C324.536 517.834 323.364 518.401 322.507 519.536C321.658 520.662 321.221 522.23 321.197 524.238V525.548C321.197 527.597 321.625 529.21 322.482 530.385C323.348 531.553 324.536 532.136 326.046 532.136C327.564 532.136 328.74 531.585 329.573 530.483C330.405 529.373 330.834 527.785 330.858 525.72V524.397Z" fill="white"/>
<path d="M365.563 526.991L358.191 528.191L357.283 533.054L354.89 533.444L358.743 514.752L360.774 514.421L370.373 530.922L367.992 531.31L365.563 526.991ZM358.581 526.168L364.563 525.193L360.225 517.451L358.581 526.168Z" fill="white"/>
<path d="M432.024 506.424L429.935 507.53L415.572 499.59L422.004 511.732L419.915 512.838L411.569 497.082L413.658 495.976L428.071 503.959L421.611 491.763L423.678 490.668L432.024 506.424Z" fill="white"/>
<path d="M395.77 523.021L393.515 523.685L388.472 506.584L390.727 505.919L395.77 523.021Z" fill="white"/>
<path d="M772.632 235.236V234.392C772.632 234.134 772.609 233.887 772.562 233.653C772.679 233.441 772.691 232.808 772.597 231.752C772.55 231.189 772.503 230.732 772.456 230.38C772.433 230.028 772.421 229.782 772.421 229.641V229.359C772.421 229.265 772.421 229.172 772.421 229.078C772.445 228.96 772.468 228.843 772.492 228.726C772.515 228.186 772.55 227.823 772.597 227.635C772.621 227.565 772.679 227.471 772.773 227.353C772.867 227.213 772.914 227.072 772.914 226.931C772.914 225.875 772.961 224.749 773.055 223.553C773.172 222.333 773.242 221.195 773.266 220.139C773.289 219.318 773.301 218.661 773.301 218.169C773.301 217.676 773.313 217.371 773.336 217.254C773.36 216.949 773.36 216.62 773.336 216.268C773.336 215.893 773.336 215.541 773.336 215.212C773.336 215.142 773.324 215.095 773.301 215.072L774.216 214.333H777.278C777.606 214.286 777.841 214.274 777.981 214.298C778.122 214.321 778.216 214.356 778.263 214.403L779.037 214.966C779.248 215.224 779.424 215.377 779.565 215.424C779.729 215.447 779.858 215.412 779.952 215.318C780.069 215.201 780.175 215.06 780.269 214.896C780.363 214.708 780.457 214.532 780.55 214.368L782.416 214.473L785.196 215.635C785.289 215.729 785.372 215.822 785.442 215.916C785.512 215.987 785.583 216.045 785.653 216.092C785.77 216.21 785.876 216.315 785.97 216.409C786.087 216.503 786.169 216.55 786.216 216.55C786.263 216.55 786.486 216.608 786.885 216.726C787.307 216.843 787.682 217.171 788.011 217.711C788.269 217.711 788.527 217.793 788.785 217.957C789.067 218.122 789.301 218.309 789.489 218.52C789.677 218.708 789.817 218.896 789.911 219.083C790.029 219.248 790.064 219.342 790.017 219.365C789.618 219.74 789.489 220.069 789.63 220.35C789.794 220.632 790.029 220.831 790.334 220.949C790.427 221.347 790.615 221.629 790.897 221.793C791.178 221.934 791.389 222.04 791.53 222.11C791.53 222.18 791.553 222.544 791.6 223.201C791.647 223.834 791.718 224.761 791.812 225.981C791.858 226.591 791.905 227.131 791.952 227.6C791.999 228.045 792.046 228.421 792.093 228.726C792.14 228.914 792.175 229.09 792.199 229.254C792.222 229.394 792.246 229.524 792.269 229.641C792.292 229.758 791.894 230.427 791.073 231.647C790.228 232.82 789.806 233.606 789.806 234.005H787.941C787.847 234.005 787.729 234.051 787.589 234.145C787.448 234.216 787.307 234.298 787.166 234.392L786.603 234.744C786.533 234.767 786.462 234.779 786.392 234.779C786.322 234.779 786.24 234.79 786.146 234.814C786.005 234.837 785.817 234.861 785.583 234.884C785.372 234.908 785.125 234.943 784.844 234.99C784.257 235.107 783.764 235.178 783.366 235.201C782.967 235.224 782.638 235.213 782.38 235.166C782.357 234.861 781.559 234.955 779.987 235.447C779.588 235.565 779.178 235.67 778.756 235.764C778.333 235.834 777.946 235.893 777.594 235.94C777.383 235.987 777.172 236.022 776.961 236.046C776.773 236.069 776.586 236.093 776.398 236.116L775.624 235.94C775.483 235.963 775.342 235.999 775.201 236.046C775.061 236.069 774.967 236.081 774.92 236.081C774.849 236.081 774.744 236.057 774.603 236.01C774.486 235.963 774.38 235.94 774.286 235.94C774.239 235.94 774.134 235.952 773.97 235.975C773.829 235.975 773.735 235.999 773.688 236.046L772.632 235.236ZM779.459 233.899C779.694 233.805 779.94 233.676 780.198 233.512C780.48 233.324 780.715 233.266 780.902 233.336H781.888C781.935 233.336 782.04 233.277 782.204 233.16C782.369 233.019 782.486 232.949 782.556 232.949C782.65 232.949 782.697 232.996 782.697 233.09C782.697 233.16 782.826 233.195 783.084 233.195C783.178 233.195 783.401 233.148 783.753 233.054C784.105 232.937 784.48 232.785 784.879 232.597C785.301 232.409 785.63 232.268 785.864 232.175C786.122 232.081 786.275 232.022 786.322 231.999C786.345 231.952 786.357 231.893 786.357 231.823C786.38 231.752 786.416 231.67 786.462 231.576C786.509 231.436 786.556 231.271 786.603 231.084C786.674 230.896 786.767 230.673 786.885 230.415C787.049 229.852 787.178 229.418 787.272 229.113C787.366 228.808 787.413 228.597 787.413 228.48L786.287 224.327C786.287 224.163 786.298 224.034 786.322 223.94C786.322 223.823 786.322 223.682 786.322 223.518C786.345 223.33 786.369 223.107 786.392 222.849C786.486 221.84 786.545 221.336 786.568 221.336C786.545 221.312 786.462 221.183 786.322 220.949C786.204 220.714 786.028 220.397 785.794 219.998C785.559 219.576 785.36 219.142 785.196 218.696C785.055 218.227 784.938 217.993 784.844 217.993L782.064 216.198H779.424C779.424 216.479 779.366 216.644 779.248 216.691C779.131 216.714 779.072 216.749 779.072 216.796V217.43C779.072 217.617 779.072 217.84 779.072 218.098C779.072 218.356 779.061 218.649 779.037 218.978V221.301C778.638 221.512 778.415 221.758 778.369 222.04C778.369 222.251 778.263 222.579 778.052 223.025C778.005 223.072 777.981 223.154 777.981 223.271C777.981 223.6 777.981 223.834 777.981 223.975C778.005 224.092 777.981 224.304 777.911 224.609C777.864 224.655 777.911 225.066 778.052 225.84C778.193 226.661 778.275 227.084 778.298 227.107C778.275 227.224 778.239 227.389 778.193 227.6C778.169 227.811 778.122 228.057 778.052 228.339C777.981 228.62 777.935 228.831 777.911 228.972C777.888 229.113 777.876 229.207 777.876 229.254C777.876 229.535 777.911 230.04 777.981 230.767C778.005 231.142 778.017 231.471 778.017 231.752C778.04 232.01 778.052 232.198 778.052 232.315C778.099 232.503 778.134 232.691 778.157 232.878C778.204 233.066 778.251 233.266 778.298 233.477L779.459 233.899ZM811.735 224.186C811.806 224.585 811.841 224.937 811.841 225.242C811.841 225.523 811.829 225.805 811.806 226.087C811.806 226.345 811.817 226.603 811.841 226.861C811.888 227.095 811.982 227.353 812.122 227.635C812.075 227.729 811.958 227.916 811.77 228.198C811.606 228.456 811.489 228.726 811.418 229.007C811.372 229.265 811.336 229.465 811.313 229.606C811.289 229.746 811.266 229.84 811.243 229.887C811.313 229.934 811.372 230.028 811.418 230.169C811.442 230.286 811.418 230.438 811.348 230.626C811.278 230.79 811.137 231.025 810.926 231.33C810.504 231.893 810.269 232.374 810.222 232.773C810.175 233.148 810.081 233.441 809.94 233.653C809.894 233.7 809.741 233.77 809.483 233.864C809.248 233.958 808.967 234.075 808.638 234.216C808.31 234.333 807.981 234.474 807.653 234.638C807.325 234.802 807.067 234.966 806.879 235.131C806.48 235.201 806.128 235.295 805.823 235.412C805.518 235.529 805.143 235.612 804.697 235.659C804.275 235.752 803.841 235.87 803.395 236.01C802.949 236.128 802.703 236.186 802.656 236.186C801.553 236.186 800.896 236.222 800.685 236.292C800.498 236.362 800.275 236.398 800.017 236.398L796.814 235.236L795.336 233.09C795.336 232.527 795.313 232.057 795.266 231.682C795.242 231.283 795.207 230.943 795.16 230.661C795.113 230.356 795.078 230.075 795.055 229.817C795.031 229.559 795.031 229.265 795.055 228.937C795.125 228.867 795.231 228.702 795.371 228.444C795.512 228.163 795.653 227.846 795.794 227.494C795.958 227.142 796.11 226.779 796.251 226.403C796.415 226.028 796.533 225.711 796.603 225.453C796.791 224.913 796.931 224.444 797.025 224.045C797.119 223.623 797.19 223.248 797.236 222.919C797.424 222.802 797.577 222.673 797.694 222.532C797.811 222.391 797.929 222.274 798.046 222.18C799.008 221.617 799.841 221.16 800.544 220.808C801.248 220.432 801.905 220.198 802.515 220.104L803.571 220.034C803.688 220.057 803.794 220.081 803.888 220.104C803.981 220.127 804.075 220.151 804.169 220.174C804.31 220.221 804.439 220.257 804.556 220.28C804.674 220.28 804.744 220.28 804.767 220.28L805.471 221.371C805.471 221.582 805.424 221.758 805.33 221.899C805.237 222.016 805.33 222.098 805.612 222.145C805.917 222.216 806.081 222.262 806.105 222.286V222.321C806.48 222.321 806.867 222.239 807.266 222.075C807.665 221.887 808.064 221.793 808.462 221.793C808.556 221.793 808.72 221.84 808.955 221.934C809.19 222.004 809.436 222.098 809.694 222.216C809.952 222.333 810.187 222.45 810.398 222.567C810.633 222.661 810.797 222.732 810.891 222.779C810.844 223.13 810.855 223.377 810.926 223.518C810.996 223.658 811.09 223.764 811.207 223.834C811.325 223.881 811.43 223.928 811.524 223.975C811.641 223.999 811.712 224.069 811.735 224.186ZM805.436 232.984C805.788 232.749 806.128 231.999 806.457 230.732C806.644 230.051 806.797 229.547 806.914 229.219C807.055 228.867 807.125 228.538 807.125 228.233C807.125 227.717 806.949 227.107 806.597 226.403C806.41 226.028 806.269 225.711 806.175 225.453C806.081 225.195 806.011 224.937 805.964 224.679C805.776 224.585 805.671 224.444 805.647 224.257C805.647 224.045 805.553 223.834 805.366 223.623C805.131 223.435 804.99 223.365 804.943 223.412C804.896 223.459 804.849 223.482 804.803 223.482H804.486C804.298 223.482 804.04 223.518 803.712 223.588C803.407 223.658 803.16 223.823 802.973 224.081C802.691 224.386 802.445 224.632 802.234 224.82C802.046 224.984 801.94 225.089 801.917 225.136C801.682 225.582 801.471 225.969 801.283 226.298C801.096 226.603 800.943 226.849 800.826 227.037L800.509 227.776C800.368 228.128 800.31 228.597 800.333 229.183C800.38 229.277 800.427 229.488 800.474 229.817C800.521 230.122 800.38 230.45 800.052 230.802C799.981 230.873 799.911 231.013 799.841 231.224C799.77 231.412 799.723 231.635 799.7 231.893C799.676 232.151 799.7 232.409 799.77 232.667C799.864 232.925 800.04 233.148 800.298 233.336C800.627 233.571 800.967 233.805 801.319 234.04C801.671 234.251 801.893 234.356 801.987 234.356H802.374C802.515 234.356 802.644 234.392 802.761 234.462L805.436 232.984ZM839.928 235.342L837.957 235.94L835.388 236.257L835.142 235.659L835.67 233.617L836.303 231.752L836.479 225.101L835.634 223.518H834.614L832.995 224.714H832.608C832.35 224.714 832.186 224.867 832.115 225.172C832.068 225.453 832.068 225.782 832.115 226.157C831.904 226.227 831.752 226.579 831.658 227.213L831.517 228.198L831.482 230.345L830.848 233.16L831.095 234.568L830.778 235.834L830.461 236.151L826.555 236.433L825.746 235.694L825.992 234.321L826.485 230.697C826.579 230.274 826.661 229.793 826.731 229.254C826.825 228.714 826.895 228.175 826.942 227.635C826.989 227.072 827.013 226.544 827.013 226.051C827.036 225.535 827.036 225.113 827.013 224.784C826.966 224.526 826.966 224.315 827.013 224.151C827.059 223.963 827.071 223.823 827.048 223.729L826.379 223.095L824.197 223.447L823.493 222.849C822.93 222.52 822.637 222.72 822.614 223.447C822.473 223.658 822.344 223.834 822.227 223.975C822.133 224.092 822.074 224.28 822.051 224.538C821.933 224.585 821.839 224.644 821.769 224.714C821.675 224.808 821.581 224.949 821.488 225.136C821.394 225.324 821.323 225.594 821.276 225.946C821.183 226.626 821.136 227.201 821.136 227.67C821.136 228.139 821.194 228.468 821.312 228.655V229.289L820.713 230.697L820.537 233.195L820.221 235.623L819.939 235.94L815.681 236.292L814.977 235.659L815.188 234.321L815.399 232.491L815.54 229.817C815.54 229.371 815.599 228.949 815.716 228.55C815.833 228.151 815.939 227.705 816.033 227.213L816.385 224.433C816.549 224.268 816.725 223.975 816.913 223.553C817.124 223.13 817.229 222.72 817.229 222.321C817.229 222.204 817.206 222.122 817.159 222.075C817.136 222.004 817.1 221.922 817.053 221.828L817.581 221.125C817.628 221.125 817.734 221.136 817.898 221.16C818.062 221.16 818.25 221.16 818.461 221.16C818.696 221.136 818.93 221.125 819.165 221.125C819.4 221.101 819.622 221.066 819.834 221.019C820.678 220.902 821.206 220.726 821.417 220.491L822.754 220.421L822.614 221.758C822.825 221.969 823.048 222.098 823.282 222.145C823.54 222.169 823.798 222.133 824.056 222.04C824.315 221.922 824.561 221.758 824.796 221.547C825.03 221.312 825.23 221.042 825.394 220.737L827.4 220.773C827.658 220.749 827.904 220.737 828.139 220.737C828.397 220.714 828.643 220.702 828.878 220.702C829.253 220.702 829.605 220.737 829.933 220.808C830.262 220.855 830.45 220.937 830.496 221.054C830.59 221.476 830.79 221.641 831.095 221.547C831.142 221.523 831.224 221.606 831.341 221.793C831.482 221.957 831.693 222.063 831.974 222.11C832.115 222.157 832.209 222.239 832.256 222.356C832.326 222.45 832.373 222.556 832.397 222.673C832.42 222.79 832.444 222.896 832.467 222.99C832.491 223.06 832.538 223.095 832.608 223.095L834.649 221.476L837.922 220.949L840.913 223.342L840.983 223.834C840.983 223.975 840.972 224.116 840.948 224.257C840.948 224.374 840.913 224.468 840.843 224.538V227.705L840.878 231.084L840.244 234.99L839.928 235.342ZM847.708 214.649C847.755 214.462 847.779 214.286 847.779 214.122C847.802 213.934 847.826 213.746 847.849 213.558C847.849 213.394 847.849 213.254 847.849 213.136C847.873 213.019 847.884 212.913 847.884 212.819L848.06 212.432C848.131 212.409 848.225 212.397 848.342 212.397C848.459 212.397 848.6 212.385 848.764 212.362C849.257 212.339 849.574 212.28 849.714 212.186C849.714 212.163 849.773 212.116 849.89 212.045C849.961 211.975 850.019 211.928 850.066 211.905C850.09 211.905 850.172 211.916 850.313 211.94C850.453 211.963 850.641 212.01 850.876 212.08C851.275 212.174 851.556 212.221 851.72 212.221C851.931 212.221 852.049 212.209 852.072 212.186C852.096 212.163 852.166 212.163 852.283 212.186L852.6 212.784L852.917 214.579L852.178 215.811C852.154 215.834 852.131 215.858 852.107 215.881C852.107 215.905 852.084 215.928 852.037 215.951C851.92 216.022 851.779 216.127 851.615 216.268L851.509 216.374L850.453 216.479C850.313 216.432 850.148 216.386 849.961 216.339C849.773 216.268 849.55 216.186 849.292 216.092C849.034 215.998 848.811 215.916 848.623 215.846C848.436 215.752 848.272 215.682 848.131 215.635L847.955 215.459L847.708 214.649ZM852.072 220.702L851.931 221.969L852.072 222.497L851.861 223.06L851.967 223.869L851.791 224.538L851.896 224.749L851.755 226.333L851.615 229.676C851.615 229.84 851.591 230.051 851.544 230.309C851.497 230.544 851.462 230.802 851.439 231.084C851.415 231.342 851.415 231.612 851.439 231.893C851.462 232.151 851.533 232.374 851.65 232.562C851.626 232.914 851.591 233.324 851.544 233.793C851.497 234.263 851.415 234.802 851.298 235.412C851.11 235.67 850.911 235.905 850.7 236.116C850.512 236.304 850.148 236.409 849.609 236.433C849.304 236.456 848.999 236.48 848.694 236.503C848.412 236.527 848.143 236.562 847.884 236.609C847.744 236.632 847.603 236.656 847.462 236.679C847.321 236.703 847.169 236.738 847.005 236.785L846.125 235.659C846.148 235.541 846.184 235.224 846.23 234.708C846.301 234.169 846.36 233.535 846.406 232.808C846.453 232.081 846.477 231.307 846.477 230.485C846.5 229.664 846.477 228.902 846.406 228.198L846.618 227.529L846.934 225.981L847.04 224.749L847.251 224.327L847.286 224.01L847.497 223.06L847.673 221.125L850.841 219.893L852.072 220.702ZM861.945 236.644C861.875 236.644 861.723 236.656 861.488 236.679C861.277 236.679 861.042 236.691 860.784 236.714C860.526 236.714 860.28 236.726 860.045 236.749C859.811 236.749 859.646 236.749 859.552 236.749L858.778 236.82L858.18 236.398C858.157 236.046 858.18 235.635 858.25 235.166C858.344 234.697 858.391 234.333 858.391 234.075C858.673 234.075 858.731 233.793 858.567 233.23C858.379 232.667 858.309 232.222 858.356 231.893C858.379 231.518 858.438 231.142 858.532 230.767C858.626 230.368 858.638 230.11 858.567 229.993C858.52 229.852 858.462 229.699 858.391 229.535C858.321 229.348 858.262 229.136 858.215 228.902L858.638 226.614C858.638 225.348 858.649 224.374 858.673 223.694C858.72 223.013 858.755 222.509 858.778 222.18C858.825 221.852 858.872 221.652 858.919 221.582C858.989 221.488 859.036 221.406 859.06 221.336C859.107 221.265 859.13 221.148 859.13 220.984C859.154 220.82 859.154 220.491 859.13 219.998L859.869 219.611C860.268 219.635 860.749 219.705 861.312 219.823C861.899 219.916 862.462 220.022 863.001 220.139C863.283 220.186 863.529 220.233 863.74 220.28C863.951 220.303 864.139 220.339 864.303 220.386L864.796 221.054C864.35 221.359 864.057 221.559 863.916 221.652C863.775 221.746 863.764 221.946 863.881 222.251C864.303 222.626 864.667 222.743 864.972 222.603C865.3 222.462 865.523 222.239 865.641 221.934L867.928 221.371H869.265L869.863 221.582C870.427 221.77 870.99 221.969 871.553 222.18C872.139 222.391 872.62 222.556 872.995 222.673L873.629 224.221L873.594 224.644C873.641 225.324 873.676 225.981 873.699 226.614C873.746 227.224 873.746 227.975 873.699 228.867C873.676 229.43 873.652 230.004 873.629 230.591C873.605 231.154 873.582 231.694 873.559 232.21C873.559 232.726 873.559 233.183 873.559 233.582C873.559 233.958 873.559 234.239 873.559 234.427C873.559 234.45 873.582 234.544 873.629 234.708C873.699 234.873 873.793 235.049 873.91 235.236L873.664 235.623L872.995 235.94C872.667 235.963 872.245 236.022 871.729 236.116C871.236 236.21 870.825 236.257 870.497 236.257C870.356 236.257 870.239 236.21 870.145 236.116C870.051 235.999 869.84 235.952 869.512 235.975L869.019 235.553C869.066 235.248 869.078 235.002 869.054 234.814C869.031 234.603 868.995 234.427 868.949 234.286C868.902 234.122 868.855 233.981 868.808 233.864C868.761 233.746 868.737 233.629 868.737 233.512C868.761 233.16 868.796 232.773 868.843 232.351C868.89 232.022 868.937 231.647 868.984 231.224C869.054 230.779 869.136 230.345 869.23 229.922C869.277 229.664 869.3 229.336 869.3 228.937C869.3 228.515 869.3 228.104 869.3 227.705C869.3 227.283 869.3 226.884 869.3 226.509C869.3 226.133 869.312 225.852 869.336 225.664L868.315 223.869C868.221 223.846 868.127 223.823 868.034 223.799C867.94 223.776 867.834 223.74 867.717 223.694C867.529 223.647 867.341 223.658 867.154 223.729C866.99 223.799 866.825 223.881 866.661 223.975C866.497 224.069 866.344 224.163 866.204 224.257C866.063 224.35 865.934 224.397 865.817 224.397C865.817 224.468 865.687 224.409 865.429 224.221C865.195 224.01 864.995 223.811 864.831 223.623C864.432 223.295 864.139 223.236 863.951 223.447C863.787 223.635 863.646 223.893 863.529 224.221C863.553 224.479 863.588 224.655 863.635 224.749C863.705 224.843 863.775 224.913 863.846 224.96C863.94 224.984 864.022 224.984 864.092 224.96C863.975 225.054 863.881 225.23 863.811 225.488C863.74 225.723 863.682 225.993 863.635 226.298C863.611 226.579 863.599 226.884 863.599 227.213C863.623 227.518 863.658 227.799 863.705 228.057C863.752 228.339 863.717 228.831 863.599 229.535C863.506 230.239 863.482 231.048 863.529 231.963C863.529 232.315 863.517 232.691 863.494 233.09C863.47 233.465 863.447 233.84 863.424 234.216C863.4 234.568 863.377 234.896 863.353 235.201C863.33 235.483 863.318 235.705 863.318 235.87V235.975C862.872 236.351 862.415 236.573 861.945 236.644ZM894.783 234.673L889.856 235.271L888.836 233.617C888.836 233.312 888.601 233.324 888.132 233.653C888.015 233.723 887.897 233.84 887.78 234.005C887.663 234.169 887.546 234.333 887.428 234.497C887.358 234.591 887.287 234.685 887.217 234.779C887.147 234.873 887.076 234.978 887.006 235.095C886.279 235.635 885.528 235.987 884.754 236.151C884.003 236.315 883.358 236.21 882.818 235.834C882.419 235.788 882.15 235.694 882.009 235.553C881.938 235.506 881.845 235.424 881.727 235.307L879.475 235.166L878.525 234.708L877.645 232.491L877.821 231.752L877.047 228.655L878.525 226.192L879.721 225.101C880.167 224.867 880.683 224.679 881.27 224.538C881.856 224.397 882.443 224.304 883.029 224.257C883.616 224.186 884.179 224.174 884.719 224.221C885.258 224.245 885.704 224.315 886.056 224.433C886.056 224.808 886.173 225.054 886.408 225.172C886.642 225.289 887.1 225.418 887.78 225.559C888.015 225.16 888.132 224.679 888.132 224.116C888.132 223.529 888.027 222.919 887.815 222.286L887.252 220.491C887.065 220.421 886.771 220.303 886.373 220.139C885.997 219.952 885.68 219.799 885.422 219.682L883.909 219.928L882.361 220.245L882.009 219.682L882.396 218.767L882.642 218.204L883.135 218.098L884.754 217.817L886.197 218.309L887.78 218.063L890.842 218.978L892.144 220.949L892.601 226.544L892.496 228.304L893.27 232.421L893.727 232.632H894.818L895.276 233.864L894.783 234.673ZM881.868 228.937C881.751 229.547 881.751 230.063 881.868 230.485C882.009 230.908 882.232 231.26 882.537 231.541L883.065 232.632C883.487 232.773 883.886 232.878 884.261 232.949C884.636 233.019 885.024 233.031 885.422 232.984C885.845 232.914 886.279 232.785 886.724 232.597C887.194 232.386 887.733 232.081 888.343 231.682L888.414 229.887L887.78 226.755C887.452 226.638 887.158 226.579 886.9 226.579C886.666 226.579 886.431 226.603 886.197 226.65C885.915 226.72 885.587 226.779 885.211 226.826C884.836 226.872 884.449 226.931 884.05 227.001C883.675 227.048 883.323 227.119 882.994 227.213C882.689 227.283 882.466 227.389 882.326 227.529L881.868 228.937ZM901.982 236.644C901.912 236.644 901.759 236.656 901.525 236.679C901.314 236.679 901.079 236.691 900.821 236.714C900.563 236.714 900.317 236.726 900.082 236.749C899.847 236.749 899.683 236.749 899.589 236.749L898.815 236.82L898.217 236.398C898.193 236.046 898.217 235.635 898.287 235.166C898.381 234.697 898.428 234.333 898.428 234.075C898.709 234.075 898.768 233.793 898.604 233.23C898.416 232.667 898.346 232.222 898.393 231.893C898.416 231.518 898.475 231.142 898.569 230.767C898.663 230.368 898.674 230.11 898.604 229.993C898.557 229.852 898.498 229.699 898.428 229.535C898.358 229.348 898.299 229.136 898.252 228.902L898.674 226.614C898.674 225.348 898.686 224.374 898.709 223.694C898.756 223.013 898.792 222.509 898.815 222.18C898.862 221.852 898.909 221.652 898.956 221.582C899.026 221.488 899.073 221.406 899.097 221.336C899.144 221.265 899.167 221.148 899.167 220.984C899.19 220.82 899.19 220.491 899.167 219.998L899.906 219.611C900.305 219.635 900.786 219.705 901.349 219.823C901.935 219.916 902.498 220.022 903.038 220.139C903.32 220.186 903.566 220.233 903.777 220.28C903.988 220.303 904.176 220.339 904.34 220.386L904.833 221.054C904.387 221.359 904.094 221.559 903.953 221.652C903.812 221.746 903.8 221.946 903.918 222.251C904.34 222.626 904.704 222.743 905.009 222.603C905.337 222.462 905.56 222.239 905.677 221.934L907.965 221.371H909.302L909.9 221.582C910.463 221.77 911.026 221.969 911.589 222.18C912.176 222.391 912.657 222.556 913.032 222.673L913.666 224.221L913.631 224.644C913.677 225.324 913.713 225.981 913.736 226.614C913.783 227.224 913.783 227.975 913.736 228.867C913.713 229.43 913.689 230.004 913.666 230.591C913.642 231.154 913.619 231.694 913.595 232.21C913.595 232.726 913.595 233.183 913.595 233.582C913.595 233.958 913.595 234.239 913.595 234.427C913.595 234.45 913.619 234.544 913.666 234.708C913.736 234.873 913.83 235.049 913.947 235.236L913.701 235.623L913.032 235.94C912.704 235.963 912.282 236.022 911.765 236.116C911.273 236.21 910.862 236.257 910.534 236.257C910.393 236.257 910.276 236.21 910.182 236.116C910.088 235.999 909.877 235.952 909.548 235.975L909.056 235.553C909.103 235.248 909.114 235.002 909.091 234.814C909.067 234.603 909.032 234.427 908.985 234.286C908.938 234.122 908.891 233.981 908.845 233.864C908.798 233.746 908.774 233.629 908.774 233.512C908.798 233.16 908.833 232.773 908.88 232.351C908.927 232.022 908.974 231.647 909.02 231.224C909.091 230.779 909.173 230.345 909.267 229.922C909.314 229.664 909.337 229.336 909.337 228.937C909.337 228.515 909.337 228.104 909.337 227.705C909.337 227.283 909.337 226.884 909.337 226.509C909.337 226.133 909.349 225.852 909.372 225.664L908.352 223.869C908.258 223.846 908.164 223.823 908.07 223.799C907.976 223.776 907.871 223.74 907.754 223.694C907.566 223.647 907.378 223.658 907.191 223.729C907.026 223.799 906.862 223.881 906.698 223.975C906.534 224.069 906.381 224.163 906.24 224.257C906.1 224.35 905.971 224.397 905.853 224.397C905.853 224.468 905.724 224.409 905.466 224.221C905.232 224.01 905.032 223.811 904.868 223.623C904.469 223.295 904.176 223.236 903.988 223.447C903.824 223.635 903.683 223.893 903.566 224.221C903.589 224.479 903.625 224.655 903.671 224.749C903.742 224.843 903.812 224.913 903.883 224.96C903.976 224.984 904.059 224.984 904.129 224.96C904.012 225.054 903.918 225.23 903.847 225.488C903.777 225.723 903.718 225.993 903.671 226.298C903.648 226.579 903.636 226.884 903.636 227.213C903.66 227.518 903.695 227.799 903.742 228.057C903.789 228.339 903.754 228.831 903.636 229.535C903.542 230.239 903.519 231.048 903.566 231.963C903.566 232.315 903.554 232.691 903.531 233.09C903.507 233.465 903.484 233.84 903.46 234.216C903.437 234.568 903.413 234.896 903.39 235.201C903.366 235.483 903.355 235.705 903.355 235.87V235.975C902.909 236.351 902.451 236.573 901.982 236.644ZM943.874 224.186C943.944 224.585 943.979 224.937 943.979 225.242C943.979 225.523 943.968 225.805 943.944 226.087C943.944 226.345 943.956 226.603 943.979 226.861C944.026 227.095 944.12 227.353 944.261 227.635C944.214 227.729 944.097 227.916 943.909 228.198C943.745 228.456 943.627 228.726 943.557 229.007C943.51 229.265 943.475 229.465 943.451 229.606C943.428 229.746 943.404 229.84 943.381 229.887C943.451 229.934 943.51 230.028 943.557 230.169C943.58 230.286 943.557 230.438 943.487 230.626C943.416 230.79 943.275 231.025 943.064 231.33C942.642 231.893 942.407 232.374 942.36 232.773C942.314 233.148 942.22 233.441 942.079 233.653C942.032 233.7 941.88 233.77 941.621 233.864C941.387 233.958 941.105 234.075 940.777 234.216C940.448 234.333 940.12 234.474 939.792 234.638C939.463 234.802 939.205 234.966 939.017 235.131C938.618 235.201 938.267 235.295 937.962 235.412C937.657 235.529 937.281 235.612 936.835 235.659C936.413 235.752 935.979 235.87 935.533 236.01C935.088 236.128 934.841 236.186 934.794 236.186C933.692 236.186 933.035 236.222 932.824 236.292C932.636 236.362 932.413 236.398 932.155 236.398L928.953 235.236L927.475 233.09C927.475 232.527 927.451 232.057 927.404 231.682C927.381 231.283 927.346 230.943 927.299 230.661C927.252 230.356 927.217 230.075 927.193 229.817C927.17 229.559 927.17 229.265 927.193 228.937C927.263 228.867 927.369 228.702 927.51 228.444C927.651 228.163 927.791 227.846 927.932 227.494C928.096 227.142 928.249 226.779 928.39 226.403C928.554 226.028 928.671 225.711 928.742 225.453C928.929 224.913 929.07 224.444 929.164 224.045C929.258 223.623 929.328 223.248 929.375 222.919C929.563 222.802 929.715 222.673 929.832 222.532C929.95 222.391 930.067 222.274 930.184 222.18C931.146 221.617 931.979 221.16 932.683 220.808C933.387 220.432 934.044 220.198 934.654 220.104L935.709 220.034C935.827 220.057 935.932 220.081 936.026 220.104C936.12 220.127 936.214 220.151 936.308 220.174C936.448 220.221 936.577 220.257 936.695 220.28C936.812 220.28 936.882 220.28 936.906 220.28L937.61 221.371C937.61 221.582 937.563 221.758 937.469 221.899C937.375 222.016 937.469 222.098 937.75 222.145C938.055 222.216 938.22 222.262 938.243 222.286V222.321C938.618 222.321 939.006 222.239 939.404 222.075C939.803 221.887 940.202 221.793 940.601 221.793C940.695 221.793 940.859 221.84 941.094 221.934C941.328 222.004 941.575 222.098 941.833 222.216C942.091 222.333 942.325 222.45 942.536 222.567C942.771 222.661 942.935 222.732 943.029 222.779C942.982 223.13 942.994 223.377 943.064 223.518C943.135 223.658 943.229 223.764 943.346 223.834C943.463 223.881 943.569 223.928 943.663 223.975C943.78 223.999 943.85 224.069 943.874 224.186ZM937.574 232.984C937.926 232.749 938.267 231.999 938.595 230.732C938.783 230.051 938.935 229.547 939.052 229.219C939.193 228.867 939.264 228.538 939.264 228.233C939.264 227.717 939.088 227.107 938.736 226.403C938.548 226.028 938.407 225.711 938.313 225.453C938.22 225.195 938.149 224.937 938.102 224.679C937.915 224.585 937.809 224.444 937.786 224.257C937.786 224.045 937.692 223.834 937.504 223.623C937.269 223.435 937.129 223.365 937.082 223.412C937.035 223.459 936.988 223.482 936.941 223.482H936.624C936.437 223.482 936.179 223.518 935.85 223.588C935.545 223.658 935.299 223.823 935.111 224.081C934.83 224.386 934.583 224.632 934.372 224.82C934.184 224.984 934.079 225.089 934.055 225.136C933.821 225.582 933.61 225.969 933.422 226.298C933.234 226.603 933.082 226.849 932.964 227.037L932.648 227.776C932.507 228.128 932.448 228.597 932.472 229.183C932.519 229.277 932.566 229.488 932.613 229.817C932.659 230.122 932.519 230.45 932.19 230.802C932.12 230.873 932.049 231.013 931.979 231.224C931.909 231.412 931.862 231.635 931.838 231.893C931.815 232.151 931.838 232.409 931.909 232.667C932.003 232.925 932.178 233.148 932.437 233.336C932.765 233.571 933.105 233.805 933.457 234.04C933.809 234.251 934.032 234.356 934.126 234.356H934.513C934.654 234.356 934.783 234.392 934.9 234.462L937.574 232.984ZM957.084 223.764C956.991 223.506 956.92 223.166 956.873 222.743C956.826 222.298 956.779 221.922 956.732 221.617L957.401 220.35C957.823 220.28 958.117 220.257 958.281 220.28C958.469 220.303 958.609 220.339 958.703 220.386C958.844 220.362 959.043 220.339 959.301 220.315C959.583 220.268 960.005 220.198 960.568 220.104C960.615 219.705 960.697 219.259 960.815 218.767C960.932 218.274 961.014 217.723 961.061 217.113L960.568 216.62L960.533 216.092L960.92 215.177H965.143L966.727 215.248C966.891 215.435 966.961 215.658 966.938 215.916C966.914 216.151 966.868 216.374 966.797 216.585C966.727 216.796 966.656 216.972 966.586 217.113C966.539 217.23 966.551 217.265 966.621 217.218V219.4C966.48 219.518 966.375 219.658 966.304 219.823C966.234 219.963 966.175 220.127 966.128 220.315L966.199 220.386L968.24 220.315C968.31 220.339 968.381 220.362 968.451 220.386C968.521 220.409 968.604 220.432 968.697 220.456C968.979 220.526 969.343 220.562 969.788 220.562L970.105 220.913L969.718 222.603C969.577 222.603 969.39 222.626 969.155 222.673C968.92 222.696 968.674 222.732 968.416 222.779C968.181 222.802 967.958 222.825 967.747 222.849C967.56 222.872 967.431 222.884 967.36 222.884L965.882 223.306C965.788 223.564 965.718 223.787 965.671 223.975C965.648 224.139 965.636 224.304 965.636 224.468C965.636 224.609 965.636 224.773 965.636 224.96C965.659 225.125 965.671 225.336 965.671 225.594L965.425 230.063C965.354 230.462 965.331 230.826 965.354 231.154C965.401 231.482 965.46 231.764 965.53 231.999C965.577 232.116 965.624 232.233 965.671 232.351C965.718 232.468 965.765 232.585 965.812 232.702L966.128 233.617L966.269 233.793L969.683 232.738L970.985 232.421L971.759 233.125L970.914 234.251L970.105 234.673L969.401 234.814L965.354 236.609C965.237 236.609 965.143 236.597 965.073 236.573C964.955 236.573 964.815 236.573 964.65 236.573C964.51 236.55 964.345 236.527 964.158 236.503C963.313 236.433 962.68 236.456 962.257 236.573C962.257 235.917 961.999 235.471 961.483 235.236C961.225 235.072 960.991 234.931 960.779 234.814C960.592 234.697 960.416 234.603 960.252 234.532C960.252 234.134 960.252 233.864 960.252 233.723C960.275 233.582 960.252 233.395 960.181 233.16C960.134 233.043 960.123 232.785 960.146 232.386C960.169 231.963 960.193 231.436 960.216 230.802C960.263 230.145 960.24 229.617 960.146 229.219C960.052 228.796 959.911 228.585 959.724 228.585C959.747 228.28 959.759 227.975 959.759 227.67C959.782 227.365 959.806 227.095 959.829 226.861C959.853 226.743 959.864 226.614 959.864 226.474C959.864 226.333 959.864 226.204 959.864 226.087C959.911 225.993 959.947 225.922 959.97 225.875C959.994 225.805 960.017 225.758 960.04 225.735C960.064 225.688 960.169 225.629 960.357 225.559C960.568 225.465 960.756 225.218 960.92 224.82C961.46 224.444 961.694 224.104 961.624 223.799C961.554 223.494 961.143 223.283 960.392 223.166C960.228 223.189 960.087 223.236 959.97 223.306C959.876 223.353 959.829 223.482 959.829 223.694L957.718 224.151L957.084 223.764ZM988.779 228.233C988.263 228.163 987.805 228.257 987.406 228.515C987.265 228.585 987.125 228.655 986.984 228.726C986.843 228.773 986.702 228.82 986.562 228.867C986.491 228.89 986.421 228.914 986.35 228.937C986.28 228.96 986.221 228.984 986.175 229.007L981.283 230.485C979.922 230.18 979.441 230.403 979.84 231.154C979.91 231.318 980.004 231.565 980.122 231.893C980.239 232.222 980.333 232.456 980.403 232.597C980.708 232.714 981.025 232.902 981.353 233.16C981.682 233.395 981.987 233.535 982.268 233.582L982.902 233.512C983.066 233.512 983.289 233.5 983.57 233.477C983.875 233.453 984.169 233.418 984.45 233.371C984.755 233.301 985.025 233.219 985.26 233.125C985.518 233.031 985.694 232.914 985.787 232.773C985.858 232.656 985.963 232.573 986.104 232.527C986.245 232.456 986.386 232.397 986.526 232.351C986.62 232.327 986.702 232.315 986.773 232.315C986.867 232.292 986.972 232.268 987.089 232.245L987.477 233.617L987.054 234.427C987.031 234.474 986.949 234.532 986.808 234.603C986.691 234.65 986.55 234.72 986.386 234.814C986.221 234.908 986.057 235.002 985.893 235.095C985.752 235.166 985.647 235.236 985.576 235.307C985.529 235.354 985.4 235.377 985.189 235.377C985.001 235.377 984.779 235.377 984.521 235.377C984.286 235.377 984.04 235.389 983.782 235.412C983.523 235.436 983.324 235.483 983.183 235.553C982.855 235.717 982.597 235.823 982.409 235.87C982.245 235.917 982.104 235.952 981.987 235.975C981.869 236.022 981.787 236.01 981.74 235.94C981.694 235.917 981.611 235.905 981.494 235.905C981.424 235.905 981.33 235.905 981.213 235.905C981.095 235.905 980.978 235.893 980.861 235.87C980.556 235.846 980.309 235.834 980.122 235.834C979.934 235.811 979.817 235.799 979.77 235.799L976.391 234.145C976.321 233.441 975.993 233.09 975.406 233.09C975.289 233.09 975.148 232.996 974.984 232.808C974.82 232.597 974.679 232.374 974.561 232.139C974.468 232.022 974.385 231.893 974.315 231.752C974.245 231.588 974.174 231.412 974.104 231.224L973.787 227.213L974.104 224.855C974.127 224.761 974.198 224.644 974.315 224.503C974.456 224.268 974.632 223.916 974.843 223.447C974.937 223.236 975.124 223.037 975.406 222.849C975.688 222.661 975.981 222.497 976.286 222.356C976.614 222.192 976.919 222.051 977.201 221.934C977.506 221.793 977.729 221.676 977.869 221.582C978.151 221.629 978.561 221.324 979.101 220.667C979.242 220.503 979.418 220.374 979.629 220.28C979.84 220.163 980.051 220.069 980.262 219.998C980.38 219.952 980.509 219.916 980.65 219.893C980.79 219.869 980.919 219.846 981.037 219.823L985.154 220.35C985.389 220.397 985.635 220.468 985.893 220.562C986.081 220.655 986.268 220.773 986.456 220.913C986.644 221.054 986.796 221.218 986.914 221.406C987.078 221.805 987.312 222.133 987.617 222.391C987.922 222.626 988.169 222.79 988.356 222.884L989.658 225.207L989.377 227.494L988.779 228.233ZM983.57 227.037L983.852 226.826C983.922 226.779 983.993 226.732 984.063 226.685C984.133 226.614 984.192 226.567 984.239 226.544C984.403 226.497 984.591 226.403 984.802 226.262C985.013 226.122 985.095 225.946 985.048 225.735C985.048 225.336 984.837 224.89 984.415 224.397C983.993 223.905 983.441 223.553 982.761 223.342C982.433 223.224 982.116 223.166 981.811 223.166C981.506 223.166 981.213 223.189 980.931 223.236C980.673 223.26 980.427 223.295 980.192 223.342C979.981 223.389 979.805 223.412 979.664 223.412C979.125 223.295 978.82 223.541 978.749 224.151C978.397 224.691 978.221 225.289 978.221 225.946C978.245 226.579 978.315 227.189 978.432 227.776C978.432 228.104 978.491 228.374 978.608 228.585C978.749 228.796 978.913 228.925 979.101 228.972C979.289 229.019 979.476 228.984 979.664 228.867C979.875 228.726 980.051 228.48 980.192 228.128L983.57 227.037ZM824.378 247.186L827.581 247.397C828.026 247.397 828.202 247.644 828.108 248.136C827.921 248.512 827.78 249.004 827.686 249.614C827.592 250.201 827.522 250.846 827.475 251.55C827.193 253.638 826.982 255.468 826.842 257.04C826.724 258.588 826.63 259.902 826.56 260.981C826.49 262.06 826.419 262.916 826.349 263.55C826.302 264.183 826.22 264.617 826.103 264.852L826.384 267.808L826.243 268.371C826.314 268.559 826.384 268.746 826.454 268.934C826.548 269.098 826.619 269.239 826.666 269.356C826.759 269.544 826.818 269.673 826.842 269.744C826.842 269.861 826.748 269.99 826.56 270.131C826.396 270.271 826.185 270.412 825.927 270.553C825.668 270.694 825.387 270.834 825.082 270.975C824.777 271.093 824.495 271.198 824.237 271.292C824.026 271.268 823.862 271.233 823.745 271.186C823.651 271.139 823.569 271.069 823.498 270.975C823.428 270.881 823.358 270.752 823.287 270.588C823.24 270.424 823.146 270.213 823.006 269.955C822.771 269.861 822.454 269.837 822.056 269.884C821.657 269.908 821.328 270.037 821.07 270.271C820.976 270.529 820.883 270.705 820.789 270.799C820.718 270.893 820.636 270.975 820.542 271.046C820.472 271.093 820.378 271.139 820.261 271.186C820.143 271.233 820.003 271.327 819.839 271.468C819.229 271.515 818.724 271.538 818.325 271.538C817.95 271.538 817.61 271.515 817.305 271.468C817.023 271.398 816.753 271.315 816.495 271.222C816.237 271.104 815.944 270.952 815.616 270.764C815.123 270.694 814.701 270.588 814.349 270.447C814.02 270.307 813.739 270.154 813.504 269.99C813.293 269.802 813.105 269.615 812.941 269.427C812.777 269.216 812.624 269.028 812.484 268.864L810.97 265.485L811.217 262.565C811.404 262.447 811.545 262.365 811.639 262.318C811.756 262.271 811.85 262.224 811.921 262.177C811.991 262.131 812.05 262.072 812.096 262.001C812.167 261.908 812.249 261.755 812.343 261.544C812.413 261.521 812.46 261.45 812.484 261.333C812.53 261.216 812.542 261.087 812.519 260.946C812.519 260.805 812.495 260.664 812.448 260.523C812.401 260.383 812.331 260.277 812.237 260.207L813.434 258.377C813.504 258.377 813.633 258.318 813.821 258.201C814.009 258.06 814.231 257.908 814.489 257.743C814.748 257.556 815.029 257.38 815.334 257.216C815.662 257.051 816.003 256.934 816.355 256.864C817.011 256.676 817.516 256.582 817.868 256.582C818.22 256.559 818.431 256.535 818.501 256.512C818.642 256.606 818.806 256.676 818.994 256.723C819.182 256.77 819.358 256.817 819.522 256.864C819.709 256.887 819.862 256.911 819.979 256.934C820.12 256.934 820.202 256.934 820.226 256.934C820.249 256.934 820.284 257.004 820.331 257.145C820.378 257.286 820.437 257.462 820.507 257.673C820.578 257.884 820.671 258.095 820.789 258.306C820.906 258.518 821.047 258.694 821.211 258.834L821.844 259.045L822.407 258.834L822.548 257.11L822.372 255.702C822.49 255.397 822.56 255.139 822.583 254.928C822.63 254.693 822.642 254.459 822.619 254.224C822.619 253.99 822.607 253.755 822.583 253.52C822.56 253.262 822.548 252.969 822.548 252.641C822.877 252.265 823.064 251.902 823.111 251.55C823.182 251.198 823.017 250.834 822.619 250.459L822.583 248.946L823.534 247.327L824.378 247.186ZM820.753 269.075L821.774 267.914C821.704 267.82 821.727 267.644 821.844 267.386C821.962 267.128 821.997 266.834 821.95 266.506C821.927 266.342 821.915 265.978 821.915 265.415C821.938 264.852 821.962 264.265 821.985 263.655C822.009 263.045 822.032 262.506 822.056 262.037C822.079 261.544 821.856 261.051 821.387 260.559L819.205 259.644L817.164 260.207L816.214 261.262C815.979 261.638 815.792 261.978 815.651 262.283C815.533 262.588 815.451 262.905 815.404 263.233C815.358 263.538 815.346 263.855 815.369 264.183C815.393 264.512 815.44 264.875 815.51 265.274C815.463 265.743 815.533 266.119 815.721 266.4C815.909 266.682 816.19 266.917 816.566 267.104L817.833 268.477L818.888 268.969C819.053 269.04 819.182 269.11 819.275 269.18C819.393 269.227 819.498 269.263 819.592 269.286C819.709 269.286 819.85 269.274 820.014 269.251C820.202 269.227 820.448 269.169 820.753 269.075ZM847.339 259.186C847.409 259.585 847.444 259.937 847.444 260.242C847.444 260.523 847.433 260.805 847.409 261.087C847.409 261.345 847.421 261.603 847.444 261.861C847.491 262.095 847.585 262.353 847.726 262.635C847.679 262.729 847.562 262.916 847.374 263.198C847.21 263.456 847.092 263.726 847.022 264.007C846.975 264.265 846.94 264.465 846.916 264.606C846.893 264.746 846.869 264.84 846.846 264.887C846.916 264.934 846.975 265.028 847.022 265.169C847.045 265.286 847.022 265.438 846.952 265.626C846.881 265.79 846.74 266.025 846.529 266.33C846.107 266.893 845.872 267.374 845.825 267.773C845.779 268.148 845.685 268.441 845.544 268.653C845.497 268.7 845.345 268.77 845.086 268.864C844.852 268.958 844.57 269.075 844.242 269.216C843.913 269.333 843.585 269.474 843.257 269.638C842.928 269.802 842.67 269.966 842.482 270.131C842.083 270.201 841.732 270.295 841.427 270.412C841.122 270.529 840.746 270.612 840.3 270.659C839.878 270.752 839.444 270.87 838.998 271.01C838.553 271.128 838.306 271.186 838.259 271.186C837.157 271.186 836.5 271.222 836.289 271.292C836.101 271.362 835.878 271.398 835.62 271.398L832.418 270.236L830.94 268.09C830.94 267.527 830.916 267.057 830.869 266.682C830.846 266.283 830.811 265.943 830.764 265.661C830.717 265.356 830.682 265.075 830.658 264.817C830.635 264.559 830.635 264.265 830.658 263.937C830.729 263.867 830.834 263.702 830.975 263.444C831.116 263.163 831.256 262.846 831.397 262.494C831.561 262.142 831.714 261.779 831.855 261.403C832.019 261.028 832.136 260.711 832.207 260.453C832.394 259.913 832.535 259.444 832.629 259.045C832.723 258.623 832.793 258.248 832.84 257.919C833.028 257.802 833.18 257.673 833.297 257.532C833.415 257.391 833.532 257.274 833.649 257.18C834.611 256.617 835.444 256.16 836.148 255.808C836.852 255.432 837.509 255.198 838.119 255.104L839.174 255.034C839.292 255.057 839.397 255.081 839.491 255.104C839.585 255.127 839.679 255.151 839.773 255.174C839.913 255.221 840.042 255.257 840.16 255.28C840.277 255.28 840.347 255.28 840.371 255.28L841.075 256.371C841.075 256.582 841.028 256.758 840.934 256.899C840.84 257.016 840.934 257.098 841.215 257.145C841.52 257.216 841.685 257.262 841.708 257.286V257.321C842.083 257.321 842.471 257.239 842.869 257.075C843.268 256.887 843.667 256.793 844.066 256.793C844.16 256.793 844.324 256.84 844.559 256.934C844.793 257.004 845.04 257.098 845.298 257.216C845.556 257.333 845.79 257.45 846.001 257.567C846.236 257.661 846.4 257.732 846.494 257.779C846.447 258.13 846.459 258.377 846.529 258.518C846.6 258.658 846.694 258.764 846.811 258.834C846.928 258.881 847.034 258.928 847.128 258.975C847.245 258.999 847.315 259.069 847.339 259.186ZM841.039 267.984C841.391 267.749 841.732 266.999 842.06 265.732C842.248 265.051 842.4 264.547 842.518 264.219C842.658 263.867 842.729 263.538 842.729 263.233C842.729 262.717 842.553 262.107 842.201 261.403C842.013 261.028 841.872 260.711 841.779 260.453C841.685 260.195 841.614 259.937 841.567 259.679C841.38 259.585 841.274 259.444 841.251 259.257C841.251 259.045 841.157 258.834 840.969 258.623C840.735 258.435 840.594 258.365 840.547 258.412C840.5 258.459 840.453 258.482 840.406 258.482H840.089C839.902 258.482 839.644 258.518 839.315 258.588C839.01 258.658 838.764 258.823 838.576 259.081C838.295 259.386 838.048 259.632 837.837 259.82C837.649 259.984 837.544 260.089 837.52 260.136C837.286 260.582 837.075 260.969 836.887 261.298C836.699 261.603 836.547 261.849 836.429 262.037L836.113 262.776C835.972 263.128 835.913 263.597 835.937 264.183C835.984 264.277 836.031 264.488 836.078 264.817C836.124 265.122 835.984 265.45 835.655 265.802C835.585 265.873 835.514 266.013 835.444 266.224C835.374 266.412 835.327 266.635 835.303 266.893C835.28 267.151 835.303 267.409 835.374 267.667C835.468 267.925 835.644 268.148 835.902 268.336C836.23 268.571 836.57 268.805 836.922 269.04C837.274 269.251 837.497 269.356 837.591 269.356H837.978C838.119 269.356 838.248 269.392 838.365 269.462L841.039 267.984ZM875.531 270.342L873.56 270.94L870.992 271.257L870.745 270.659L871.273 268.617L871.907 266.752L872.082 260.101L871.238 258.518H870.217L868.599 259.714H868.211C867.953 259.714 867.789 259.867 867.719 260.172C867.672 260.453 867.672 260.782 867.719 261.157C867.508 261.227 867.355 261.579 867.261 262.213L867.121 263.198L867.085 265.345L866.452 268.16L866.698 269.568L866.381 270.834L866.065 271.151L862.159 271.433L861.349 270.694L861.596 269.321L862.088 265.697C862.182 265.274 862.264 264.793 862.335 264.254C862.428 263.714 862.499 263.175 862.546 262.635C862.593 262.072 862.616 261.544 862.616 261.051C862.64 260.535 862.64 260.113 862.616 259.784C862.569 259.526 862.569 259.315 862.616 259.151C862.663 258.963 862.675 258.823 862.651 258.729L861.983 258.095L859.801 258.447L859.097 257.849C858.534 257.52 858.241 257.72 858.217 258.447C858.076 258.658 857.947 258.834 857.83 258.975C857.736 259.092 857.678 259.28 857.654 259.538C857.537 259.585 857.443 259.644 857.373 259.714C857.279 259.808 857.185 259.949 857.091 260.136C856.997 260.324 856.927 260.594 856.88 260.946C856.786 261.626 856.739 262.201 856.739 262.67C856.739 263.139 856.798 263.468 856.915 263.655V264.289L856.317 265.697L856.141 268.195L855.824 270.623L855.543 270.94L851.285 271.292L850.581 270.659L850.792 269.321L851.003 267.491L851.144 264.817C851.144 264.371 851.202 263.949 851.32 263.55C851.437 263.151 851.543 262.705 851.636 262.213L851.988 259.433C852.153 259.268 852.329 258.975 852.516 258.553C852.727 258.13 852.833 257.72 852.833 257.321C852.833 257.204 852.809 257.122 852.763 257.075C852.739 257.004 852.704 256.922 852.657 256.828L853.185 256.125C853.232 256.125 853.337 256.136 853.502 256.16C853.666 256.16 853.853 256.16 854.065 256.16C854.299 256.136 854.534 256.125 854.768 256.125C855.003 256.101 855.226 256.066 855.437 256.019C856.282 255.902 856.81 255.726 857.021 255.491L858.358 255.421L858.217 256.758C858.428 256.969 858.651 257.098 858.886 257.145C859.144 257.169 859.402 257.133 859.66 257.04C859.918 256.922 860.164 256.758 860.399 256.547C860.634 256.312 860.833 256.042 860.997 255.737L863.003 255.773C863.261 255.749 863.508 255.737 863.742 255.737C864 255.714 864.247 255.702 864.481 255.702C864.857 255.702 865.208 255.737 865.537 255.808C865.865 255.855 866.053 255.937 866.1 256.054C866.194 256.476 866.393 256.641 866.698 256.547C866.745 256.523 866.827 256.606 866.945 256.793C867.085 256.957 867.296 257.063 867.578 257.11C867.719 257.157 867.813 257.239 867.86 257.356C867.93 257.45 867.977 257.556 868 257.673C868.024 257.79 868.047 257.896 868.071 257.99C868.094 258.06 868.141 258.095 868.211 258.095L870.253 256.476L873.525 255.949L876.517 258.342L876.587 258.834C876.587 258.975 876.575 259.116 876.552 259.257C876.552 259.374 876.517 259.468 876.446 259.538V262.705L876.481 266.084L875.848 269.99L875.531 270.342ZM883.312 249.649C883.359 249.462 883.382 249.286 883.382 249.122C883.406 248.934 883.429 248.746 883.453 248.558C883.453 248.394 883.453 248.254 883.453 248.136C883.476 248.019 883.488 247.913 883.488 247.819L883.664 247.432C883.734 247.409 883.828 247.397 883.945 247.397C884.063 247.397 884.204 247.385 884.368 247.362C884.86 247.339 885.177 247.28 885.318 247.186C885.318 247.163 885.377 247.116 885.494 247.045C885.564 246.975 885.623 246.928 885.67 246.905C885.693 246.905 885.775 246.916 885.916 246.94C886.057 246.963 886.245 247.01 886.479 247.08C886.878 247.174 887.16 247.221 887.324 247.221C887.535 247.221 887.652 247.209 887.676 247.186C887.699 247.163 887.77 247.163 887.887 247.186L888.204 247.784L888.52 249.579L887.781 250.811C887.758 250.834 887.734 250.858 887.711 250.881C887.711 250.905 887.687 250.928 887.641 250.951C887.523 251.022 887.382 251.127 887.218 251.268L887.113 251.374L886.057 251.479C885.916 251.432 885.752 251.386 885.564 251.339C885.377 251.268 885.154 251.186 884.896 251.092C884.638 250.998 884.415 250.916 884.227 250.846C884.039 250.752 883.875 250.682 883.734 250.635L883.558 250.459L883.312 249.649ZM887.676 255.702L887.535 256.969L887.676 257.497L887.465 258.06L887.57 258.869L887.394 259.538L887.5 259.749L887.359 261.333L887.218 264.676C887.218 264.84 887.195 265.051 887.148 265.309C887.101 265.544 887.066 265.802 887.042 266.084C887.019 266.342 887.019 266.612 887.042 266.893C887.066 267.151 887.136 267.374 887.253 267.562C887.23 267.914 887.195 268.324 887.148 268.793C887.101 269.263 887.019 269.802 886.901 270.412C886.714 270.67 886.514 270.905 886.303 271.116C886.116 271.304 885.752 271.409 885.212 271.433C884.907 271.456 884.602 271.48 884.297 271.503C884.016 271.527 883.746 271.562 883.488 271.609C883.347 271.632 883.206 271.656 883.066 271.679C882.925 271.703 882.772 271.738 882.608 271.785L881.728 270.659C881.752 270.541 881.787 270.224 881.834 269.708C881.904 269.169 881.963 268.535 882.01 267.808C882.057 267.081 882.08 266.307 882.08 265.485C882.104 264.664 882.08 263.902 882.01 263.198L882.221 262.529L882.538 260.981L882.643 259.749L882.855 259.327L882.89 259.01L883.101 258.06L883.277 256.125L886.444 254.893L887.676 255.702ZM897.549 271.644C897.479 271.644 897.326 271.656 897.092 271.679C896.88 271.679 896.646 271.691 896.388 271.714C896.13 271.714 895.883 271.726 895.649 271.749C895.414 271.749 895.25 271.749 895.156 271.749L894.382 271.82L893.784 271.398C893.76 271.046 893.784 270.635 893.854 270.166C893.948 269.697 893.995 269.333 893.995 269.075C894.276 269.075 894.335 268.793 894.171 268.23C893.983 267.667 893.913 267.222 893.96 266.893C893.983 266.518 894.042 266.142 894.135 265.767C894.229 265.368 894.241 265.11 894.171 264.993C894.124 264.852 894.065 264.699 893.995 264.535C893.924 264.348 893.866 264.136 893.819 263.902L894.241 261.614C894.241 260.348 894.253 259.374 894.276 258.694C894.323 258.013 894.358 257.509 894.382 257.18C894.429 256.852 894.476 256.652 894.523 256.582C894.593 256.488 894.64 256.406 894.663 256.336C894.71 256.265 894.734 256.148 894.734 255.984C894.757 255.82 894.757 255.491 894.734 254.998L895.473 254.611C895.872 254.635 896.352 254.705 896.916 254.823C897.502 254.916 898.065 255.022 898.605 255.139C898.886 255.186 899.133 255.233 899.344 255.28C899.555 255.303 899.743 255.339 899.907 255.386L900.399 256.054C899.954 256.359 899.66 256.559 899.52 256.652C899.379 256.746 899.367 256.946 899.485 257.251C899.907 257.626 900.27 257.743 900.575 257.603C900.904 257.462 901.127 257.239 901.244 256.934L903.531 256.371H904.869L905.467 256.582C906.03 256.77 906.593 256.969 907.156 257.18C907.743 257.391 908.224 257.556 908.599 257.673L909.232 259.221L909.197 259.644C909.244 260.324 909.279 260.981 909.303 261.614C909.35 262.224 909.35 262.975 909.303 263.867C909.279 264.43 909.256 265.004 909.232 265.591C909.209 266.154 909.186 266.694 909.162 267.21C909.162 267.726 909.162 268.183 909.162 268.582C909.162 268.958 909.162 269.239 909.162 269.427C909.162 269.45 909.186 269.544 909.232 269.708C909.303 269.873 909.397 270.049 909.514 270.236L909.268 270.623L908.599 270.94C908.271 270.963 907.848 271.022 907.332 271.116C906.839 271.21 906.429 271.257 906.1 271.257C905.96 271.257 905.842 271.21 905.749 271.116C905.655 270.999 905.444 270.952 905.115 270.975L904.622 270.553C904.669 270.248 904.681 270.002 904.658 269.814C904.634 269.603 904.599 269.427 904.552 269.286C904.505 269.122 904.458 268.981 904.411 268.864C904.364 268.746 904.341 268.629 904.341 268.512C904.364 268.16 904.4 267.773 904.446 267.351C904.493 267.022 904.54 266.647 904.587 266.224C904.658 265.779 904.74 265.345 904.834 264.922C904.88 264.664 904.904 264.336 904.904 263.937C904.904 263.515 904.904 263.104 904.904 262.705C904.904 262.283 904.904 261.884 904.904 261.509C904.904 261.133 904.916 260.852 904.939 260.664L903.919 258.869C903.825 258.846 903.731 258.823 903.637 258.799C903.543 258.776 903.438 258.74 903.32 258.694C903.133 258.647 902.945 258.658 902.757 258.729C902.593 258.799 902.429 258.881 902.265 258.975C902.1 259.069 901.948 259.163 901.807 259.257C901.666 259.35 901.537 259.397 901.42 259.397C901.42 259.468 901.291 259.409 901.033 259.221C900.798 259.01 900.599 258.811 900.435 258.623C900.036 258.295 899.743 258.236 899.555 258.447C899.391 258.635 899.25 258.893 899.133 259.221C899.156 259.479 899.191 259.655 899.238 259.749C899.309 259.843 899.379 259.913 899.449 259.96C899.543 259.984 899.625 259.984 899.696 259.96C899.578 260.054 899.485 260.23 899.414 260.488C899.344 260.723 899.285 260.993 899.238 261.298C899.215 261.579 899.203 261.884 899.203 262.213C899.226 262.518 899.262 262.799 899.309 263.057C899.355 263.339 899.32 263.831 899.203 264.535C899.109 265.239 899.086 266.048 899.133 266.963C899.133 267.315 899.121 267.691 899.097 268.09C899.074 268.465 899.05 268.84 899.027 269.216C899.004 269.568 898.98 269.896 898.957 270.201C898.933 270.483 898.921 270.705 898.921 270.87V270.975C898.476 271.351 898.018 271.573 897.549 271.644ZM930.387 269.673L925.46 270.271L924.439 268.617C924.439 268.312 924.205 268.324 923.736 268.653C923.618 268.723 923.501 268.84 923.384 269.005C923.266 269.169 923.149 269.333 923.032 269.497C922.961 269.591 922.891 269.685 922.821 269.779C922.75 269.873 922.68 269.978 922.609 270.095C921.882 270.635 921.131 270.987 920.357 271.151C919.606 271.315 918.961 271.21 918.422 270.834C918.023 270.788 917.753 270.694 917.612 270.553C917.542 270.506 917.448 270.424 917.331 270.307L915.079 270.166L914.128 269.708L913.249 267.491L913.425 266.752L912.65 263.655L914.128 261.192L915.325 260.101C915.771 259.867 916.287 259.679 916.873 259.538C917.46 259.397 918.046 259.304 918.633 259.257C919.219 259.186 919.782 259.174 920.322 259.221C920.862 259.245 921.307 259.315 921.659 259.433C921.659 259.808 921.777 260.054 922.011 260.172C922.246 260.289 922.703 260.418 923.384 260.559C923.618 260.16 923.736 259.679 923.736 259.116C923.736 258.529 923.63 257.919 923.419 257.286L922.856 255.491C922.668 255.421 922.375 255.303 921.976 255.139C921.601 254.952 921.284 254.799 921.026 254.682L919.513 254.928L917.964 255.245L917.612 254.682L917.999 253.767L918.246 253.204L918.738 253.098L920.357 252.817L921.8 253.309L923.384 253.063L926.445 253.978L927.747 255.949L928.205 261.544L928.099 263.304L928.873 267.421L929.331 267.632H930.422L930.879 268.864L930.387 269.673ZM917.472 263.937C917.354 264.547 917.354 265.063 917.472 265.485C917.612 265.908 917.835 266.26 918.14 266.541L918.668 267.632C919.09 267.773 919.489 267.878 919.865 267.949C920.24 268.019 920.627 268.031 921.026 267.984C921.448 267.914 921.882 267.785 922.328 267.597C922.797 267.386 923.337 267.081 923.947 266.682L924.017 264.887L923.384 261.755C923.055 261.638 922.762 261.579 922.504 261.579C922.269 261.579 922.035 261.603 921.8 261.65C921.519 261.72 921.19 261.779 920.815 261.826C920.439 261.872 920.052 261.931 919.653 262.001C919.278 262.048 918.926 262.119 918.598 262.213C918.293 262.283 918.07 262.389 917.929 262.529L917.472 263.937ZM937.586 271.644C937.515 271.644 937.363 271.656 937.128 271.679C936.917 271.679 936.683 271.691 936.424 271.714C936.166 271.714 935.92 271.726 935.685 271.749C935.451 271.749 935.287 271.749 935.193 271.749L934.419 271.82L933.82 271.398C933.797 271.046 933.82 270.635 933.891 270.166C933.985 269.697 934.031 269.333 934.031 269.075C934.313 269.075 934.372 268.793 934.207 268.23C934.02 267.667 933.949 267.222 933.996 266.893C934.02 266.518 934.078 266.142 934.172 265.767C934.266 265.368 934.278 265.11 934.207 264.993C934.16 264.852 934.102 264.699 934.031 264.535C933.961 264.348 933.902 264.136 933.855 263.902L934.278 261.614C934.278 260.348 934.29 259.374 934.313 258.694C934.36 258.013 934.395 257.509 934.419 257.18C934.465 256.852 934.512 256.652 934.559 256.582C934.63 256.488 934.677 256.406 934.7 256.336C934.747 256.265 934.77 256.148 934.77 255.984C934.794 255.82 934.794 255.491 934.77 254.998L935.509 254.611C935.908 254.635 936.389 254.705 936.952 254.823C937.539 254.916 938.102 255.022 938.641 255.139C938.923 255.186 939.169 255.233 939.381 255.28C939.592 255.303 939.779 255.339 939.944 255.386L940.436 256.054C939.99 256.359 939.697 256.559 939.556 256.652C939.416 256.746 939.404 256.946 939.521 257.251C939.944 257.626 940.307 257.743 940.612 257.603C940.941 257.462 941.164 257.239 941.281 256.934L943.568 256.371H944.906L945.504 256.582C946.067 256.77 946.63 256.969 947.193 257.18C947.779 257.391 948.26 257.556 948.636 257.673L949.269 259.221L949.234 259.644C949.281 260.324 949.316 260.981 949.34 261.614C949.387 262.224 949.387 262.975 949.34 263.867C949.316 264.43 949.293 265.004 949.269 265.591C949.246 266.154 949.222 266.694 949.199 267.21C949.199 267.726 949.199 268.183 949.199 268.582C949.199 268.958 949.199 269.239 949.199 269.427C949.199 269.45 949.222 269.544 949.269 269.708C949.34 269.873 949.433 270.049 949.551 270.236L949.304 270.623L948.636 270.94C948.307 270.963 947.885 271.022 947.369 271.116C946.876 271.21 946.466 271.257 946.137 271.257C945.996 271.257 945.879 271.21 945.785 271.116C945.691 270.999 945.48 270.952 945.152 270.975L944.659 270.553C944.706 270.248 944.718 270.002 944.694 269.814C944.671 269.603 944.636 269.427 944.589 269.286C944.542 269.122 944.495 268.981 944.448 268.864C944.401 268.746 944.378 268.629 944.378 268.512C944.401 268.16 944.436 267.773 944.483 267.351C944.53 267.022 944.577 266.647 944.624 266.224C944.694 265.779 944.776 265.345 944.87 264.922C944.917 264.664 944.941 264.336 944.941 263.937C944.941 263.515 944.941 263.104 944.941 262.705C944.941 262.283 944.941 261.884 944.941 261.509C944.941 261.133 944.952 260.852 944.976 260.664L943.955 258.869C943.862 258.846 943.768 258.823 943.674 258.799C943.58 258.776 943.474 258.74 943.357 258.694C943.169 258.647 942.982 258.658 942.794 258.729C942.63 258.799 942.466 258.881 942.301 258.975C942.137 259.069 941.985 259.163 941.844 259.257C941.703 259.35 941.574 259.397 941.457 259.397C941.457 259.468 941.328 259.409 941.07 259.221C940.835 259.01 940.636 258.811 940.471 258.623C940.073 258.295 939.779 258.236 939.592 258.447C939.427 258.635 939.287 258.893 939.169 259.221C939.193 259.479 939.228 259.655 939.275 259.749C939.345 259.843 939.416 259.913 939.486 259.96C939.58 259.984 939.662 259.984 939.732 259.96C939.615 260.054 939.521 260.23 939.451 260.488C939.38 260.723 939.322 260.993 939.275 261.298C939.251 261.579 939.24 261.884 939.24 262.213C939.263 262.518 939.298 262.799 939.345 263.057C939.392 263.339 939.357 263.831 939.24 264.535C939.146 265.239 939.122 266.048 939.169 266.963C939.169 267.315 939.158 267.691 939.134 268.09C939.111 268.465 939.087 268.84 939.064 269.216C939.04 269.568 939.017 269.896 938.993 270.201C938.97 270.483 938.958 270.705 938.958 270.87V270.975C938.512 271.351 938.055 271.573 937.586 271.644Z" fill="#E3E3E3"/>
<path fill-rule="evenodd" clip-rule="evenodd" d="M1142.44 680.253C1143.56 679.877 1144.88 679.807 1146.07 680.184L1145.78 681.129C1144.81 680.822 1143.7 680.874 1142.75 681.192C1141.79 681.514 1141.06 682.079 1140.75 682.722C1140.46 683.319 1140.48 684.084 1141.23 684.987C1142.01 685.912 1143.54 686.947 1146.2 687.943C1146.32 687.972 1146.46 688.025 1146.6 688.084C1146.78 688.154 1146.98 688.248 1147.22 688.359C1147.68 688.583 1148.26 688.884 1148.87 689.234C1150.09 689.929 1151.48 690.835 1152.4 691.713C1152.85 692.144 1153.25 692.619 1153.41 693.103C1153.49 693.355 1153.52 693.634 1153.43 693.913C1153.35 694.196 1153.16 694.423 1152.92 694.598C1152.45 694.931 1151.71 695.116 1150.71 695.193C1149.7 695.273 1148.34 695.245 1146.56 695.086C1138.29 694.518 1133.76 696.32 1130.08 698.184C1129.59 698.435 1129.1 698.69 1128.63 698.942C1125.55 700.561 1122.71 702.056 1118.33 701.768L1118.4 700.78C1122.48 701.048 1125.07 699.689 1128.14 698.076C1128.63 697.822 1129.12 697.562 1129.64 697.3C1133.44 695.375 1138.14 693.515 1146.64 694.099L1146.64 694.099L1146.65 694.099C1148.4 694.256 1149.7 694.279 1150.64 694.206C1151.6 694.131 1152.11 693.96 1152.34 693.792C1152.45 693.717 1152.48 693.658 1152.49 693.625C1152.5 693.59 1152.5 693.526 1152.47 693.415C1152.39 693.17 1152.14 692.834 1151.72 692.429C1150.89 691.637 1149.58 690.778 1148.38 690.094C1147.79 689.755 1147.23 689.464 1146.79 689.252C1146.57 689.146 1146.38 689.061 1146.23 689C1146.07 688.934 1145.98 688.908 1145.96 688.903L1145.92 688.895L1145.89 688.882C1143.14 687.858 1141.42 686.743 1140.48 685.623C1139.51 684.477 1139.37 683.299 1139.86 682.29C1140.32 681.327 1141.32 680.626 1142.44 680.253Z" fill="white"/>
<path fill-rule="evenodd" clip-rule="evenodd" d="M1133.08 693.851C1133.71 692.661 1135 691.538 1137.04 690.642L1137.43 691.548C1135.52 692.391 1134.45 693.388 1133.96 694.313C1133.48 695.222 1133.54 696.094 1133.96 696.803C1134.82 698.246 1137.35 699.205 1140.44 697.896L1140.83 698.808C1137.44 700.242 1134.31 699.312 1133.11 697.31C1132.51 696.297 1132.45 695.058 1133.08 693.851Z" fill="white"/>
<path fill-rule="evenodd" clip-rule="evenodd" d="M1125.28 699.132C1124.13 698.911 1123.09 698.308 1122.19 697.147L1122.97 696.542C1123.73 697.519 1124.56 697.986 1125.47 698.16C1126.4 698.337 1127.43 698.216 1128.59 697.939L1130.35 697.519L1129.05 698.776C1128.18 699.621 1127.38 700.447 1126.89 701.352C1126.41 702.232 1126.23 703.177 1126.59 704.291L1125.65 704.596C1125.19 703.183 1125.43 701.957 1126.02 700.879C1126.35 700.273 1126.79 699.711 1127.26 699.184C1126.59 699.258 1125.93 699.255 1125.28 699.132Z" fill="white"/>
<path d="M1173.82 689.138H1171.3V688.08H1177.54V689.138H1175.02V696.446H1173.82V689.138Z" fill="white"/>
<path d="M1181.75 691.181C1181.16 691.181 1180.63 691.383 1180.17 691.788V696.446H1178.97V687.503H1180.17V690.911C1180.82 690.402 1181.49 690.147 1182.18 690.147C1182.92 690.147 1183.46 690.368 1183.81 690.808C1184.17 691.273 1184.35 692.022 1184.35 693.056V696.446H1183.15V693.056C1183.15 692.062 1182.88 691.469 1182.34 691.277C1182.16 691.213 1181.97 691.181 1181.75 691.181Z" fill="white"/>
<path d="M1189.04 696.542C1186.77 696.542 1185.64 695.434 1185.64 693.218C1185.64 692.265 1185.95 691.502 1186.58 690.929C1187.14 690.408 1187.79 690.147 1188.52 690.147C1189.3 690.147 1189.92 690.412 1190.37 690.941C1190.78 691.433 1190.99 692.093 1190.99 692.918V693.387H1186.89C1186.89 694.521 1187.35 695.214 1188.27 695.466C1188.5 695.526 1188.83 695.556 1189.29 695.556C1189.75 695.556 1190.2 695.494 1190.64 695.37V696.386C1190.2 696.49 1189.67 696.542 1189.04 696.542ZM1189.78 692.503C1189.78 692.119 1189.68 691.794 1189.46 691.53C1189.22 691.225 1188.87 691.073 1188.44 691.073C1187.98 691.073 1187.6 691.219 1187.31 691.512C1187.05 691.784 1186.92 692.115 1186.92 692.503H1189.78Z" fill="white"/>
<path d="M1196.5 688.08H1198.61C1199.99 688.08 1200.88 688.478 1201.28 689.276C1201.43 689.576 1201.5 689.875 1201.5 690.171C1201.5 690.468 1201.47 690.704 1201.41 690.88C1201.35 691.053 1201.26 691.211 1201.16 691.355C1200.96 691.628 1200.7 691.86 1200.38 692.052V692.076C1200.98 692.249 1201.42 692.551 1201.71 692.984C1201.92 693.313 1202.03 693.677 1202.03 694.078C1202.03 694.479 1201.95 694.825 1201.79 695.118C1201.64 695.41 1201.42 695.654 1201.14 695.851C1200.56 696.247 1199.8 696.446 1198.84 696.446H1196.5V688.08ZM1198.83 691.728C1199.48 691.728 1199.91 691.473 1200.14 690.965C1200.21 690.784 1200.25 690.584 1200.25 690.364C1200.25 690.139 1200.22 689.947 1200.17 689.787C1200.11 689.622 1200.02 689.482 1199.9 689.366C1199.63 689.118 1199.24 688.993 1198.7 688.993H1197.7V691.728H1198.83ZM1200.78 694.102C1200.78 693.128 1200.2 692.641 1199.03 692.641H1197.7V695.532H1198.84C1199.72 695.532 1200.32 695.266 1200.63 694.733C1200.73 694.553 1200.78 694.342 1200.78 694.102Z" fill="white"/>
<path d="M1207.54 691.343C1207.32 691.279 1207.05 691.247 1206.74 691.247C1206.44 691.247 1206.19 691.279 1205.99 691.343C1205.8 691.403 1205.62 691.477 1205.48 691.566C1205.2 691.726 1205 691.906 1204.88 692.107V696.446H1203.68V690.243H1204.83L1204.88 691.103C1205.18 690.726 1205.62 690.444 1206.2 690.255C1206.41 690.183 1206.64 690.147 1206.91 690.147C1207.18 690.147 1207.39 690.167 1207.54 690.207V691.343Z" fill="white"/>
<path d="M1208.32 693.333C1208.32 692.359 1208.63 691.57 1209.26 690.965C1209.84 690.4 1210.56 690.117 1211.41 690.117C1212.26 690.117 1212.96 690.4 1213.52 690.965C1214.12 691.566 1214.42 692.355 1214.42 693.333C1214.42 694.306 1214.12 695.092 1213.52 695.689C1212.94 696.257 1212.24 696.542 1211.41 696.542C1210.56 696.542 1209.85 696.257 1209.26 695.689C1208.63 695.092 1208.32 694.306 1208.32 693.333ZM1209.57 693.333C1209.57 694.358 1209.9 695.055 1210.56 695.424C1210.79 695.552 1211.07 695.616 1211.4 695.616C1211.72 695.616 1211.99 695.552 1212.22 695.424C1212.44 695.292 1212.63 695.12 1212.77 694.907C1213.04 694.499 1213.17 693.974 1213.17 693.333C1213.17 692.315 1212.85 691.618 1212.21 691.241C1211.98 691.109 1211.71 691.043 1211.4 691.043C1211.09 691.043 1210.82 691.109 1210.58 691.241C1210.36 691.369 1210.17 691.54 1210.02 691.752C1209.72 692.169 1209.57 692.696 1209.57 693.333Z" fill="white"/>
<path d="M1218.13 695.496C1218.27 695.544 1218.47 695.568 1218.73 695.568C1219 695.568 1219.23 695.536 1219.41 695.472V696.434C1219.32 696.454 1219.2 696.466 1219.04 696.47L1218.66 696.482C1218.58 696.482 1218.51 696.482 1218.47 696.482C1217.7 696.482 1217.13 696.229 1216.76 695.725C1216.46 695.316 1216.31 694.775 1216.31 694.102V691.163H1215.42V690.598L1216.31 690.243L1216.6 688.705H1217.51V690.243H1219.44V691.163H1217.51V694.096C1217.51 694.881 1217.72 695.348 1218.13 695.496Z" fill="white"/>
<path d="M1223.82 691.181C1223.23 691.181 1222.7 691.383 1222.24 691.788V696.446H1221.04V687.503H1222.24V690.911C1222.89 690.402 1223.56 690.147 1224.25 690.147C1224.99 690.147 1225.54 690.368 1225.88 690.808C1226.24 691.273 1226.42 692.022 1226.42 693.056V696.446H1225.22V693.056C1225.22 692.062 1224.95 691.469 1224.41 691.277C1224.24 691.213 1224.04 691.181 1223.82 691.181Z" fill="white"/>
<path d="M1231.11 696.542C1228.84 696.542 1227.71 695.434 1227.71 693.218C1227.71 692.265 1228.02 691.502 1228.65 690.929C1229.22 690.408 1229.86 690.147 1230.59 690.147C1231.38 690.147 1231.99 690.412 1232.44 690.941C1232.85 691.433 1233.06 692.093 1233.06 692.918V693.387H1228.96C1228.96 694.521 1229.42 695.214 1230.35 695.466C1230.57 695.526 1230.9 695.556 1231.36 695.556C1231.82 695.556 1232.27 695.494 1232.71 695.37V696.386C1232.27 696.49 1231.74 696.542 1231.11 696.542ZM1231.85 692.503C1231.85 692.119 1231.75 691.794 1231.54 691.53C1231.29 691.225 1230.94 691.073 1230.51 691.073C1230.05 691.073 1229.67 691.219 1229.38 691.512C1229.12 691.784 1228.99 692.115 1228.99 692.503H1231.85Z" fill="white"/>
<path d="M1238.32 691.343C1238.1 691.279 1237.84 691.247 1237.53 691.247C1237.22 691.247 1236.97 691.279 1236.78 691.343C1236.58 691.403 1236.41 691.477 1236.26 691.566C1235.99 691.726 1235.79 691.906 1235.66 692.107V696.446H1234.46V690.243H1235.62L1235.66 691.103C1235.96 690.726 1236.4 690.444 1236.98 690.255C1237.19 690.183 1237.43 690.147 1237.7 690.147C1237.96 690.147 1238.17 690.167 1238.32 690.207V691.343Z" fill="white"/>
<path d="M1242.3 691.181C1241.71 691.181 1241.18 691.383 1240.71 691.788V696.446H1239.51V687.503H1240.71V690.911C1241.36 690.402 1242.03 690.147 1242.73 690.147C1243.47 690.147 1244.01 690.368 1244.35 690.808C1244.72 691.273 1244.9 692.022 1244.9 693.056V696.446H1243.69V693.056C1243.69 692.062 1243.42 691.469 1242.88 691.277C1242.71 691.213 1242.52 691.181 1242.3 691.181Z" fill="white"/>
<path d="M1246.28 693.333C1246.28 692.359 1246.59 691.57 1247.22 690.965C1247.8 690.4 1248.52 690.117 1249.37 690.117C1250.21 690.117 1250.92 690.4 1251.48 690.965C1252.08 691.566 1252.38 692.355 1252.38 693.333C1252.38 694.306 1252.08 695.092 1251.48 695.689C1250.9 696.257 1250.2 696.542 1249.37 696.542C1248.52 696.542 1247.8 696.257 1247.22 695.689C1246.59 695.092 1246.28 694.306 1246.28 693.333ZM1247.53 693.333C1247.53 694.358 1247.86 695.055 1248.52 695.424C1248.75 695.552 1249.03 695.616 1249.36 695.616C1249.68 695.616 1249.95 695.552 1250.18 695.424C1250.4 695.292 1250.59 695.12 1250.73 694.907C1251 694.499 1251.13 693.974 1251.13 693.333C1251.13 692.315 1250.81 691.618 1250.17 691.241C1249.94 691.109 1249.67 691.043 1249.36 691.043C1249.05 691.043 1248.78 691.109 1248.54 691.241C1248.32 691.369 1248.13 691.54 1247.98 691.752C1247.68 692.169 1247.53 692.696 1247.53 693.333Z" fill="white"/>
<path d="M1253.46 693.333C1253.46 692.359 1253.77 691.57 1254.39 690.965C1254.97 690.4 1255.69 690.117 1256.55 690.117C1257.39 690.117 1258.09 690.4 1258.66 690.965C1259.26 691.566 1259.56 692.355 1259.56 693.333C1259.56 694.306 1259.26 695.092 1258.65 695.689C1258.08 696.257 1257.38 696.542 1256.54 696.542C1255.7 696.542 1254.98 696.257 1254.39 695.689C1253.77 695.092 1253.46 694.306 1253.46 693.333ZM1254.71 693.333C1254.71 694.358 1255.04 695.055 1255.7 695.424C1255.93 695.552 1256.21 695.616 1256.53 695.616C1256.86 695.616 1257.13 695.552 1257.35 695.424C1257.58 695.292 1257.76 695.12 1257.91 694.907C1258.18 694.499 1258.31 693.974 1258.31 693.333C1258.31 692.315 1257.99 691.618 1257.34 691.241C1257.12 691.109 1256.85 691.043 1256.54 691.043C1256.22 691.043 1255.95 691.109 1255.72 691.241C1255.49 691.369 1255.3 691.54 1255.16 691.752C1254.86 692.169 1254.71 692.696 1254.71 693.333Z" fill="white"/>
<path d="M1261.98 690.923C1262.33 690.654 1262.72 690.458 1263.15 690.334C1263.59 690.209 1263.97 690.147 1264.29 690.147C1264.61 690.147 1264.87 690.155 1265.04 690.171V687.503H1266.24V696.446H1265.16L1265.11 695.731C1264.87 696.055 1264.5 696.296 1264 696.452C1263.81 696.512 1263.61 696.542 1263.41 696.542C1263.22 696.542 1263.02 696.522 1262.83 696.482C1262.64 696.442 1262.45 696.376 1262.25 696.284C1262.06 696.187 1261.88 696.063 1261.71 695.911C1261.54 695.755 1261.39 695.564 1261.25 695.34C1260.96 694.847 1260.82 694.264 1260.82 693.591C1260.82 692.918 1260.92 692.373 1261.14 691.956C1261.35 691.536 1261.63 691.191 1261.98 690.923ZM1262.7 691.638C1262.5 691.83 1262.34 692.078 1262.23 692.383C1262.12 692.683 1262.07 693.05 1262.07 693.483C1262.07 693.912 1262.12 694.266 1262.22 694.547C1262.33 694.823 1262.46 695.039 1262.61 695.196C1262.89 695.476 1263.22 695.616 1263.61 695.616C1264.11 695.616 1264.53 695.432 1264.86 695.063C1264.94 694.971 1265 694.889 1265.04 694.817V691.121L1264.92 691.109C1264.73 691.085 1264.51 691.073 1264.25 691.073C1264 691.073 1263.73 691.119 1263.44 691.211C1263.15 691.299 1262.91 691.441 1262.7 691.638Z" fill="white"/>
<path d="M1162.24 680.3V704.473" stroke="#393838" stroke-width="0.825721"/>
<path d="M938.603 353.358C913.846 345.542 877.444 374.571 939.368 397.69C946.133 399.098 1022.96 440.168 942.475 432.958C846.645 426.375 837.057 474.79 781.188 471.122" stroke="#323232" stroke-width="3.68432"/>
<path d="M888.964 412.979C843.828 432.852 871.341 470.093 908.367 454.43" stroke="#323232" stroke-width="3.68432"/>
<path d="M805.266 445.822C814.697 458.031 826.762 458.048 840.254 454.822C830.325 464.439 820.791 474.787 825.478 489.224" stroke="#323232" stroke-width="3.68432"/>
<defs>
<clipPath id="clip0">
<rect width="18.2493" height="18.295" fill="white" transform="translate(30.0991 692.739)"/>
</clipPath>
</defs>
</svg>
