<svg width="1313" height="830" viewBox="0 0 1313 830" fill="none" xmlns="http://www.w3.org/2000/svg">
<rect width="1280" height="720" transform="translate(0 67)" fill="#979696"/>
<path d="M66.1617 134.267C45.8114 113.157 20.4641 85.9946 -1.61301e-05 66.7266C97.3396 65.7196 -4.16052e-05 66.7266 97.3396 66.3909C116.511 82.2394 97.3396 66.3909 118.014 83.5701C138.088 81.4145 149.684 84.712 171.292 102.878C180.331 113.367 182.014 119.199 178.342 129.448C200.342 137.443 204.074 149.962 187.921 166.82C186.648 181.659 182.433 187.089 169.501 192.276C159.358 205.56 154.283 207.439 142.187 204.595C128.863 220.564 119.855 216.434 101.994 193.849C82.8738 165.99 70.1672 148.561 70.7938 138.67C68.0741 137.248 67.256 136.221 66.1617 134.267Z" fill="#0116D1"/>
<path fill-rule="evenodd" clip-rule="evenodd" d="M88.0274 101.478L61.7739 79.2683L61.3403 79.7808L87.5939 101.991L88.0274 101.478ZM85.1094 103.227L71.3916 91.9646L70.9656 92.4834L84.6834 103.746L85.1094 103.227ZM97.6804 98.2384C102.66 93.9193 105.827 91.5934 112.036 87.5567L111.67 86.9939C105.441 91.0439 102.248 93.388 97.2406 97.7313L97.6804 98.2384ZM75.6024 128.917C78.995 121.932 81.3147 118.132 85.8877 111.463L85.334 111.083C80.7469 117.773 78.4089 121.602 74.9986 128.624L75.6024 128.917ZM125.936 130.272C133.181 130.166 139.551 128.237 146.889 124.107L146.56 123.522C139.299 127.609 133.038 129.497 125.926 129.601C118.801 129.705 110.8 128.019 100.054 124.914L99.8677 125.559C110.623 128.667 118.705 130.378 125.936 130.272ZM152.7 117.855C152.409 117.205 152.25 116.631 152.204 116.039C152.153 115.385 152.243 114.731 152.418 113.958L153.073 114.106C152.904 114.852 152.83 115.43 152.873 115.987C152.915 116.536 153.074 117.085 153.399 117.766L154.751 120.015L154.176 120.361L153.038 118.469C150.756 120.802 149.231 122.771 148.118 124.926C146.981 127.125 146.265 129.536 145.626 132.759L147.043 133.686C148.205 129.175 149.522 125.832 151.202 123.474C152.551 121.579 154.139 120.312 156.068 119.586C157.991 118.862 160.229 118.685 162.866 118.927L162.804 119.595C160.227 119.359 158.1 119.538 156.305 120.214C154.515 120.887 153.03 122.063 151.749 123.863C149.169 127.485 147.43 133.604 145.751 143.13C145.585 145.085 146.476 147.143 148.015 149.03C149.555 150.916 151.714 152.595 153.995 153.772C156.281 154.95 158.657 155.609 160.628 155.497C162.581 155.386 164.111 154.527 164.83 152.67C166.395 148.624 169.877 142.408 172.954 137.221C174.496 134.624 175.94 132.278 176.998 130.581C177.528 129.733 177.961 129.047 178.261 128.572C178.412 128.335 178.529 128.151 178.609 128.026L178.7 127.884L178.731 127.836L178.731 127.836C178.731 127.836 178.731 127.836 179.013 128.017C179.296 128.199 179.296 128.199 179.296 128.199L179.265 128.247L179.175 128.388C179.095 128.512 178.978 128.696 178.828 128.932C178.528 129.405 178.096 130.09 177.568 130.936C176.511 132.63 175.07 134.972 173.532 137.564C170.451 142.756 166.997 148.927 165.456 152.912C164.621 155.07 162.817 156.045 160.666 156.167C158.534 156.289 156.036 155.579 153.688 154.368C151.335 153.155 149.1 151.421 147.495 149.454C145.894 147.491 144.89 145.258 145.083 143.057L145.085 143.043L145.087 143.028C145.705 139.521 146.334 136.455 147.016 133.792L146.705 134.267L145.227 133.299C141.058 135.274 138.376 137.099 136.693 139.451C135.065 141.726 134.343 144.534 134.18 148.551L134.296 148.693C148.966 166.697 158.357 177.27 169.768 187.899L169.311 188.391C157.924 177.784 148.547 167.236 133.995 149.386L133.975 149.404L133.88 149.42C129.339 150.16 126.294 151.268 124.103 153.195C121.93 155.106 120.555 157.86 119.441 161.998C121.463 169.307 123.564 175.089 127.082 181.103C130.617 187.144 135.591 193.434 143.378 201.742L142.888 202.201C135.086 193.877 130.074 187.545 126.503 181.442C122.977 175.415 120.864 169.623 118.85 162.377C114.952 163.009 111.88 164.081 109.621 165.695C107.316 167.342 105.84 169.566 105.202 172.516C104.562 175.477 104.765 179.184 105.854 183.785C106.943 188.384 108.912 193.855 111.783 200.334L111.169 200.606C108.289 194.107 106.303 188.594 105.201 183.94C104.1 179.288 103.877 175.471 104.546 172.374C105.218 169.265 106.787 166.895 109.231 165.149C111.622 163.441 114.834 162.34 118.826 161.701C119.949 157.578 121.364 154.71 123.66 152.691C125.945 150.681 129.06 149.55 133.499 148.802C133.642 144.578 134.372 141.54 136.147 139.06C137.934 136.563 140.749 134.676 144.957 132.684C145.604 129.405 146.337 126.909 147.521 124.617C148.699 122.338 150.313 120.279 152.7 117.855ZM134.676 136.833C121.782 146.323 111.735 152.657 96.4311 153.712L96.4773 154.382C111.983 153.313 122.161 146.878 135.074 137.373L134.676 136.833ZM176.966 153.63C174.099 150.918 171.679 148.982 168.28 147.589L168.026 148.21C171.311 149.557 173.661 151.427 176.504 154.118C177.343 154.912 178.226 155.778 179.189 156.722C181.485 158.975 184.234 161.671 187.918 164.888L188.36 164.383C184.691 161.179 181.967 158.507 179.675 156.259C178.708 155.31 177.818 154.436 176.966 153.63Z" fill="black"/>
<path d="M1142.84 759.433C1175.41 788.297 1167.59 781.703 1174.78 787.457C1279.08 786.738 1174.78 786.738 1279.08 786.738C1258.69 768.632 1211.26 722.812 1191.41 702.945C1192.31 682.222 1188.17 670.55 1168.12 649.588C1156.78 641.009 1150.69 639.666 1140.42 644.103C1130.78 622.072 1117.7 619.067 1101.47 636.734C1086.34 639.013 1081.05 643.691 1076.58 657.29C1063.63 668.56 1062.04 673.887 1065.75 686.102C1050.25 700.81 1055.07 709.775 1079.4 726.605C1109.22 744.38 1127.92 756.264 1138.02 754.973C1139.66 757.668 1140.76 758.439 1142.84 759.433Z" fill="#950000"/>
<path fill-rule="evenodd" clip-rule="evenodd" d="M1175.03 734.854L1199.53 760.313L1199.01 760.812L1174.51 735.353L1175.03 734.854ZM1173.43 737.96L1185.88 751.286L1185.35 751.777L1172.9 738.451L1173.43 737.96ZM1177.7 724.746C1181.8 719.357 1183.98 715.959 1187.71 709.329L1188.33 709.681C1184.59 716.334 1182.4 719.762 1178.27 725.181L1177.7 724.746ZM1147.7 749.39C1154.64 745.454 1158.38 742.827 1164.92 737.701L1165.36 738.267C1158.8 743.41 1155.03 746.058 1148.05 750.016L1147.7 749.39ZM1143 697.888C1142.63 690.45 1144.19 683.79 1147.95 675.994L1148.59 676.306C1144.88 684.017 1143.36 690.557 1143.72 697.853C1144.08 705.163 1146.33 713.253 1150.22 724.066L1149.54 724.31C1145.65 713.486 1143.36 705.311 1143 697.888ZM1153.99 669.65C1154.68 669.904 1155.27 670.029 1155.88 670.037C1156.56 670.046 1157.22 669.911 1158.01 669.68L1157.8 668.99C1157.05 669.212 1156.46 669.325 1155.89 669.318C1155.33 669.31 1154.76 669.185 1154.04 668.897L1151.65 667.658L1151.32 668.297L1153.31 669.33C1151.08 671.815 1149.16 673.503 1147.03 674.782C1144.86 676.089 1142.43 676.98 1139.18 677.846L1138.15 676.479C1142.69 674.993 1146.03 673.425 1148.34 671.549C1150.19 670.04 1151.39 668.326 1152.01 666.297C1152.62 664.275 1152.66 661.967 1152.24 659.278L1151.53 659.39C1151.94 662.015 1151.89 664.205 1151.32 666.087C1150.75 667.963 1149.64 669.56 1147.88 670.991C1144.34 673.871 1138.18 676.054 1128.53 678.401C1126.54 678.698 1124.38 677.922 1122.34 676.469C1120.31 675.016 1118.45 672.914 1117.09 670.653C1115.73 668.389 1114.9 665.999 1114.89 663.974C1114.88 661.969 1115.65 660.35 1117.5 659.494C1121.55 657.624 1127.7 653.645 1132.81 650.149C1135.37 648.399 1137.68 646.764 1139.35 645.568C1140.19 644.969 1140.87 644.48 1141.33 644.141C1141.56 643.971 1141.75 643.839 1141.87 643.749L1142.04 643.62L1142.06 643.611L1142.06 643.611C1142.06 643.611 1142.06 643.611 1141.84 643.321C1141.63 643.032 1141.63 643.032 1141.63 643.032L1141.63 643.034L1141.62 643.04L1141.58 643.066L1141.44 643.168C1141.32 643.258 1141.14 643.39 1140.91 643.559C1140.44 643.898 1139.77 644.386 1138.94 644.983C1137.27 646.177 1134.96 647.809 1132.41 649.556C1127.28 653.055 1121.19 657 1117.2 658.841C1115.04 659.842 1114.15 661.761 1114.17 663.979C1114.19 666.177 1115.08 668.694 1116.48 671.023C1117.87 673.357 1119.8 675.536 1121.92 677.054C1124.04 678.568 1126.4 679.453 1128.65 679.11L1128.67 679.107L1128.68 679.104C1132.22 678.244 1135.31 677.403 1137.98 676.534L1137.54 676.865L1138.63 678.31C1136.88 682.709 1135.18 685.573 1132.89 687.45C1130.67 689.264 1127.84 690.188 1123.74 690.619L1123.59 690.513C1104.17 676.654 1092.71 667.719 1081.06 656.718L1080.57 657.241C1092.19 668.218 1103.62 677.139 1122.87 690.882L1122.86 690.895L1122.85 690.997C1122.39 695.7 1121.45 698.892 1119.62 701.261C1117.81 703.61 1115.08 705.2 1110.91 706.612C1103.29 705.019 1097.22 703.245 1090.83 700.034C1084.41 696.807 1077.63 692.121 1068.6 684.683L1068.15 685.238C1077.19 692.691 1084.01 697.415 1090.51 700.676C1096.92 703.895 1102.99 705.682 1110.55 707.271C1110.15 711.301 1109.26 714.514 1107.75 716.93C1106.22 719.399 1104.04 721.056 1101.06 721.902C1098.07 722.752 1094.26 722.788 1089.47 721.973C1084.68 721.159 1078.95 719.499 1072.12 716.981L1071.87 717.656C1078.72 720.182 1084.5 721.857 1089.35 722.682C1094.19 723.506 1098.12 723.484 1101.26 722.594C1104.4 721.7 1106.73 719.934 1108.36 717.31C1109.96 714.746 1110.88 711.381 1111.27 707.25C1115.42 705.829 1118.27 704.188 1120.19 701.701C1122.1 699.225 1123.06 695.957 1123.53 691.362C1127.85 690.938 1130.92 689.99 1133.34 688.007C1135.79 686.009 1137.54 682.998 1139.3 678.557C1142.62 677.678 1145.13 676.763 1147.4 675.399C1149.66 674.042 1151.67 672.253 1153.99 669.65ZM1135.73 689.365C1126.84 703.207 1121.01 713.92 1120.93 729.675L1120.21 729.672C1120.29 713.7 1126.22 702.839 1135.12 688.977L1135.73 689.365ZM1115.73 647.09C1118.7 649.852 1120.84 652.208 1122.49 655.603L1121.85 655.918C1120.25 652.64 1118.18 650.356 1115.24 647.617C1114.37 646.809 1113.42 645.961 1112.39 645.036C1109.93 642.83 1106.99 640.188 1103.45 636.621L1103.96 636.115C1107.48 639.666 1110.4 642.282 1112.85 644.484C1113.89 645.414 1114.84 646.27 1115.73 647.09Z" fill="black"/>
<path d="M1075.97 159.247C1074.85 155.002 1071.56 151.659 1067.38 150.524C1059.81 148.462 1037.21 148.462 1029.45 148.462C1021.68 148.462 999.087 148.462 991.515 150.524C987.338 151.659 984.048 155.002 982.931 159.247C980.902 166.942 980.902 182.997 980.902 182.997C980.902 182.997 980.902 199.051 982.931 206.746C984.048 210.991 987.338 214.335 991.515 215.47C999.087 217.532 1018 217.532 1029.45 217.532C1040.89 217.532 1059.81 217.532 1067.38 215.47C1071.56 214.335 1074.85 210.991 1075.97 206.746C1077.99 199.051 1077.99 182.997 1077.99 182.997C1077.99 182.997 1077.99 166.942 1075.97 159.247Z" fill="#FF5A5A"/>
<path d="M1029.45 219.505C1028.2 219.505 998.734 219.481 990.997 217.374C986.141 216.055 982.318 212.175 981.023 207.248C978.953 199.397 978.929 183.663 978.929 182.997C978.929 182.331 978.953 166.596 981.023 158.744C982.318 153.819 986.141 149.939 990.998 148.62C996.109 147.228 1010.49 146.731 1021.65 146.559C1022.74 146.55 1023.64 147.412 1023.66 148.502C1023.67 149.592 1022.8 150.489 1021.71 150.506C1006.25 150.743 995.713 151.426 992.034 152.428C988.534 153.379 985.777 156.184 984.84 159.749C982.899 167.108 982.876 182.839 982.876 182.997C982.876 183.155 982.899 198.885 984.839 206.243C985.777 209.809 988.534 212.615 992.032 213.565C999.266 215.535 1029.15 215.558 1029.45 215.558C1029.75 215.558 1059.63 215.535 1066.86 213.565C1070.36 212.615 1073.12 209.809 1074.06 206.244C1076 198.885 1076.02 183.155 1076.02 182.997C1076.02 182.839 1076 167.108 1074.06 159.75C1073.12 156.184 1070.36 153.379 1066.86 152.428C1063.26 151.448 1053.03 150.77 1038.04 150.519C1036.95 150.501 1036.08 149.603 1036.1 148.513C1036.11 147.423 1037.02 146.558 1038.1 146.573C1048.93 146.754 1062.89 147.256 1067.9 148.62C1072.76 149.939 1076.58 153.819 1077.87 158.745C1079.94 166.596 1079.97 182.331 1079.97 182.997C1079.97 183.663 1079.94 199.397 1077.87 207.249C1076.58 212.175 1072.76 216.055 1067.9 217.374C1060.16 219.481 1030.7 219.505 1029.45 219.505Z" fill="black"/>
<path d="M1019.99 169.089L1044.46 183.297L1019.99 197.506V169.089Z" fill="white"/>
<path d="M1019.99 199.479C1019.65 199.479 1019.31 199.391 1019.01 199.216C1018.4 198.864 1018.02 198.212 1018.02 197.506V169.089C1018.02 168.383 1018.4 167.73 1019.01 167.378C1019.62 167.026 1020.37 167.027 1020.98 167.382L1045.45 181.591C1046.06 181.944 1046.44 182.594 1046.44 183.297C1046.44 184 1046.06 184.65 1045.45 185.004L1020.98 199.212C1020.68 199.39 1020.33 199.479 1019.99 199.479ZM1021.97 172.516V194.078L1040.53 183.297L1021.97 172.516Z" fill="black"/>
<path d="M194.557 720.717L110.794 758.781C108.392 759.873 105.475 759.033 104.543 756.982L84.6212 713.143L177.391 670.985L197.313 714.825C198.245 716.875 196.959 719.625 194.557 720.717Z" fill="#F15E75"/>
<path d="M169.249 657.053L158.84 642.915C157.607 641.001 154.623 640.81 152.338 642.158L75.717 692.752C73.4317 694.1 72.8627 696.833 74.095 698.748L84.5041 712.886L169.249 657.053Z" fill="#FFCA19"/>
<g opacity="0.1">
<path opacity="0.1" d="M160.955 645.975L158.839 642.915C157.607 641.001 154.623 640.811 152.337 642.158L75.717 692.752C73.4317 694.1 72.8627 696.833 74.095 698.748L75.977 701.295L160.955 645.975Z" fill="#030303"/>
</g>
<g opacity="0.1">
<path opacity="0.1" d="M177.391 670.985L84.6212 713.143L87.8833 720.322L180.653 678.164L177.391 670.985Z" fill="#030303"/>
</g>
<path d="M195.722 723.28L111.959 761.345C107.756 763.255 103.172 761.935 101.541 758.346L81.6186 714.507C80.9196 712.969 81.6543 711.397 83.4558 710.579L176.226 668.421C178.027 667.602 179.694 668.082 180.393 669.62L200.315 713.46C201.946 717.049 199.925 721.37 195.722 723.28ZM88.7881 714.342L107.545 755.618C107.895 756.387 108.728 756.626 109.629 756.217L193.392 718.152C194.293 717.743 194.66 716.957 194.311 716.188L175.553 674.913L88.7881 714.342Z" fill="#010101"/>
<path d="M130.058 709.507L138.912 728.991C139.844 731.042 143.129 731.096 144.648 728.859L157.033 711.476C158.369 709.632 157.32 707.325 155.053 707.118L133.813 705.016C131.246 704.946 129.126 707.456 130.058 709.507Z" fill="white"/>
<path d="M85.9694 715.313C84.4684 715.995 82.9178 715.772 82.035 714.626L71.3257 700.625C69.2106 697.565 70.2817 692.748 73.9516 690.461L150.572 639.867C154.426 637.188 159.494 637.978 161.609 641.038L172.134 655.432C173.017 656.578 172.515 658.662 171.131 659.6L86.2697 715.176L85.9694 715.313ZM154.103 644.449L77.4826 695.043C76.5819 695.452 76.6314 696.358 76.9808 697.127L85.6246 708.974L164.831 656.895L156.187 645.048C155.837 644.279 155.004 644.04 154.103 644.449Z" fill="#010101"/>
<path d="M145.858 675.725C144.124 675.895 142.641 675.022 142.242 673.348L140.378 648.522C140.396 646.967 141.548 645.516 143.466 644.953C145.2 644.784 146.683 645.657 147.082 647.331L148.946 672.157C148.744 674.105 147.476 675.299 145.858 675.725Z" fill="#010101"/>
<path d="M121.602 691.696C119.868 691.866 118.385 690.993 117.986 689.318L116.122 664.492C116.14 662.938 117.292 661.486 119.21 660.924C120.944 660.755 122.427 661.627 122.826 663.302L124.69 688.128C124.672 689.683 123.22 691.27 121.602 691.696Z" fill="#010101"/>
<path d="M97.6467 707.531C95.9126 707.701 94.4293 706.828 94.0306 705.154L92.1666 680.328C92.0681 678.517 93.6364 677.185 95.254 676.76C96.9881 676.59 98.4714 677.463 98.8701 679.137L100.734 703.963C100.716 705.518 99.2643 707.106 97.6467 707.531Z" fill="#010101"/>
<path d="M135.91 730.355L127.056 710.871C125.192 706.769 129.431 701.749 134.382 702.283L155.622 704.385C157.889 704.591 159.489 705.72 160.305 707.515C161.12 709.31 160.919 711.257 159.583 713.101L147.198 730.484C144.343 734.565 137.774 734.457 135.91 730.355ZM133.06 708.142L141.914 727.626L143.08 730.19L141.914 727.626L154.3 710.244L133.06 708.142Z" fill="#010101"/>
<g clip-path="url(#clip0)">
<path d="M565.579 289.935C564.869 287.236 562.777 285.11 560.121 284.388C555.307 283.078 540.941 283.078 536.004 283.078C531.067 283.078 516.7 283.078 511.886 284.388C509.23 285.11 507.138 287.236 506.428 289.935C505.138 294.827 505.138 305.035 505.138 305.035C505.138 305.035 505.138 315.242 506.428 320.134C507.138 322.833 509.23 324.959 511.886 325.681C516.7 326.991 528.726 326.991 536.004 326.991C543.281 326.991 555.307 326.991 560.121 325.681C562.777 324.959 564.869 322.833 565.579 320.134C566.869 315.242 566.869 305.035 566.869 305.035C566.869 305.035 566.869 294.827 565.579 289.935Z" fill="#FF5A5A"/>
<path d="M536.318 284.333C536.317 284.333 536.316 284.333 536.314 284.333L536.223 284.332C535.532 284.331 534.972 283.769 534.972 283.077C534.972 283.076 534.972 283.075 534.972 283.074C534.974 282.383 535.536 281.823 536.227 281.823C536.228 281.823 536.229 281.823 536.23 281.823L536.321 281.823C537.013 281.825 537.573 282.387 537.572 283.078C537.572 283.079 537.572 283.08 537.572 283.081C537.571 283.773 537.009 284.333 536.318 284.333Z" fill="black"/>
<path d="M536.004 328.246C535.209 328.246 516.476 328.231 511.556 326.891C508.469 326.052 506.039 323.586 505.215 320.453C503.899 315.462 503.884 305.458 503.884 305.035C503.884 304.611 503.899 294.607 505.215 289.615C506.039 286.483 508.469 284.016 511.557 283.178C514.807 282.293 523.95 281.977 531.047 281.868C531.738 281.862 532.311 282.41 532.321 283.103C532.332 283.796 531.779 284.366 531.086 284.377C521.257 284.528 514.555 284.962 512.216 285.599C509.99 286.204 508.238 287.987 507.642 290.254C506.408 294.932 506.393 304.934 506.393 305.035C506.393 305.135 506.408 315.136 507.642 319.814C508.238 322.082 509.99 323.865 512.215 324.47C516.814 325.722 535.812 325.737 536.004 325.737C536.195 325.737 555.194 325.722 559.792 324.47C562.017 323.865 563.769 322.082 564.366 319.815C565.599 315.136 565.614 305.135 565.614 305.034C565.614 304.934 565.599 294.932 564.366 290.255C563.769 287.987 562.017 286.203 559.792 285.599C557.503 284.976 550.994 284.545 541.463 284.385C540.771 284.374 540.218 283.803 540.23 283.11C540.241 282.417 540.817 281.867 541.505 281.876C548.391 281.991 557.267 282.311 560.451 283.178C563.538 284.016 565.969 286.483 566.792 289.616C568.108 294.607 568.124 304.611 568.124 305.035C568.124 305.458 568.108 315.462 566.792 320.454C565.969 323.586 563.538 326.053 560.45 326.891C555.532 328.231 536.799 328.246 536.004 328.246Z" fill="black"/>
<path d="M529.992 296.192L545.55 305.225L529.992 314.259V296.192Z" fill="white"/>
<path d="M511.161 314.447C510.468 314.447 509.906 313.886 509.906 313.193V302.967C509.906 302.274 510.468 301.712 511.161 301.712C511.854 301.712 512.416 302.274 512.416 302.967V313.193C512.416 313.886 511.854 314.447 511.161 314.447Z" fill="black"/>
<path d="M511.161 298.528C510.468 298.528 509.906 297.966 509.906 297.273V297.258C509.906 296.565 510.468 296.004 511.161 296.004C511.854 296.004 512.416 296.565 512.416 297.258V297.273C512.416 297.966 511.854 298.528 511.161 298.528Z" fill="black"/>
<path d="M529.992 315.514C529.776 315.514 529.56 315.458 529.366 315.347C528.977 315.123 528.737 314.708 528.737 314.259V296.192C528.737 295.743 528.977 295.328 529.366 295.104C529.755 294.88 530.234 294.881 530.622 295.107L546.18 304.14C546.567 304.365 546.805 304.778 546.805 305.226C546.805 305.673 546.567 306.086 546.18 306.311L530.622 315.344C530.427 315.457 530.209 315.514 529.992 315.514ZM531.246 298.371V312.08L543.051 305.226L531.246 298.371Z" fill="black"/>
</g>
<path d="M286.691 466.673H362.213V515.763H286.691V466.673Z" fill="#ECF9FD"/>
<path d="M324.452 466.673H362.213V515.763H324.452V466.673Z" fill="#D9F3FC"/>
<path d="M352.464 509.63V515.763H324.609V509.63C324.609 506.159 327.432 503.336 330.903 503.336H346.171C349.642 503.336 352.464 506.159 352.464 509.63Z" fill="#00AA95"/>
<path d="M346.945 496.844L336.607 490.666L330.426 494.429L328.108 493.988C327.947 494.83 327.948 495.569 327.948 496.351C327.948 505.067 335.998 510.305 342.843 507.117C346.604 505.366 349.14 501.368 349.304 496.931L346.945 496.844Z" fill="#FFC896"/>
<path d="M284.331 464.313C284.331 464.437 284.33 508.784 284.333 508.926C284.378 511.54 285.072 514.631 286.398 518.123H364.573V464.313H284.331ZM359.853 513.402H289.051V469.033H359.853V513.402Z" fill="#5C7099"/>
<path d="M364.573 464.313V518.123H324.452V513.402H359.853V469.033H324.452V464.313H364.573Z" fill="#404A80"/>
<path d="M324.452 474.068C328.536 474.068 331.847 470.757 331.847 466.673C331.847 462.589 328.536 459.278 324.452 459.278C320.368 459.278 317.057 462.589 317.057 466.673C317.057 470.757 320.368 474.068 324.452 474.068Z" fill="#FF6666"/>
<path d="M331.847 466.673C331.847 470.751 328.53 474.068 324.452 474.068V459.278C328.53 459.278 331.847 462.595 331.847 466.673V466.673Z" fill="#E62E6B"/>
<path d="M316.742 524.732V538.26H287.327V524.732C287.327 522.569 288.283 521.387 289.111 520.176C304.334 519.934 298.555 520.025 314.474 519.775C315.427 520.867 316.742 522.19 316.742 524.732V524.732Z" fill="#00DD80"/>
<path d="M316.742 524.732V538.26H301.795V519.974L314.474 519.775C315.427 520.867 316.742 522.19 316.742 524.732V524.732Z" fill="#00AA95"/>
<path d="M319.26 508.659C319.26 511.783 318.291 515.217 317.188 518.123C314.925 524.157 309.68 528.436 303.649 529.47C297.719 530.499 289.438 526.12 286.398 518.123C285.072 514.631 284.378 511.54 284.332 508.926C284.064 493.615 293.631 484.539 301.707 489.667C310.159 484.325 319.26 493.989 319.26 508.659V508.659Z" fill="#FED843"/>
<path d="M319.26 508.659C319.26 511.338 318.549 514.561 317.145 518.234C314.431 525.346 307.559 529.619 301.809 529.619C301.787 529.619 301.795 531.521 301.795 489.613C310.143 484.476 319.26 493.868 319.26 508.659Z" fill="#FABE2C"/>
<path d="M338.537 508.056C345.357 508.056 350.885 501.973 350.885 494.469C350.885 486.965 345.357 480.882 338.537 480.882C331.717 480.882 326.189 486.965 326.189 494.469C326.189 501.973 331.717 508.056 338.537 508.056Z" fill="#FFC896"/>
<path d="M349.503 488.232C343.948 493.883 334.382 495.779 326.197 494.034C326.405 486.743 331.861 480.883 338.537 480.883C343.303 480.883 347.447 483.869 349.503 488.232Z" fill="#FABE2C"/>
<path d="M748.862 674.96C784.046 662.579 802.46 623.816 789.991 588.38C777.521 552.945 738.89 534.255 703.706 546.636C668.522 559.017 650.108 597.78 662.578 633.215C675.047 668.651 713.678 687.341 748.862 674.96Z" fill="#F6C863"/>
<path d="M733.643 562.015L689.998 577.373C688.19 578.009 687.243 580.001 687.884 581.823L714.492 657.435C715.132 659.256 717.118 660.217 718.926 659.581L762.571 644.223C764.379 643.586 765.325 641.594 764.684 639.773L738.077 564.16C737.436 562.339 735.451 561.379 733.643 562.015Z" fill="#575B6D"/>
<path d="M693.467 588.628L737.986 572.962L759.101 632.968L714.582 648.634L693.467 588.628Z" fill="#69B0EE"/>
<path d="M727.925 571.685C728.618 571.441 728.981 570.677 728.735 569.979C728.489 569.281 727.728 568.913 727.035 569.157C726.342 569.401 725.979 570.164 726.225 570.863C726.47 571.561 727.231 571.929 727.925 571.685Z" fill="#414451"/>
<path d="M717.206 572.972L709.675 575.621C709.156 575.804 708.884 576.377 709.068 576.9L709.068 576.901C709.252 577.424 709.823 577.7 710.342 577.517L717.873 574.867C718.392 574.685 718.664 574.112 718.48 573.589L718.48 573.588C718.295 573.065 717.725 572.789 717.206 572.972Z" fill="#828A9E"/>
<path d="M739.695 648.908C741.097 648.415 741.83 646.87 741.334 645.458C740.837 644.047 739.298 643.302 737.896 643.795C736.494 644.289 735.76 645.833 736.257 647.245C736.754 648.657 738.293 649.401 739.695 648.908Z" fill="#828A9E"/>
<path d="M731.048 624.336C738.472 621.724 742.357 613.545 739.726 606.068C737.095 598.591 728.944 594.647 721.52 597.26C714.097 599.872 710.211 608.051 712.842 615.528C715.473 623.005 723.624 626.948 731.048 624.336Z" fill="#EEEFEE"/>
<path d="M733.448 608.937L725.923 618.899C725.843 619.007 725.735 619.09 725.611 619.141C725.487 619.191 725.351 619.207 725.219 619.185C725.086 619.164 724.962 619.107 724.859 619.02C724.756 618.934 724.678 618.821 724.634 618.693L720.05 605.668C720.005 605.541 719.995 605.404 720.021 605.272C720.047 605.14 720.108 605.018 720.198 604.918C720.288 604.819 720.404 604.746 720.532 604.707C720.66 604.669 720.797 604.666 720.927 604.7L733.035 607.762C733.154 607.792 733.264 607.851 733.355 607.934C733.447 608.017 733.516 608.122 733.557 608.239C733.598 608.355 733.609 608.48 733.59 608.602C733.571 608.724 733.522 608.839 733.448 608.937V608.937Z" fill="#EF5261"/>
<path d="M1158.3 476.234C1130.58 476.234 1108.12 454.837 1108.12 428.441C1108.12 402.046 1130.58 380.648 1158.3 380.648C1186.01 380.648 1208.48 402.046 1208.48 428.441C1208.48 454.837 1186.01 476.234 1158.3 476.234Z" fill="#F6C863"/>
<path d="M1149.19 446.364H1167.4L1169.25 454.035H1147.34L1149.19 446.364Z" fill="#62667C"/>
<path d="M1128.89 401.651H1187.7C1189.43 401.651 1190.83 402.988 1190.83 404.638V444.179C1190.83 445.828 1189.43 447.166 1187.7 447.166H1128.89C1127.16 447.166 1125.76 445.828 1125.76 444.179V404.638C1125.76 402.988 1127.16 401.651 1128.89 401.651Z" fill="#575B6D"/>
<path d="M1129.62 405.315V439.785H1186.97V405.315H1129.62Z" fill="#69B0EE"/>
<path d="M1169.58 452.221H1147.02C1146.18 452.221 1145.39 452.536 1144.8 453.096C1144.21 453.656 1143.88 454.416 1143.88 455.208V455.252H1172.71V455.208C1172.71 454.416 1172.38 453.656 1171.79 453.096C1171.21 452.536 1170.41 452.221 1169.58 452.221V452.221Z" fill="#575B6D"/>
<path d="M1136.07 444.849C1135.29 444.849 1134.66 444.247 1134.66 443.506C1134.66 442.764 1135.29 442.163 1136.07 442.163C1136.85 442.163 1137.48 442.764 1137.48 443.506C1137.48 444.247 1136.85 444.849 1136.07 444.849Z" fill="#414451"/>
<path d="M1141.7 444.849C1140.93 444.849 1140.29 444.247 1140.29 443.506C1140.29 442.764 1140.93 442.163 1141.7 442.163C1142.48 442.163 1143.11 442.764 1143.11 443.506C1143.11 444.247 1142.48 444.849 1141.7 444.849Z" fill="#414451"/>
<path d="M1147.34 444.849C1146.56 444.849 1145.93 444.247 1145.93 443.506C1145.93 442.764 1146.56 442.163 1147.34 442.163C1148.12 442.163 1148.75 442.764 1148.75 443.506C1148.75 444.247 1148.12 444.849 1147.34 444.849Z" fill="#414451"/>
<path d="M1158.3 432.649C1152.45 432.649 1147.71 428.134 1147.71 422.564C1147.71 416.994 1152.45 412.479 1158.3 412.479C1164.14 412.479 1168.88 416.994 1168.88 422.564C1168.88 428.134 1164.14 432.649 1158.3 432.649Z" fill="#EEEFEE"/>
<path d="M1152.82 423.007L1160.55 427.855C1160.63 427.908 1160.73 427.938 1160.83 427.942C1160.93 427.947 1161.02 427.925 1161.11 427.88C1161.2 427.836 1161.27 427.769 1161.32 427.687C1161.37 427.606 1161.4 427.513 1161.4 427.418V417.718C1161.4 417.623 1161.37 417.53 1161.32 417.449C1161.27 417.367 1161.2 417.301 1161.11 417.256C1161.02 417.211 1160.93 417.189 1160.83 417.194C1160.73 417.198 1160.63 417.228 1160.55 417.281L1152.82 422.135C1152.74 422.182 1152.68 422.247 1152.64 422.323C1152.59 422.399 1152.57 422.484 1152.57 422.571C1152.57 422.658 1152.59 422.743 1152.64 422.819C1152.68 422.895 1152.74 422.96 1152.82 423.007V423.007Z" fill="#EF5261"/>
<path d="M97.243 311.904C97.243 310.1 96.5985 308.693 95.3094 307.686C94.0438 306.678 91.8055 305.635 88.5946 304.557C85.3837 303.479 82.7587 302.436 80.7196 301.428C74.0868 298.17 70.7704 293.693 70.7704 287.998C70.7704 285.162 71.5907 282.666 73.2313 280.51C74.8954 278.33 77.2391 276.643 80.2626 275.447C83.286 274.229 86.6844 273.619 90.4579 273.619C94.1376 273.619 97.4305 274.275 100.337 275.588C103.266 276.9 105.54 278.775 107.157 281.213C108.774 283.627 109.583 286.393 109.583 289.51H97.2782C97.2782 287.424 96.6337 285.807 95.3446 284.658C94.079 283.51 92.3563 282.936 90.1766 282.936C87.9735 282.936 86.2274 283.428 84.9384 284.412C83.6727 285.373 83.0399 286.604 83.0399 288.104C83.0399 289.416 83.743 290.611 85.1493 291.689C86.5555 292.744 89.0282 293.846 92.5673 294.994C96.1063 296.119 99.0126 297.338 101.286 298.65C106.817 301.838 109.583 306.232 109.583 311.834C109.583 316.311 107.895 319.826 104.52 322.381C101.145 324.936 96.5165 326.213 90.6337 326.213C86.4852 326.213 82.7235 325.475 79.3485 323.998C75.9969 322.498 73.4657 320.459 71.7548 317.881C70.0673 315.279 69.2235 312.291 69.2235 308.916H81.5985C81.5985 311.658 82.3016 313.686 83.7079 314.998C85.1376 316.287 87.4462 316.932 90.6337 316.932C92.6727 316.932 94.2782 316.498 95.4501 315.631C96.6454 314.74 97.243 313.498 97.243 311.904ZM133.77 326.213C127.934 326.213 123.212 324.479 119.602 321.01C115.993 317.518 114.188 312.982 114.188 307.404V306.42C114.188 302.529 114.903 299.096 116.333 296.119C117.786 293.143 119.895 290.846 122.661 289.229C125.427 287.588 128.708 286.768 132.505 286.768C137.849 286.768 142.067 288.432 145.161 291.76C148.255 295.064 149.802 299.682 149.802 305.611V310.217H126.247C126.669 312.35 127.595 314.025 129.024 315.244C130.454 316.463 132.306 317.072 134.579 317.072C138.329 317.072 141.259 315.76 143.368 313.135L148.782 319.533C147.306 321.572 145.208 323.201 142.489 324.42C139.794 325.615 136.888 326.213 133.77 326.213ZM132.434 295.908C128.966 295.908 126.903 298.205 126.247 302.799H138.2V301.885C138.247 299.986 137.766 298.521 136.759 297.49C135.751 296.436 134.309 295.908 132.434 295.908ZM169.313 308.916L175.641 287.471H188.333L172.829 331.873L172.161 333.49C169.958 338.412 166.067 340.873 160.489 340.873C158.942 340.873 157.313 340.639 155.602 340.17V331.697H157.149C158.813 331.697 160.079 331.451 160.946 330.959C161.837 330.49 162.493 329.635 162.915 328.393L163.864 325.861L150.645 287.471H163.302L169.313 308.916ZM202.325 287.471L202.712 291.936C205.337 288.49 208.958 286.768 213.575 286.768C217.536 286.768 220.489 287.951 222.434 290.318C224.403 292.686 225.423 296.248 225.493 301.006V325.51H213.61V301.498C213.61 299.576 213.224 298.17 212.45 297.279C211.677 296.365 210.27 295.908 208.231 295.908C205.911 295.908 204.188 296.822 203.063 298.65V325.51H191.216V287.471H202.325ZM250.489 326.213C244.653 326.213 239.931 324.479 236.321 321.01C232.712 317.518 230.907 312.982 230.907 307.404V306.42C230.907 302.529 231.622 299.096 233.052 296.119C234.505 293.143 236.614 290.846 239.38 289.229C242.145 287.588 245.427 286.768 249.224 286.768C254.567 286.768 258.786 288.432 261.88 291.76C264.974 295.064 266.52 299.682 266.52 305.611V310.217H242.966C243.388 312.35 244.313 314.025 245.743 315.244C247.173 316.463 249.024 317.072 251.298 317.072C255.048 317.072 257.977 315.76 260.087 313.135L265.501 319.533C264.024 321.572 261.927 323.201 259.208 324.42C256.513 325.615 253.606 326.213 250.489 326.213ZM249.153 295.908C245.684 295.908 243.622 298.205 242.966 302.799H254.919V301.885C254.966 299.986 254.485 298.521 253.477 297.49C252.47 296.436 251.028 295.908 249.153 295.908ZM309.657 311.588L319.852 274.322H333.634L316.407 325.51H302.907L285.821 274.322H299.497L309.657 311.588ZM349.349 325.51H337.466V287.471H349.349V325.51ZM336.763 277.662C336.763 275.975 337.372 274.592 338.591 273.514C339.809 272.436 341.391 271.896 343.337 271.896C345.282 271.896 346.864 272.436 348.083 273.514C349.302 274.592 349.911 275.975 349.911 277.662C349.911 279.35 349.302 280.732 348.083 281.811C346.864 282.889 345.282 283.428 343.337 283.428C341.391 283.428 339.809 282.889 338.591 281.811C337.372 280.732 336.763 279.35 336.763 277.662ZM355.184 306.209C355.184 300.186 356.485 295.439 359.087 291.971C361.688 288.502 365.321 286.768 369.985 286.768C373.384 286.768 376.243 288.104 378.563 290.775V271.51H390.446V325.51H379.794L379.196 321.432C376.759 324.619 373.665 326.213 369.915 326.213C365.391 326.213 361.806 324.479 359.157 321.01C356.509 317.541 355.184 312.607 355.184 306.209ZM367.032 306.947C367.032 313.697 369.001 317.072 372.938 317.072C375.563 317.072 377.438 315.971 378.563 313.768V299.283C377.485 297.033 375.634 295.908 373.009 295.908C369.352 295.908 367.372 298.861 367.067 304.768L367.032 306.947ZM415.583 326.213C409.747 326.213 405.024 324.479 401.415 321.01C397.806 317.518 396.001 312.982 396.001 307.404V306.42C396.001 302.529 396.716 299.096 398.145 296.119C399.599 293.143 401.708 290.846 404.474 289.229C407.239 287.588 410.52 286.768 414.317 286.768C419.661 286.768 423.88 288.432 426.974 291.76C430.067 295.064 431.614 299.682 431.614 305.611V310.217H408.059C408.481 312.35 409.407 314.025 410.837 315.244C412.266 316.463 414.118 317.072 416.391 317.072C420.141 317.072 423.071 315.76 425.181 313.135L430.595 319.533C429.118 321.572 427.02 323.201 424.302 324.42C421.606 325.615 418.7 326.213 415.583 326.213ZM414.247 295.908C410.778 295.908 408.716 298.205 408.059 302.799H420.013V301.885C420.059 299.986 419.579 298.521 418.571 297.49C417.563 296.436 416.122 295.908 414.247 295.908ZM434.919 306.139C434.919 302.342 435.657 298.967 437.134 296.014C438.61 293.037 440.731 290.752 443.497 289.158C446.263 287.564 449.509 286.768 453.235 286.768C458.931 286.768 463.419 288.537 466.7 292.076C469.981 295.592 471.622 300.385 471.622 306.455V306.877C471.622 312.807 469.97 317.518 466.665 321.01C463.384 324.479 458.931 326.213 453.306 326.213C447.891 326.213 443.544 324.596 440.263 321.361C436.981 318.104 435.212 313.697 434.954 308.143L434.919 306.139ZM446.766 306.877C446.766 310.393 447.317 312.971 448.419 314.611C449.52 316.252 451.149 317.072 453.306 317.072C457.524 317.072 459.681 313.826 459.774 307.334V306.139C459.774 299.318 457.595 295.908 453.235 295.908C449.274 295.908 447.13 298.85 446.802 304.732L446.766 306.877Z" fill="#DEDEDE"/>
<path d="M86.2889 428.462H78.203V433.545H87.7538V437.5H73.0614V416.172H87.7831V420.142H78.203V424.639H86.2889V428.462ZM88.7059 429.458C88.7059 426.948 89.2479 424.971 90.3319 423.525C91.4159 422.08 92.9296 421.357 94.8729 421.357C96.2889 421.357 97.4803 421.914 98.4471 423.027V415H103.398V437.5H98.9598L98.7108 435.801C97.6952 437.129 96.4061 437.793 94.8436 437.793C92.9589 437.793 91.4647 437.07 90.3612 435.625C89.2577 434.18 88.7059 432.124 88.7059 429.458ZM93.6425 429.766C93.6425 432.578 94.4628 433.984 96.1034 433.984C97.1971 433.984 97.9784 433.525 98.4471 432.607V426.572C97.9979 425.635 97.2264 425.166 96.1327 425.166C94.6093 425.166 93.7841 426.396 93.6571 428.857L93.6425 429.766ZM111.411 437.5H106.46V421.65H111.411V437.5ZM106.167 417.563C106.167 416.86 106.421 416.284 106.929 415.835C107.436 415.386 108.096 415.161 108.906 415.161C109.717 415.161 110.376 415.386 110.884 415.835C111.391 416.284 111.645 416.86 111.645 417.563C111.645 418.267 111.391 418.843 110.884 419.292C110.376 419.741 109.717 419.966 108.906 419.966C108.096 419.966 107.436 419.741 106.929 419.292C106.421 418.843 106.167 418.267 106.167 417.563ZM121.167 433.984C121.86 433.984 122.397 433.799 122.778 433.428C123.159 433.047 123.345 432.52 123.335 431.846H127.964C127.964 433.584 127.339 435.01 126.089 436.123C124.849 437.236 123.247 437.793 121.284 437.793C118.979 437.793 117.163 437.07 115.835 435.625C114.507 434.18 113.843 432.178 113.843 429.619V429.414C113.843 427.812 114.136 426.401 114.722 425.181C115.317 423.95 116.172 423.008 117.285 422.354C118.398 421.689 119.717 421.357 121.24 421.357C123.301 421.357 124.936 421.929 126.147 423.071C127.358 424.214 127.964 425.762 127.964 427.715H123.335C123.335 426.895 123.135 426.265 122.734 425.825C122.334 425.386 121.797 425.166 121.123 425.166C119.844 425.166 119.097 425.981 118.882 427.612C118.813 428.13 118.779 428.843 118.779 429.751C118.779 431.343 118.97 432.446 119.35 433.062C119.731 433.677 120.337 433.984 121.167 433.984ZM135.259 437.5H130.307V421.65H135.259V437.5ZM130.015 417.563C130.015 416.86 130.268 416.284 130.776 415.835C131.284 415.386 131.943 415.161 132.754 415.161C133.564 415.161 134.224 415.386 134.731 415.835C135.239 416.284 135.493 416.86 135.493 417.563C135.493 418.267 135.239 418.843 134.731 419.292C134.224 419.741 133.564 419.966 132.754 419.966C131.943 419.966 131.284 419.741 130.776 419.292C130.268 418.843 130.015 418.267 130.015 417.563ZM137.69 429.429C137.69 427.847 137.998 426.44 138.613 425.21C139.228 423.97 140.112 423.018 141.265 422.354C142.417 421.689 143.769 421.357 145.322 421.357C147.695 421.357 149.565 422.095 150.932 423.569C152.3 425.034 152.983 427.031 152.983 429.561V429.736C152.983 432.207 152.295 434.17 150.918 435.625C149.551 437.07 147.695 437.793 145.351 437.793C143.096 437.793 141.284 437.119 139.917 435.771C138.55 434.414 137.812 432.578 137.705 430.264L137.69 429.429ZM142.627 429.736C142.627 431.201 142.856 432.275 143.315 432.959C143.774 433.643 144.453 433.984 145.351 433.984C147.109 433.984 148.008 432.632 148.047 429.927V429.429C148.047 426.587 147.139 425.166 145.322 425.166C143.672 425.166 142.778 426.392 142.641 428.843L142.627 429.736ZM159.692 421.65L159.853 423.511C160.947 422.075 162.456 421.357 164.38 421.357C166.03 421.357 167.261 421.851 168.071 422.837C168.891 423.823 169.316 425.308 169.346 427.29V437.5H164.394V427.495C164.394 426.694 164.233 426.108 163.911 425.737C163.589 425.356 163.003 425.166 162.153 425.166C161.186 425.166 160.469 425.547 160 426.309V437.5H155.063V421.65H159.692ZM178.94 429.458C178.94 426.948 179.482 424.971 180.566 423.525C181.65 422.08 183.164 421.357 185.107 421.357C186.523 421.357 187.715 421.914 188.682 423.027V415H193.633V437.5H189.194L188.945 435.801C187.93 437.129 186.641 437.793 185.078 437.793C183.193 437.793 181.699 437.07 180.596 435.625C179.492 434.18 178.94 432.124 178.94 429.458ZM183.877 429.766C183.877 432.578 184.697 433.984 186.338 433.984C187.432 433.984 188.213 433.525 188.682 432.607V426.572C188.232 425.635 187.461 425.166 186.367 425.166C184.844 425.166 184.018 426.396 183.891 428.857L183.877 429.766ZM204.106 437.793C201.675 437.793 199.707 437.07 198.203 435.625C196.699 434.17 195.947 432.28 195.947 429.956V429.546C195.947 427.925 196.245 426.494 196.841 425.254C197.446 424.014 198.325 423.057 199.477 422.383C200.63 421.699 201.997 421.357 203.579 421.357C205.806 421.357 207.563 422.051 208.852 423.438C210.141 424.814 210.786 426.738 210.786 429.209V431.128H200.972C201.147 432.017 201.533 432.715 202.129 433.223C202.724 433.73 203.496 433.984 204.443 433.984C206.006 433.984 207.226 433.438 208.105 432.344L210.361 435.01C209.746 435.859 208.872 436.538 207.739 437.046C206.616 437.544 205.405 437.793 204.106 437.793ZM203.55 425.166C202.104 425.166 201.245 426.123 200.972 428.037H205.952V427.656C205.972 426.865 205.771 426.255 205.351 425.825C204.932 425.386 204.331 425.166 203.55 425.166ZM226.577 431.626L229.082 421.65H234.282L229.111 437.5H224.072L218.901 421.65H224.116L226.577 431.626ZM240.962 437.5H236.011V421.65H240.962V437.5ZM235.718 417.563C235.718 416.86 235.972 416.284 236.479 415.835C236.987 415.386 237.646 415.161 238.457 415.161C239.267 415.161 239.927 415.386 240.434 415.835C240.942 416.284 241.196 416.86 241.196 417.563C241.196 418.267 240.942 418.843 240.434 419.292C239.927 419.741 239.267 419.966 238.457 419.966C237.646 419.966 236.987 419.741 236.479 419.292C235.972 418.843 235.718 418.267 235.718 417.563ZM243.393 429.458C243.393 426.948 243.935 424.971 245.019 423.525C246.103 422.08 247.617 421.357 249.56 421.357C250.976 421.357 252.168 421.914 253.135 423.027V415H258.086V437.5H253.647L253.398 435.801C252.383 437.129 251.094 437.793 249.531 437.793C247.646 437.793 246.152 437.07 245.049 435.625C243.945 434.18 243.393 432.124 243.393 429.458ZM248.33 429.766C248.33 432.578 249.15 433.984 250.791 433.984C251.885 433.984 252.666 433.525 253.135 432.607V426.572C252.685 425.635 251.914 425.166 250.82 425.166C249.297 425.166 248.472 426.396 248.345 428.857L248.33 429.766ZM268.559 437.793C266.128 437.793 264.16 437.07 262.656 435.625C261.152 434.17 260.4 432.28 260.4 429.956V429.546C260.4 427.925 260.698 426.494 261.294 425.254C261.899 424.014 262.778 423.057 263.931 422.383C265.083 421.699 266.45 421.357 268.032 421.357C270.259 421.357 272.016 422.051 273.306 423.438C274.595 424.814 275.239 426.738 275.239 429.209V431.128H265.425C265.6 432.017 265.986 432.715 266.582 433.223C267.178 433.73 267.949 433.984 268.896 433.984C270.459 433.984 271.68 433.438 272.558 432.344L274.814 435.01C274.199 435.859 273.325 436.538 272.192 437.046C271.069 437.544 269.858 437.793 268.559 437.793ZM268.003 425.166C266.557 425.166 265.698 426.123 265.425 428.037H270.405V427.656C270.425 426.865 270.224 426.255 269.805 425.825C269.385 425.386 268.784 425.166 268.003 425.166ZM276.616 429.429C276.616 427.847 276.924 426.44 277.539 425.21C278.154 423.97 279.038 423.018 280.19 422.354C281.343 421.689 282.695 421.357 284.248 421.357C286.621 421.357 288.491 422.095 289.858 423.569C291.225 425.034 291.909 427.031 291.909 429.561V429.736C291.909 432.207 291.221 434.17 289.844 435.625C288.476 437.07 286.621 437.793 284.277 437.793C282.021 437.793 280.21 437.119 278.843 435.771C277.475 434.414 276.738 432.578 276.631 430.264L276.616 429.429ZM281.553 429.736C281.553 431.201 281.782 432.275 282.241 432.959C282.7 433.643 283.379 433.984 284.277 433.984C286.035 433.984 286.933 432.632 286.973 429.927V429.429C286.973 426.587 286.064 425.166 284.248 425.166C282.598 425.166 281.704 426.392 281.567 428.843L281.553 429.736ZM308.257 433.984C308.95 433.984 309.487 433.799 309.868 433.428C310.249 433.047 310.434 432.52 310.425 431.846H315.054C315.054 433.584 314.429 435.01 313.179 436.123C311.938 437.236 310.337 437.793 308.374 437.793C306.069 437.793 304.253 437.07 302.925 435.625C301.597 434.18 300.932 432.178 300.932 429.619V429.414C300.932 427.812 301.225 426.401 301.811 425.181C302.407 423.95 303.262 423.008 304.375 422.354C305.488 421.689 306.807 421.357 308.33 421.357C310.391 421.357 312.026 421.929 313.237 423.071C314.448 424.214 315.054 425.762 315.054 427.715H310.425C310.425 426.895 310.224 426.265 309.824 425.825C309.424 425.386 308.887 425.166 308.213 425.166C306.933 425.166 306.186 425.981 305.972 427.612C305.903 428.13 305.869 428.843 305.869 429.751C305.869 431.343 306.059 432.446 306.44 433.062C306.821 433.677 307.427 433.984 308.257 433.984ZM316.518 429.429C316.518 427.847 316.826 426.44 317.441 425.21C318.057 423.97 318.94 423.018 320.093 422.354C321.245 421.689 322.598 421.357 324.15 421.357C326.523 421.357 328.393 422.095 329.761 423.569C331.128 425.034 331.811 427.031 331.811 429.561V429.736C331.811 432.207 331.123 434.17 329.746 435.625C328.379 437.07 326.523 437.793 324.18 437.793C321.924 437.793 320.112 437.119 318.745 435.771C317.378 434.414 316.641 432.578 316.533 430.264L316.518 429.429ZM321.455 429.736C321.455 431.201 321.684 432.275 322.143 432.959C322.602 433.643 323.281 433.984 324.18 433.984C325.937 433.984 326.836 432.632 326.875 429.927V429.429C326.875 426.587 325.967 425.166 324.15 425.166C322.5 425.166 321.606 426.392 321.47 428.843L321.455 429.736ZM338.652 421.65L338.813 423.511C339.936 422.075 341.445 421.357 343.34 421.357C345.342 421.357 346.694 422.153 347.397 423.745C348.472 422.153 350.024 421.357 352.056 421.357C355.268 421.357 356.919 423.301 357.007 427.188V437.5H352.056V427.495C352.056 426.685 351.919 426.094 351.645 425.723C351.372 425.352 350.874 425.166 350.151 425.166C349.175 425.166 348.447 425.601 347.969 426.47L347.983 426.675V437.5H343.032V427.524C343.032 426.694 342.9 426.094 342.637 425.723C342.373 425.352 341.87 425.166 341.128 425.166C340.181 425.166 339.458 425.601 338.96 426.47V437.5H334.023V421.65H338.652ZM359.204 429.429C359.204 427.847 359.512 426.44 360.127 425.21C360.742 423.97 361.626 423.018 362.778 422.354C363.931 421.689 365.283 421.357 366.836 421.357C369.209 421.357 371.079 422.095 372.446 423.569C373.813 425.034 374.497 427.031 374.497 429.561V429.736C374.497 432.207 373.808 434.17 372.432 435.625C371.064 437.07 369.209 437.793 366.865 437.793C364.609 437.793 362.798 437.119 361.431 435.771C360.063 434.414 359.326 432.578 359.219 430.264L359.204 429.429ZM364.141 429.736C364.141 431.201 364.37 432.275 364.829 432.959C365.288 433.643 365.967 433.984 366.865 433.984C368.623 433.984 369.521 432.632 369.56 429.927V429.429C369.56 426.587 368.652 425.166 366.836 425.166C365.185 425.166 364.292 426.392 364.155 428.843L364.141 429.736ZM393.584 435.786C392.539 437.124 391.128 437.793 389.35 437.793C387.612 437.793 386.294 437.29 385.395 436.284C384.507 435.269 384.062 433.813 384.062 431.919V421.65H388.999V431.948C388.999 433.306 389.658 433.984 390.976 433.984C392.109 433.984 392.915 433.579 393.393 432.769V421.65H398.359V437.5H393.73L393.584 435.786ZM405.61 421.65L405.771 423.511C406.865 422.075 408.374 421.357 410.298 421.357C411.948 421.357 413.179 421.851 413.989 422.837C414.809 423.823 415.234 425.308 415.264 427.29V437.5H410.312V427.495C410.312 426.694 410.151 426.108 409.829 425.737C409.507 425.356 408.921 425.166 408.071 425.166C407.104 425.166 406.387 425.547 405.918 426.309V437.5H400.981V421.65H405.61ZM440.195 429.692C440.195 432.153 439.639 434.121 438.525 435.596C437.422 437.061 435.928 437.793 434.043 437.793C432.588 437.793 431.391 437.261 430.454 436.196V443.594H425.517V421.65H430.132L430.278 423.115C431.225 421.943 432.471 421.357 434.014 421.357C435.967 421.357 437.485 422.08 438.569 423.525C439.653 424.961 440.195 426.938 440.195 429.458V429.692ZM435.259 429.385C435.259 426.572 434.438 425.166 432.798 425.166C431.626 425.166 430.845 425.586 430.454 426.426V432.666C430.884 433.545 431.675 433.984 432.827 433.984C434.399 433.984 435.21 432.627 435.259 429.912V429.385ZM451.973 426.118L450.347 426.001C448.794 426.001 447.798 426.489 447.358 427.466V437.5H442.422V421.65H447.051L447.212 423.687C448.042 422.134 449.199 421.357 450.683 421.357C451.211 421.357 451.67 421.416 452.06 421.533L451.973 426.118ZM452.602 429.429C452.602 427.847 452.91 426.44 453.525 425.21C454.141 423.97 455.024 423.018 456.177 422.354C457.329 421.689 458.682 421.357 460.234 421.357C462.607 421.357 464.477 422.095 465.845 423.569C467.212 425.034 467.895 427.031 467.895 429.561V429.736C467.895 432.207 467.207 434.17 465.83 435.625C464.463 437.07 462.607 437.793 460.264 437.793C458.008 437.793 456.196 437.119 454.829 435.771C453.462 434.414 452.724 432.578 452.617 430.264L452.602 429.429ZM457.539 429.736C457.539 431.201 457.768 432.275 458.227 432.959C458.686 433.643 459.365 433.984 460.264 433.984C462.021 433.984 462.92 432.632 462.959 429.927V429.429C462.959 426.587 462.051 425.166 460.234 425.166C458.584 425.166 457.69 426.392 457.554 428.843L457.539 429.736ZM471.162 437.5V425.078H468.862V421.65H471.162V420.391C471.162 418.584 471.694 417.183 472.759 416.187C473.823 415.19 475.317 414.692 477.241 414.692C477.944 414.692 478.716 414.795 479.556 415L479.57 418.633C479.267 418.545 478.862 418.501 478.354 418.501C476.86 418.501 476.113 419.146 476.113 420.435V421.65H479.204V425.078H476.113V437.5H471.162ZM488.257 437.793C485.825 437.793 483.857 437.07 482.353 435.625C480.849 434.17 480.098 432.28 480.098 429.956V429.546C480.098 427.925 480.395 426.494 480.991 425.254C481.597 424.014 482.475 423.057 483.628 422.383C484.78 421.699 486.147 421.357 487.729 421.357C489.956 421.357 491.714 422.051 493.003 423.438C494.292 424.814 494.936 426.738 494.936 429.209V431.128H485.122C485.298 432.017 485.683 432.715 486.279 433.223C486.875 433.73 487.646 433.984 488.594 433.984C490.156 433.984 491.377 433.438 492.256 432.344L494.512 435.01C493.896 435.859 493.022 436.538 491.89 437.046C490.766 437.544 489.556 437.793 488.257 437.793ZM487.7 425.166C486.255 425.166 485.395 426.123 485.122 428.037H490.102V427.656C490.122 426.865 489.922 426.255 489.502 425.825C489.082 425.386 488.481 425.166 487.7 425.166ZM505.234 433.047C505.234 432.627 505.015 432.29 504.575 432.036C504.136 431.782 503.301 431.519 502.07 431.245C500.84 430.972 499.824 430.615 499.023 430.176C498.223 429.727 497.612 429.185 497.192 428.55C496.772 427.915 496.562 427.188 496.562 426.367C496.562 424.912 497.163 423.716 498.364 422.778C499.565 421.831 501.138 421.357 503.081 421.357C505.171 421.357 506.85 421.831 508.12 422.778C509.39 423.726 510.024 424.971 510.024 426.514H505.073C505.073 425.244 504.404 424.609 503.066 424.609C502.549 424.609 502.114 424.756 501.763 425.049C501.411 425.332 501.235 425.688 501.235 426.118C501.235 426.558 501.45 426.914 501.88 427.188C502.309 427.461 502.993 427.686 503.931 427.861C504.878 428.037 505.708 428.247 506.421 428.491C508.804 429.312 509.995 430.781 509.995 432.9C509.995 434.346 509.35 435.522 508.061 436.431C506.782 437.339 505.122 437.793 503.081 437.793C501.724 437.793 500.513 437.549 499.448 437.061C498.384 436.572 497.554 435.908 496.958 435.068C496.362 434.229 496.064 433.345 496.064 432.417H500.679C500.698 433.149 500.942 433.687 501.411 434.028C501.88 434.36 502.48 434.526 503.213 434.526C503.887 434.526 504.39 434.39 504.722 434.116C505.063 433.843 505.234 433.486 505.234 433.047ZM517.524 437.5H512.573V421.65H517.524V437.5ZM512.28 417.563C512.28 416.86 512.534 416.284 513.042 415.835C513.55 415.386 514.209 415.161 515.019 415.161C515.83 415.161 516.489 415.386 516.997 415.835C517.505 416.284 517.759 416.86 517.759 417.563C517.759 418.267 517.505 418.843 516.997 419.292C516.489 419.741 515.83 419.966 515.019 419.966C514.209 419.966 513.55 419.741 513.042 419.292C512.534 418.843 512.28 418.267 512.28 417.563ZM519.956 429.429C519.956 427.847 520.264 426.44 520.879 425.21C521.494 423.97 522.378 423.018 523.53 422.354C524.682 421.689 526.035 421.357 527.588 421.357C529.961 421.357 531.831 422.095 533.198 423.569C534.565 425.034 535.249 427.031 535.249 429.561V429.736C535.249 432.207 534.56 434.17 533.183 435.625C531.816 437.07 529.961 437.793 527.617 437.793C525.361 437.793 523.55 437.119 522.182 435.771C520.815 434.414 520.078 432.578 519.971 430.264L519.956 429.429ZM524.892 429.736C524.892 431.201 525.122 432.275 525.581 432.959C526.04 433.643 526.719 433.984 527.617 433.984C529.375 433.984 530.273 432.632 530.312 429.927V429.429C530.312 426.587 529.404 425.166 527.588 425.166C525.937 425.166 525.044 426.392 524.907 428.843L524.892 429.736ZM541.958 421.65L542.119 423.511C543.213 422.075 544.722 421.357 546.645 421.357C548.296 421.357 549.526 421.851 550.337 422.837C551.157 423.823 551.582 425.308 551.611 427.29V437.5H546.66V427.495C546.66 426.694 546.499 426.108 546.177 425.737C545.854 425.356 545.268 425.166 544.419 425.166C543.452 425.166 542.734 425.547 542.266 426.309V437.5H537.329V421.65H541.958ZM563.286 437.5C563.11 437.178 562.954 436.704 562.817 436.079C561.909 437.222 560.64 437.793 559.009 437.793C557.515 437.793 556.245 437.344 555.2 436.445C554.155 435.537 553.633 434.399 553.633 433.032C553.633 431.313 554.267 430.015 555.537 429.136C556.807 428.257 558.652 427.817 561.074 427.817H562.598V426.982C562.598 425.527 561.968 424.8 560.708 424.8C559.536 424.8 558.95 425.376 558.95 426.528H554.014C554.014 424.995 554.663 423.75 555.962 422.793C557.27 421.836 558.935 421.357 560.957 421.357C562.978 421.357 564.575 421.851 565.747 422.837C566.919 423.823 567.519 425.176 567.549 426.895V433.911C567.568 435.366 567.793 436.479 568.223 437.251V437.5H563.286ZM560.195 434.277C560.81 434.277 561.318 434.146 561.719 433.882C562.129 433.618 562.422 433.32 562.598 432.988V430.454H561.162C559.443 430.454 558.584 431.226 558.584 432.769C558.584 433.218 558.735 433.584 559.038 433.867C559.341 434.141 559.726 434.277 560.195 434.277ZM575.503 437.5H570.552V415H575.503V437.5Z" fill="#484747"/>
<path d="M942.524 373.45L946.449 364.192H952.001L945.131 377.859V385.52H939.916V377.859L933.061 364.192H938.583L942.524 373.45ZM951.738 377.449C951.738 375.867 952.045 374.461 952.66 373.23C953.276 371.99 954.159 371.038 955.312 370.374C956.464 369.71 957.817 369.378 959.369 369.378C961.742 369.378 963.613 370.115 964.98 371.59C966.347 373.055 967.031 375.052 967.031 377.581V377.757C967.031 380.227 966.342 382.19 964.965 383.645C963.598 385.091 961.742 385.813 959.399 385.813C957.143 385.813 955.331 385.14 953.964 383.792C952.597 382.434 951.86 380.599 951.752 378.284L951.738 377.449ZM956.674 377.757C956.674 379.222 956.904 380.296 957.363 380.979C957.822 381.663 958.5 382.005 959.399 382.005C961.156 382.005 962.055 380.652 962.094 377.947V377.449C962.094 374.607 961.186 373.186 959.369 373.186C957.719 373.186 956.825 374.412 956.689 376.863L956.674 377.757ZM978.647 383.807C977.602 385.144 976.191 385.813 974.413 385.813C972.675 385.813 971.357 385.31 970.458 384.305C969.57 383.289 969.125 381.834 969.125 379.939V369.671H974.062V379.969C974.062 381.326 974.721 382.005 976.039 382.005C977.172 382.005 977.978 381.599 978.456 380.789V369.671H983.422V385.52H978.793L978.647 383.807ZM991.889 365.73V369.671H994.496V373.099H991.889V380.349C991.889 380.945 991.996 381.36 992.211 381.595C992.426 381.829 992.851 381.946 993.486 381.946C993.974 381.946 994.384 381.917 994.716 381.858V385.389C993.827 385.672 992.9 385.813 991.933 385.813C990.234 385.813 988.979 385.413 988.168 384.612C987.358 383.811 986.952 382.596 986.952 380.965V373.099H984.931V369.671H986.952V365.73H991.889ZM1005.89 383.807C1004.85 385.144 1003.44 385.813 1001.66 385.813C999.921 385.813 998.603 385.31 997.704 384.305C996.816 383.289 996.371 381.834 996.371 379.939V369.671H1001.31V379.969C1001.31 381.326 1001.97 382.005 1003.29 382.005C1004.42 382.005 1005.22 381.599 1005.7 380.789V369.671H1010.67V385.52H1006.04L1005.89 383.807ZM1028.1 377.727C1028.1 380.325 1027.56 382.322 1026.49 383.719C1025.41 385.115 1023.9 385.813 1021.95 385.813C1020.34 385.813 1019.04 385.174 1018.05 383.894L1017.85 385.52H1013.42V363.02H1018.36V370.945C1019.28 369.9 1020.46 369.378 1021.92 369.378C1023.89 369.378 1025.41 370.086 1026.49 371.502C1027.56 372.918 1028.1 374.91 1028.1 377.478V377.727ZM1023.15 377.42C1023.15 375.896 1022.94 374.812 1022.53 374.168C1022.13 373.514 1021.51 373.186 1020.67 373.186C1019.56 373.186 1018.79 373.611 1018.36 374.461V380.76C1018.78 381.599 1019.56 382.019 1020.7 382.019C1021.86 382.019 1022.6 381.453 1022.91 380.32C1023.07 379.764 1023.15 378.797 1023.15 377.42ZM1037.96 385.813C1035.53 385.813 1033.56 385.091 1032.05 383.645C1030.55 382.19 1029.8 380.301 1029.8 377.976V377.566C1029.8 375.945 1030.1 374.515 1030.69 373.274C1031.3 372.034 1032.18 371.077 1033.33 370.403C1034.48 369.72 1035.85 369.378 1037.43 369.378C1039.66 369.378 1041.42 370.071 1042.7 371.458C1043.99 372.835 1044.64 374.759 1044.64 377.229V379.148H1034.82C1035 380.037 1035.39 380.735 1035.98 381.243C1036.58 381.751 1037.35 382.005 1038.3 382.005C1039.86 382.005 1041.08 381.458 1041.96 380.364L1044.21 383.03C1043.6 383.88 1042.72 384.558 1041.59 385.066C1040.47 385.564 1039.26 385.813 1037.96 385.813ZM1037.4 373.186C1035.96 373.186 1035.1 374.143 1034.82 376.057H1039.8V375.677C1039.82 374.886 1039.62 374.275 1039.2 373.846C1038.78 373.406 1038.18 373.186 1037.4 373.186Z" fill="#484747"/>
<path d="M944.14 431.705V438.941H938.998V417.613H947.509C949.14 417.613 950.58 417.916 951.83 418.521C953.09 419.117 954.062 419.971 954.745 421.085C955.438 422.188 955.785 423.443 955.785 424.849C955.785 426.929 955.038 428.594 953.544 429.844C952.06 431.085 950.019 431.705 947.421 431.705H944.14ZM944.14 427.735H947.509C948.505 427.735 949.262 427.486 949.779 426.988C950.307 426.49 950.57 425.787 950.57 424.879C950.57 423.883 950.302 423.087 949.765 422.491C949.228 421.895 948.495 421.593 947.567 421.583H944.14V427.735ZM967.899 427.559L966.273 427.442C964.721 427.442 963.725 427.93 963.285 428.907V438.941H958.349V423.092H962.978L963.139 425.128C963.969 423.575 965.126 422.799 966.61 422.799C967.138 422.799 967.597 422.857 967.987 422.974L967.899 427.559ZM974.887 438.941H969.936V423.092H974.887V438.941ZM969.643 419.005C969.643 418.302 969.896 417.725 970.404 417.276C970.912 416.827 971.571 416.602 972.382 416.602C973.192 416.602 973.852 416.827 974.359 417.276C974.867 417.725 975.121 418.302 975.121 419.005C975.121 419.708 974.867 420.284 974.359 420.733C973.852 421.182 973.192 421.407 972.382 421.407C971.571 421.407 970.912 421.182 970.404 420.733C969.896 420.284 969.643 419.708 969.643 419.005ZM984.262 433.067L986.767 423.092H991.967L986.796 438.941H981.757L976.586 423.092H981.801L984.262 433.067ZM1002.13 438.941C1001.96 438.619 1001.8 438.145 1001.66 437.52C1000.76 438.663 999.486 439.234 997.855 439.234C996.361 439.234 995.092 438.785 994.047 437.886C993.002 436.978 992.479 435.841 992.479 434.473C992.479 432.755 993.114 431.456 994.384 430.577C995.653 429.698 997.499 429.259 999.921 429.259H1001.44V428.424C1001.44 426.969 1000.81 426.241 999.555 426.241C998.383 426.241 997.797 426.817 997.797 427.969H992.86C992.86 426.436 993.51 425.191 994.809 424.234C996.117 423.277 997.782 422.799 999.804 422.799C1001.83 422.799 1003.42 423.292 1004.59 424.278C1005.77 425.264 1006.37 426.617 1006.4 428.336V435.352C1006.42 436.807 1006.64 437.921 1007.07 438.692V438.941H1002.13ZM999.042 435.719C999.657 435.719 1000.17 435.587 1000.57 435.323C1000.98 435.059 1001.27 434.761 1001.44 434.429V431.895H1000.01C998.29 431.895 997.431 432.667 997.431 434.21C997.431 434.659 997.582 435.025 997.885 435.308C998.188 435.582 998.573 435.719 999.042 435.719ZM1008.52 430.899C1008.52 428.389 1009.06 426.412 1010.15 424.967C1011.23 423.521 1012.74 422.799 1014.69 422.799C1016.1 422.799 1017.29 423.355 1018.26 424.469V416.441H1023.21V438.941H1018.77L1018.52 437.242C1017.51 438.57 1016.22 439.234 1014.66 439.234C1012.77 439.234 1011.28 438.511 1010.17 437.066C1009.07 435.621 1008.52 433.565 1008.52 430.899ZM1013.46 431.207C1013.46 434.019 1014.28 435.426 1015.92 435.426C1017.01 435.426 1017.79 434.967 1018.26 434.049V428.013C1017.81 427.076 1017.04 426.607 1015.95 426.607C1014.42 426.607 1013.6 427.838 1013.47 430.299L1013.46 431.207ZM1025.39 430.87C1025.39 429.288 1025.7 427.882 1026.32 426.651C1026.93 425.411 1027.82 424.459 1028.97 423.795C1030.12 423.131 1031.47 422.799 1033.03 422.799C1035.4 422.799 1037.27 423.536 1038.64 425.01C1040 426.475 1040.69 428.472 1040.69 431.002V431.177C1040.69 433.648 1040 435.611 1038.62 437.066C1037.25 438.511 1035.4 439.234 1033.06 439.234C1030.8 439.234 1028.99 438.56 1027.62 437.213C1026.25 435.855 1025.52 434.019 1025.41 431.705L1025.39 430.87ZM1030.33 431.177C1030.33 432.642 1030.56 433.717 1031.02 434.4C1031.48 435.084 1032.16 435.426 1033.06 435.426C1034.81 435.426 1035.71 434.073 1035.75 431.368V430.87C1035.75 428.028 1034.84 426.607 1033.03 426.607C1031.38 426.607 1030.48 427.833 1030.35 430.284L1030.33 431.177Z" fill="#484747"/>
<path d="M954.367 483.324H946.281V488.407H955.832V492.362H941.139V471.034H955.861V475.003H946.281V479.5H954.367V483.324ZM965.998 487.909C965.998 487.489 965.778 487.152 965.338 486.898C964.899 486.644 964.064 486.38 962.833 486.107C961.603 485.833 960.587 485.477 959.787 485.038C958.986 484.588 958.375 484.046 957.956 483.412C957.536 482.777 957.326 482.049 957.326 481.229C957.326 479.774 957.926 478.578 959.127 477.64C960.329 476.693 961.901 476.219 963.844 476.219C965.934 476.219 967.614 476.693 968.883 477.64C970.153 478.587 970.788 479.833 970.788 481.375H965.836C965.836 480.106 965.167 479.471 963.83 479.471C963.312 479.471 962.877 479.618 962.526 479.911C962.174 480.194 961.999 480.55 961.999 480.98C961.999 481.419 962.213 481.776 962.643 482.049C963.073 482.323 963.756 482.547 964.694 482.723C965.641 482.899 966.471 483.109 967.184 483.353C969.567 484.173 970.758 485.643 970.758 487.762C970.758 489.208 970.114 490.384 968.825 491.292C967.545 492.201 965.885 492.655 963.844 492.655C962.487 492.655 961.276 492.411 960.211 491.922C959.147 491.434 958.317 490.77 957.721 489.93C957.125 489.09 956.828 488.207 956.828 487.279H961.442C961.461 488.011 961.706 488.548 962.174 488.89C962.643 489.222 963.244 489.388 963.976 489.388C964.65 489.388 965.153 489.251 965.485 488.978C965.827 488.705 965.998 488.348 965.998 487.909ZM979.782 488.846C980.475 488.846 981.012 488.661 981.393 488.29C981.774 487.909 981.959 487.381 981.95 486.708H986.579C986.579 488.446 985.954 489.872 984.704 490.985C983.463 492.098 981.862 492.655 979.899 492.655C977.594 492.655 975.778 491.932 974.45 490.487C973.122 489.042 972.458 487.04 972.458 484.481V484.276C972.458 482.674 972.75 481.263 973.336 480.042C973.932 478.812 974.787 477.87 975.9 477.215C977.013 476.551 978.332 476.219 979.855 476.219C981.916 476.219 983.551 476.791 984.762 477.933C985.973 479.076 986.579 480.624 986.579 482.577H981.95C981.95 481.756 981.75 481.126 981.349 480.687C980.949 480.248 980.412 480.028 979.738 480.028C978.458 480.028 977.711 480.843 977.497 482.474C977.428 482.992 977.394 483.705 977.394 484.613C977.394 486.205 977.584 487.308 977.965 487.923C978.346 488.539 978.952 488.846 979.782 488.846ZM988.043 484.291C988.043 482.708 988.351 481.302 988.966 480.072C989.582 478.832 990.465 477.879 991.618 477.215C992.77 476.551 994.123 476.219 995.675 476.219C998.048 476.219 999.918 476.957 1001.29 478.431C1002.65 479.896 1003.34 481.893 1003.34 484.422V484.598C1003.34 487.069 1002.65 489.032 1001.27 490.487C999.904 491.932 998.048 492.655 995.705 492.655C993.449 492.655 991.637 491.981 990.27 490.633C988.903 489.276 988.166 487.44 988.058 485.125L988.043 484.291ZM992.98 484.598C992.98 486.063 993.209 487.137 993.668 487.821C994.127 488.504 994.806 488.846 995.705 488.846C997.462 488.846 998.361 487.494 998.4 484.789V484.291C998.4 481.449 997.492 480.028 995.675 480.028C994.025 480.028 993.131 481.253 992.995 483.705L992.98 484.598ZM1010.72 492.362H1005.77V469.862H1010.72V492.362ZM1022.7 492.362C1022.53 492.04 1022.37 491.566 1022.23 490.941C1021.32 492.083 1020.06 492.655 1018.42 492.655C1016.93 492.655 1015.66 492.206 1014.62 491.307C1013.57 490.399 1013.05 489.261 1013.05 487.894C1013.05 486.175 1013.68 484.876 1014.95 483.998C1016.22 483.119 1018.07 482.679 1020.49 482.679H1022.01V481.844C1022.01 480.389 1021.38 479.662 1020.12 479.662C1018.95 479.662 1018.37 480.238 1018.37 481.39H1013.43C1013.43 479.857 1014.08 478.612 1015.38 477.655C1016.69 476.698 1018.35 476.219 1020.37 476.219C1022.39 476.219 1023.99 476.712 1025.16 477.699C1026.33 478.685 1026.94 480.038 1026.96 481.756V488.773C1026.98 490.228 1027.21 491.341 1027.64 492.113V492.362H1022.7ZM1019.61 489.139C1020.23 489.139 1020.73 489.007 1021.13 488.744C1021.54 488.48 1021.84 488.182 1022.01 487.85V485.316H1020.58C1018.86 485.316 1018 486.087 1018 487.63C1018 488.08 1018.15 488.446 1018.45 488.729C1018.76 489.002 1019.14 489.139 1019.61 489.139ZM1039.3 480.98L1037.67 480.863C1036.12 480.863 1035.12 481.351 1034.68 482.328V492.362H1029.75V476.512H1034.38L1034.54 478.548C1035.37 476.996 1036.52 476.219 1038.01 476.219C1038.54 476.219 1039 476.278 1039.39 476.395L1039.3 480.98Z" fill="#484747"/>
<defs>
<clipPath id="clip0">
<rect width="64.2398" height="64.2398" fill="white" transform="translate(503.884 272.915)"/>
</clipPath>
</defs>
</svg>
