<svg id="Layer_1" enable-background="new 0 0 256 256" height="512" viewBox="0 0 256 256" width="512" xmlns="http://www.w3.org/2000/svg"><g id="Layer_39"><g><path d="m227 2.5h-198c-.9 0-1.6.7-1.6 1.7v246.7c0 1.4 1.2 2.6 2.6 2.6h196c1.4 0 2.6-1.2 2.6-2.6v-246.7c0-1-.7-1.7-1.6-1.7z" fill="#edf4fc"/><path d="m227 2.5h-198c-.9 0-1.6.7-1.6 1.7v16.3h201.3v-16.3c-.1-1-.8-1.7-1.7-1.7z" fill="#5290db"/><circle cx="42.3" cy="11.5" r="2.9"/><circle cx="52.4" cy="11.5" r="2.9"/><circle cx="62.5" cy="11.5" r="2.9"/><path d="m143.4 89.9v-7.7c0-.7.5-1.3 1.1-1.5 5.1-1.5 9.4-3.1 12.6-6.4 1.1-1.2 2.9-1.2 4.1-.2.1 0 .1.1.2.2 1.4 1.5 3.1 2.7 4.9 3.6 3.6-21.2-10.6-41.3-31.8-44.9s-41.3 10.5-44.9 31.7 10.6 41.3 31.8 44.9c9.2 1.6 18.7-.2 26.7-5.1-3.1-4.2-4.7-9.4-4.7-14.6z" fill="#ef4460"/><path d="m144.4 96.8-3.8-1-6.3-3.1-2.9 6c-.2.4-.7.7-1.2.7h-4.5c-.5 0-1-.3-1.2-.8l-2.7-6-6.3 3.1-10.5 2.8c-1.1.3-2.1.9-2.8 1.8 12.7 11.4 31.4 13.1 45.9 4.2-1.7-2.3-2.9-4.9-3.7-7.7z" fill="#3caadc"/><path d="m255.8 213.2c-4-.7-7.1-3.8-7.9-7.7 0-.1-.1-.2-.2-.1-.1 0-.1.1-.1.1-.8 4-3.9 7-7.9 7.7-.1 0-.2.1-.1.2 0 .1.1.1.1.1 4 .7 7.1 3.8 7.9 7.7 0 .1.1.2.2.1.1 0 .1-.1.1-.1.8-4 3.9-7 7.9-7.7.1 0 .2-.1.1-.2.1 0 0 0-.1-.1z" fill="#ef4460"/><circle cx="15" cy="119" fill="#b2e26d" r="3"/><circle cx="15" cy="32" fill="#ef4460" r="3"/><circle cx="242" cy="181" fill="#3caadc" r="3"/><path d="m12.6 89.2h-2.1v-2.1c0-1.5-1.3-2.8-2.8-2.8s-2.8 1.3-2.8 2.8v2.1h-2.1c-1.5 0-2.8 1.3-2.8 2.8s1.3 2.8 2.8 2.8h2.1v2.1c0 1.5 1.3 2.8 2.8 2.8s2.8-1.3 2.8-2.8v-2.1h2.1c1.5 0 2.8-1.3 2.8-2.8s-1.3-2.8-2.8-2.8z" fill="#f5c84c"/><path d="m127.8 89.2c-2.1 0-4.2-.5-6-1.4v5l2.7 6c.2.5.7.8 1.2.8h4.5c.5 0 .9-.3 1.2-.7l2.9-6v-5.2c-2 .9-4.3 1.5-6.5 1.5z" fill="#f2ba94"/><path d="m140.5 95.9-3.1 7.7c-.2.6-.9.9-1.5.6-.2-.1-.3-.2-.5-.3l-4.1-5.1 2.9-6z" fill="#c7d7e5"/><path d="m118.6 103.6c.2.6.9.9 1.5.6.2-.1.3-.2.5-.3l4-5c0-.1-.1-.1-.1-.2l-2.7-6-4.2 2.1-2.1 1z" fill="#c7d7e5"/><g fill="#f2ba94"><path d="m142.2 65.4c-.3 0-.6 0-.9.1v10.2.9c3.1.5 6-1.6 6.5-4.7s-1.6-6-4.7-6.5c-.3 0-.6 0-.9 0z"/><path d="m114.3 75.7v-10.3c-3.1-.5-6 1.6-6.5 4.7s1.6 6 4.7 6.5c.6.1 1.2.1 1.8 0 0-.3 0-.6 0-.9z"/><path d="m129.8 59.3c-4.9 6.2-12.2 5.3-14.7 4.8-.4-.1-.8.2-.9.6v.1 10.9c0 7.5 6.1 13.5 13.5 13.5 7.5 0 13.5-6.1 13.5-13.5v-12c0-.1 0-.1 0-.2 0-.4-.3-.7-.7-.7-5.6-.2-8.6-2.4-9.7-3.5-.2-.4-.6-.4-1 0 .1-.1 0-.1 0 0z"/></g><path d="m113.4 65.4c.3 0 .6 0 .9.1v-.6c0-.4.3-.7.7-.7h.1c2.4.5 9.7 1.4 14.7-4.8.2-.3.7-.4 1-.1 0 0 0 0 .1.1 1.1 1.1 4.1 3.3 9.7 3.5.4 0 .7.3.7.7v.2 1.8c1.7-.3 3.5.3 4.8 1.5v-10.3c0-4.3-3.5-7.7-7.7-7.7-1.4 0-2.8.4-3.9 1.1-1.4-2.3-3.9-3.8-6.6-3.8h-4c-7.7 0-13.9 6.3-14 14v6.3c1-.9 2.2-1.3 3.5-1.3z" fill="#893c1a"/><path d="m58.7 195.7h14.1c2.3 0 4.2 1.9 4.2 4.2v14.1c0 2.3-1.9 4.2-4.2 4.2h-14.1c-2.3 0-4.2-1.9-4.2-4.2v-14.1c0-2.3 1.9-4.2 4.2-4.2z" fill="#87d147"/><path d="m175.1 82.2c0-.7-.5-1.3-1.1-1.5-5.1-1.5-9.4-3.1-12.6-6.4-1.1-1.2-2.9-1.2-4.1-.2-.1 0-.1.1-.2.2-3.2 3.4-7.5 5-12.6 6.4-.7.2-1.1.8-1.1 1.5v7.7c.1 9.3 5.2 17.9 13.3 22.5 1.6.9 3.5.9 5.1 0 8.1-4.6 13.2-13.2 13.3-22.5z" fill="#f5c84c"/><path d="m231.1 250.9v-246.7c0-2.3-1.9-4.1-4.2-4.2h-197.9c-2.3 0-4.1 1.9-4.2 4.2v246.7c0 2.8 2.3 5.1 5.1 5.1h196c2.9 0 5.2-2.3 5.2-5.1zm-201.2-245.9h196.3v12.9h-196.3zm0 245.9v-228h196.3v228c0 .1-.1.1-.1.1h-196.1c-.1 0-.1-.1-.1-.1z"/><path d="m200.2 120h-146c-1.4 0-2.5 1.1-2.5 2.5s1.1 2.5 2.5 2.5h146c1.4 0 2.5-1.1 2.5-2.5s-1.1-2.5-2.5-2.5z"/><path d="m200.2 131.9h-146c-1.4 0-2.5 1.1-2.5 2.5s1.1 2.5 2.5 2.5h146c1.4 0 2.5-1.1 2.5-2.5s-1.1-2.5-2.5-2.5z"/><path d="m200.2 143.9h-146c-1.4 0-2.5 1.1-2.5 2.5s1.1 2.5 2.5 2.5h146c1.4 0 2.5-1.1 2.5-2.5s-1.1-2.5-2.5-2.5z"/><path d="m200.2 155.8h-146c-1.4 0-2.5 1.1-2.5 2.5s1.1 2.5 2.5 2.5h146c1.4 0 2.5-1.1 2.5-2.5s-1.1-2.5-2.5-2.5z"/><path d="m200.2 167.8h-146c-1.4 0-2.5 1.1-2.5 2.5s1.1 2.5 2.5 2.5h146c1.4 0 2.5-1.1 2.5-2.5s-1.1-2.5-2.5-2.5z"/><path d="m200.2 179.7h-146c-1.4 0-2.5 1.1-2.5 2.5s1.1 2.5 2.5 2.5h146c1.4 0 2.5-1.1 2.5-2.5s-1.1-2.5-2.5-2.5z"/><path d="m131.5 204.5h-41.2c-1.4 0-2.5 1.1-2.5 2.5s1.1 2.5 2.5 2.5h41.2c1.4 0 2.5-1.1 2.5-2.5s-1.1-2.5-2.5-2.5z"/><path d="m128 112.7c6.8 0 13.4-1.7 19.4-4.9 2.3 2.7 5 5 8 6.8 2.3 1.4 5.2 1.4 7.6 0 8.9-5 14.5-14.4 14.6-24.7v-7.7c0-1.8-1.2-3.4-2.9-3.9-1.9-.5-3.8-1.2-5.6-1.9.2-1.7.3-3.3.3-5 0-22.8-18.5-41.3-41.3-41.3s-41.3 18.5-41.3 41.3 18.4 41.3 41.2 41.3zm-21.4-12 7.3-1.8c2.3 5.2 2.1 6.3 3.6 7.3-3.9-1.2-7.6-3.1-10.9-5.5zm12-3.6 1.9-.9 1.1 2.4-1.6 2zm22.3-5.4c0 .5.1 1.1.2 1.6l-4.4-2.1v-2.2c1.6-1.1 3-2.5 4.1-4.1v5c.1.6.1 1.2.1 1.8zm-.2-31.5c-4.8-.1-7.2-2-8-2.8-1.3-1.2-3.3-1.2-4.6 0-.1.1-.2.2-.2.3-4 5-9.9 4.4-12.2 3.9-1.2-.3-2.5.2-3.3 1.3v-2.6c0-6.3 5.1-11.4 11.5-11.5h4c1.8 0 3.5 1 4.5 2.6.7 1.2 2.2 1.6 3.4.9.8-.5 1.7-.7 2.7-.7 2.9 0 5.2 2.3 5.2 5.2v5.5c-.6-1.2-1.7-2.1-3-2.1zm-23.9 6.6c5.1.6 10.2-1.1 13.8-4.7 2.4 1.7 5.3 2.7 8.2 2.9v10.6c0 6.1-4.9 11-11 11s-11-4.9-11-11zm14.9 24.4v1l-2.3 4.8h-3l-2.1-4.8v-.9c2.4.5 5 .5 7.4-.1zm-3.7 16.5c-2.7 0-5.4-.3-8-.9 1-.1 1.9-.6 2.5-1.3l2.8-3.5h.3 4.5.5l2.8 3.5c.6.8 1.5 1.2 2.5 1.3-2.5.5-5.2.9-7.9.9zm8-7.2-1.7-2.1 1.1-2.3 2 1zm2.5 5.6c.6-.4 1-1 1.3-1.6l2.3-5.7.3.1c.6 1.6 1.3 3.2 2.2 4.8-2 1-4 1.8-6.1 2.4zm5.3-32.4v-5.4c.9.6 1.5 1.6 1.5 2.7s-.5 2.1-1.5 2.7zm28.8 9.2v7c-.1 8.5-4.7 16.2-12.1 20.3-.8.5-1.8.5-2.6 0-7.4-4.2-12-11.9-12.1-20.3v-7c4.9-1.4 9.5-3.2 13.1-6.9.2-.2.4-.2.6 0 3.5 3.6 8.3 5.5 13.1 6.9zm-44.6-47.9c20.1 0 36.3 16.3 36.3 36.3 0 .7 0 1.5-.1 2.2-.4-.3-.9-.8-1.1-1-2-2.2-5.5-2.3-7.7-.2-.1.1-.2.2-.2.2-2.1 2.1-4.7 3.6-7.5 4.5-.1 0-.1 0-.2.1 3.2-2.8 3.6-7.7 1-11.1v-9.2c0-5.6-4.6-10.2-10.2-10.2-1.1 0-2.2.2-3.2.5-1.9-2-4.6-3.2-7.4-3.2h-4c-9.1 0-16.4 7.4-16.5 16.5v5.2c-3 3.3-2.8 8.4.5 11.5 1.2 1.1 2.7 1.8 4.2 2 .9 4.2 3.5 7.9 7.1 10.2v2l-2.9 1.5-1.7.9-10.2 2.6c-.7.2-1.4.5-2.1.9-14.2-14.2-14.1-37.2.1-51.4 6.9-7 16.2-10.8 25.8-10.8zm-16.2 33.3v5.4c-1.5-.9-2-2.8-1.1-4.3.3-.5.6-.8 1.1-1.1z"/><path d="m68 202.4-3.5 3.5-1.2-1.2c-1-1-2.6-1-3.5 0-1 1-1 2.6 0 3.5l3 3c1 1 2.6 1 3.5 0l5.3-5.3c1-1 1-2.6 0-3.5-1.1-1-2.7-1-3.6 0z"/><path d="m72.8 193.2h-14.1c-3.7 0-6.7 3-6.7 6.7v14.1c0 3.7 3 6.7 6.7 6.7h14.1c3.7 0 6.7-3 6.7-6.7v-14.1c0-3.7-3-6.7-6.7-6.7zm1.7 20.9c0 .9-.8 1.7-1.7 1.7h-14.1c-.9 0-1.7-.8-1.7-1.7v-14.1c0-.9.8-1.7 1.7-1.7h14.1c.9 0 1.7.8 1.7 1.7z"/></g></g></svg>