<svg id="Capa_1" enable-background="new 0 0 512 512" height="512" viewBox="0 0 512 512" width="512" xmlns="http://www.w3.org/2000/svg"><g><g><path clip-rule="evenodd" d="m348.193 40.348c15.392 3.89 29.888 9.969 43.201 17.864l12.475-12.447c5.949-5.936 15.681-5.936 21.629 0l36.155 36.046c5.92 5.936 5.92 15.646 0 21.581l-12.504 12.447c7.912 13.283 14.006 27.776 17.933 43.105h17.615c8.403 0 15.305 6.858 15.305 15.242v51c0 8.413-6.902 15.271-15.305 15.271h-17.615c-3.927 15.329-10.021 29.822-17.933 43.076l12.504 12.476c5.92 5.936 5.92 15.646 0 21.581l-36.155 36.046c-5.949 5.936-15.681 5.936-21.629 0l-12.475-12.447c-13.313 7.895-27.809 13.946-43.201 17.864v17.605c0 8.385-6.873 15.242-15.276 15.242h-51.113c-8.403 0-15.305-6.858-15.305-15.242v-17.605c-15.363-3.919-29.888-9.969-43.172-17.864l-12.475 12.447c-5.949 5.936-15.681 5.936-21.629 0l-36.155-36.046c-5.949-5.936-5.949-15.646 0-21.581l12.475-12.447c-7.884-13.283-13.977-27.776-17.904-43.105h-17.615c-8.432 0-15.305-6.858-15.305-15.271v-51c0-8.385 6.873-15.242 15.305-15.242h17.615c3.927-15.329 10.021-29.822 17.904-43.105l-12.475-12.447c-5.949-5.936-5.949-15.646 0-21.581l36.155-36.046c5.949-5.936 15.681-5.936 21.629 0l12.475 12.447c13.313-7.895 27.809-13.946 43.172-17.864v-17.605c0-8.385 6.902-15.242 15.305-15.242h51.113c8.403 0 15.276 6.858 15.276 15.242z" fill="#737a93" fill-rule="evenodd"/></g><g><path clip-rule="evenodd" d="m461.653 81.81-36.155-36.046c-5.949-5.936-15.681-5.936-21.629 0l-12.475 12.447c-13.313-7.895-27.809-13.974-43.201-17.864v-17.604c0-8.385-6.873-15.242-15.276-15.242h-34.595c10.165 21.034 18.799 44.315 25.586 69.325 60.787 8.097 107.685 60.018 107.685 122.86 0 59.212-41.584 108.713-97.202 121.016-1.473.346-2.974.634-4.447.922-5.371 25.01-12.475 48.608-21.11 70.276h24.084c8.403 0 15.276-6.858 15.276-15.242v-17.605c15.392-3.919 29.888-9.969 43.201-17.864l12.475 12.447c5.949 5.936 15.681 5.936 21.629 0l36.155-36.046c5.92-5.936 5.92-15.646 0-21.581l-12.504-12.476c7.912-13.254 14.006-27.747 17.933-43.076h17.615c8.403 0 15.305-6.858 15.305-15.271v-51c0-8.385-6.902-15.242-15.305-15.242h-17.615c-3.927-15.329-10.021-29.822-17.933-43.105l12.504-12.447c5.918-5.936 5.918-15.646-.001-21.582z" fill="#606b82" fill-rule="evenodd"/></g><g><path clip-rule="evenodd" d="m307.36 323.641c68.411 0 124.231-55.667 124.231-123.955 0-68.259-55.82-123.955-124.231-123.955-68.44 0-124.231 55.696-124.231 123.955-.001 68.287 55.791 123.955 124.231 123.955z" fill="#fe636e" fill-rule="evenodd"/></g><g><path clip-rule="evenodd" d="m334.389 261.634c27.174-10.056 46.695-36.247 46.695-66.761 0-24.376-12.446-45.986-31.274-58.808-19.781-13.485-15.969 7.808-15.969 11.381v42.759c0 14.954-11.753 27.286-26.481 28.266-14.728-.98-26.481-13.312-26.481-28.266v-42.759c0-3.573 3.812-24.866-15.969-11.381-18.857 12.822-31.274 34.432-31.274 58.808 0 30.513 19.521 56.705 46.695 66.761v59.067c8.692 1.931 17.76 2.939 27.029 2.939 9.27 0 18.308-1.008 27.029-2.939z" fill="#c1eaf4" fill-rule="evenodd"/></g><g><path clip-rule="evenodd" d="m334.389 320.702v-59.067c27.174-10.056 46.695-36.247 46.695-66.761 0-24.376-12.446-45.986-31.274-58.808-4.216-2.881-7.364-4.178-9.703-4.408 14.497 13.052 23.622 31.925 23.622 52.815 0 29.39-18.077 54.745-43.721 65.579-4.245 1.786-2.974 6.8-2.974 11.9v61.344c5.891-.462 11.695-1.326 17.355-2.594z" fill="#99cfe0" fill-rule="evenodd"/></g><g><path clip-rule="evenodd" d="m431.591 199.686c0-68.461-55.618-123.955-124.231-123.955-4.851 0-9.616.288-14.323.836 60.47 8.356 107.02 60.134 107.02 122.774 0 47.312-26.596 88.457-65.668 109.347v12.015c55.618-12.304 97.202-61.806 97.202-121.017z" fill="#f93e55" fill-rule="evenodd"/></g><g><path clip-rule="evenodd" d="m78.245 373.834-33.123 51.864 33.123 50.856 63.993 11.064 87.355 15.127c8.779 1.988 24.055 3.342 41.382-1.815l158.942-47.398c27.751-8.269 19.637-47.945-11.898-40.108l-16.316 3.803-84.987 19.824c-5.429 1.268-10.425 1.527-15.363 1.325-7.104-.317-14.092-1.585-22.034-2.19l-56.716-9.451c-22.698-5.359-16.2-33.164 3.35-31.724h18.048c40.313 0 39.476-48.637 3.985-54.457h-23.476c-8.403 0-16.027.23-23.737.922-16.951 1.498-34.393 5.215-61.74 13.629l-38.609 11.9z" fill="#ffe5c1" fill-rule="evenodd"/></g><g><path clip-rule="evenodd" d="m12 372.71v105.976.086c.029 6.253 5.169 11.381 11.464 11.381h43.316c6.324 0 11.464-5.158 11.464-11.468v-2.132-102.72-1.124c0-6.31-5.14-11.468-11.464-11.468h-43.316c-6.295 0-11.436 5.129-11.464 11.381z" fill="#6bd9e7" fill-rule="evenodd"/></g><g><path clip-rule="evenodd" d="m78.245 442.727v33.827l63.993 11.064 87.355 15.127c8.779 1.988 24.055 3.342 41.382-1.815l158.942-47.398c17.817-5.33 20.85-23.569 12.388-33.885-2.772 3.429-6.873 6.224-12.388 7.751l-28.213 7.808-91.138 29.188-45.107 12.447c-17.327 4.783-28.935-.576-37.714-2.766-50.45-9.825-99.051-21.494-149.5-31.348z" fill="#fed1a3" fill-rule="evenodd"/></g><g><path clip-rule="evenodd" d="m78.245 476.553v-33.827c0 6.31-5.14 11.468-11.464 11.468h-3.09-40.227c-6.295 0-11.436-5.129-11.464-11.381v35.873.086c.029 6.253 5.169 11.381 11.464 11.381h43.316c6.324 0 11.464-5.158 11.464-11.468v-2.132z" fill="#00c7dd" fill-rule="evenodd"/></g><g><path d="m307.359 68.23c-19.263 0-37.885 4.08-55.349 12.127-3.762 1.733-5.406 6.189-3.673 9.951s6.188 5.408 9.951 3.673c15.481-7.133 31.991-10.75 49.071-10.75 64.366 0 116.731 52.241 116.731 116.455 0 52.239-34.64 96.555-82.201 111.281v-44.3c28.134-12.623 46.695-40.838 46.695-71.793 0-25.972-12.918-50.273-34.55-65.005-3.183-2.169-12.869-8.773-20.999-4.083-7.954 4.589-6.7 21.411-6.695 21.662v42.758c0 10.76-8.297 19.777-18.981 20.744-10.683-.967-18.98-9.984-18.98-20.744v-42.73c.006-.279 1.26-17.101-6.696-21.69-8.127-4.687-17.816 1.914-20.991 4.078-21.639 14.713-34.558 39.016-34.558 65.01 0 30.955 18.561 59.17 46.695 71.793v44.3c-47.561-14.726-82.201-59.043-82.201-111.281 0-33.528 14.507-65.444 39.801-87.566 3.118-2.727 3.435-7.465.708-10.583s-7.466-3.436-10.583-.708c-28.551 24.971-44.926 61.002-44.926 98.857 0 72.501 59.095 131.485 131.731 131.485s131.732-58.984 131.732-131.485c0-72.485-59.095-131.456-131.732-131.456zm-19.529 246.301v-52.896c0-3.139-1.954-5.945-4.898-7.034-25-9.251-41.797-33.253-41.797-59.726 0-21.022 10.464-40.688 27.999-52.61 2.017-1.375 3.481-2.146 4.479-2.576l-.234 50.519c0 18.797 14.708 34.5 33.483 35.75.332.021.664.021.996 0 18.776-1.25 33.484-16.954 33.484-35.75l-.234-50.519c.998.432 2.463 1.202 4.481 2.578 17.53 11.937 27.996 31.604 27.996 52.608 0 26.473-16.798 50.475-41.798 59.726-2.943 1.09-4.898 3.896-4.898 7.034v52.896c-6.353 1.072-12.875 1.639-19.529 1.639s-13.177-.567-19.53-1.639z"/><path d="m484.7 151.446h-11.9c-3.49-11.93-8.28-23.441-14.291-34.351l8.45-8.41c8.85-8.87 8.85-23.301-.01-32.181l-36.151-36.051c-8.88-8.86-23.341-8.86-32.231 0l-8.42 8.41c-10.971-6.01-22.521-10.79-34.451-14.251v-11.87c-.001-12.542-10.222-22.742-22.782-22.742h-51.112c-12.57 0-22.801 10.2-22.801 22.741v11.881c-11.97 3.49-23.511 8.26-34.421 14.24l-8.43-8.41c-8.89-8.86-23.341-8.86-32.221 0l-36.161 36.051c-4.29 4.29-6.66 10-6.66 16.101 0 6.09 2.37 11.81 6.66 16.1l8.42 8.39c-6 10.931-10.78 22.441-14.271 34.351h-11.89c-12.581 0-22.811 10.201-22.811 22.741v51.002c0 12.551 10.23 22.771 22.811 22.771h11.89c3.49 11.901 8.27 23.411 14.271 34.341l-8.42 8.4c-4.3 4.29-6.66 10-6.66 16.101 0 6.09 2.37 11.811 6.66 16.101l17.191 17.141c-8.24 2.02-17.441 4.6-28.131 7.89l-53.079 16.354c-3.109-6.239-9.537-10.545-16.967-10.545h-43.318c-10.457 0-18.965 8.509-18.965 18.968v105.976c0 10.459 8.508 18.969 18.965 18.969h43.317c8.146 0 15.089-5.174 17.768-12.401l46.477 8.056c.43.07.86.11 1.29.11 3.58 0 6.75-2.57 7.38-6.22.7-4.08-2.03-7.96-6.11-8.67l-47.841-8.283v-90.871l55.491-17.1c14.511-4.46 26.121-7.57 36.291-9.71 6.66-1.4 12.69-2.39 18.501-3.07 3.1-.37 6.14-.65 9.17-.86 6.26-.44 12.52-.58 19.311-.58h22.831c13.831 2.53 20.301 13.23 19.531 22.631-.36 4.48-2.46 9.141-6.93 12.411-3.63 2.67-8.84 4.42-15.941 4.42h-17.79c-14.411-.92-23.581 9.25-25.211 19.841-1.58 10.221 3.98 22.921 19.881 26.681.16.04.33.07.49.1l56.712 9.45c.22.03.44.06.66.08 3.36.25 6.61.64 9.75 1.02 9.71 1.15 18.881 2.25 29.931-.33l101.294-23.631c.04-.01.08-.02.11-.02 11.58-2.88 17.421 2.39 19.031 8.29 1.71 6.26-1.03 14.351-11.09 17.351l-158.936 47.392c-17.561 5.23-32.131 2.92-37.581 1.69-.13-.03-.25-.05-.38-.07l-60.722-10.52c-4.08-.7-7.97 2.03-8.67 6.11-.71 4.08 2.02 7.961 6.11 8.671l60.542 10.48c3.52.79 9.97 1.9 18.291 1.9 7.61 0 16.781-.93 26.701-3.88l158.936-47.402c18.631-5.55 24.861-22.521 21.271-35.671-3.46-12.671-16.531-23.991-37.062-18.921l-101.254 23.621c-8.48 1.98-16.021 1.08-24.741.04-3.2-.38-6.5-.77-10.04-1.05l-56.132-9.35c-5.9-1.47-8.99-5.1-8.28-9.75.6-3.86 3.8-7.57 9.58-7.14.19.01.37.02.55.02h18.049c10.45 0 18.661-2.82 24.731-7.25 3.7 2.61 8.21 4.13 13.071 4.13h51.112c12.561 0 22.781-10.2 22.781-22.741v-11.871c11.98-3.49 23.521-8.27 34.451-14.251l8.43 8.41c8.88 8.86 23.331 8.86 32.221 0l36.161-36.061c8.85-8.87 8.85-23.301-.01-32.181l-8.44-8.42c6.01-10.891 10.79-22.391 14.291-34.321h11.9c12.571 0 22.801-10.22 22.801-22.771v-51.002c.001-12.545-10.23-22.745-22.8-22.745zm-417.919 331.208h-43.317c-2.149 0-3.964-1.817-3.964-3.968v-105.976c0-2.15 1.816-3.967 3.964-3.967h43.317c2.186 0 3.964 1.779 3.964 3.967v.995c-.001.075-.001.151 0 .227v104.754c0 2.187-1.779 3.968-3.964 3.968zm425.719-257.465c0 4.28-3.5 7.77-7.8 7.77h-17.621c-3.42 0-6.41 2.32-7.26 5.64-3.71 14.451-9.46 28.281-17.111 41.092-1.76 2.95-1.29 6.72 1.14 9.151l12.49 12.46c3.02 3.03 3.02 7.96.02 10.98l-36.161 36.041c-3.04 3.04-7.99 3.04-11.03 0l-12.47-12.44c-2.43-2.42-6.18-2.89-9.13-1.15-12.841 7.62-26.711 13.361-41.222 17.051-3.33.85-5.65 3.84-5.65 7.27v17.601c0 4.27-3.49 7.74-7.78 7.74h-51.112c-1.16 0-2.27-.25-3.26-.72 1.87-3.75 2.95-7.77 3.28-11.781 1.33-16.37-9.44-34.941-32.621-38.741-.4-.07-.81-.1-1.21-.1h-23.482c-14.781 0-27.171.63-42.042 3.26l-24.101-24.031c-1.46-1.46-2.26-3.4-2.26-5.48s.8-4.03 2.26-5.48l12.471-12.451c2.43-2.42 2.91-6.19 1.15-9.14-7.64-12.881-13.391-26.721-17.081-41.132-.85-3.32-3.84-5.64-7.27-5.64h-17.611c-4.31 0-7.81-3.49-7.81-7.77v-51.002c0-4.27 3.5-7.74 7.81-7.74h17.611c3.43 0 6.42-2.32 7.27-5.64 3.69-14.421 9.44-28.261 17.081-41.142 1.76-2.95 1.28-6.71-1.15-9.14l-12.471-12.44c-1.46-1.46-2.26-3.4-2.26-5.48s.8-4.03 2.26-5.48l36.151-36.051c3.04-3.03 7.99-3.03 11.03 0l12.481 12.45c2.42 2.42 6.18 2.89 9.12 1.14 12.84-7.61 26.701-13.35 41.202-17.051 3.32-.84 5.65-3.84 5.65-7.26v-17.612c0-4.27 3.5-7.74 7.8-7.74h51.112c4.29 0 7.78 3.47 7.78 7.74v17.611c0 3.43 2.33 6.43 5.66 7.27 14.421 3.64 28.291 9.38 41.212 17.04 2.95 1.75 6.7 1.28 9.13-1.14l12.47-12.45c3.04-3.03 7.99-3.03 11.04 0l36.132 36.031c3.02 3.03 3.02 7.96.02 10.97l-12.5 12.45c-2.44 2.43-2.91 6.2-1.15 9.15 7.65 12.851 13.411 26.691 17.111 41.132.85 3.32 3.84 5.64 7.26 5.64h17.622c4.3 0 7.8 3.47 7.8 7.74z"/></g></g></svg>