<svg height="512pt" viewBox="0 -16 512 512" width="512pt" xmlns="http://www.w3.org/2000/svg"><path d="m288 471.992188h176c8.839844 0 16-7.15625 16-16v-48c0-8.839844-7.160156-16-16-16h-176zm0 0" fill="#33c0db"/><path d="m376 284.488281c0-101.621093-82.375-184-184-184s-184 82.378907-184 184c0 .59375.070312 1.160157.078125 1.753907-.007813.59375-.078125 1.160156-.078125 1.75 0 101.625 82.375 184 184 184s184-82.375 184-184c0-.589844-.078125-1.15625-.078125-1.75s.078125-1.160157.078125-1.753907zm0 0" fill="#33c0db"/><path d="m200 351.992188v40c0 4.417968-3.585938 8-8 8h-11.71875c-2.671875 0-5.175781-1.335938-6.65625-3.558594l-11.25-16.871094c-1.488281-2.234375-3.984375-3.570312-6.65625-3.570312h-13.949219c-3.441406 0-6.503906 2.203124-7.59375 5.472656l-23.808593 71.433594c24.601562 12.199218 52.304687 19.09375 81.632812 19.09375 49.761719 0 94.878906-19.789063 128-51.878907v-60.121093c0-4.414063-3.585938-8-8-8h-27.71875c-2.671875 0-5.175781-1.335938-6.65625-3.558594l-27.25-40.871094c-1.488281-2.234375-3.984375-3.570312-6.65625-3.570312h-35.71875c-4.414062 0-8 3.585937-8 8v24" fill="#fcb641"/><path d="m162.800781 102.824219 20.582031-2.109375c-6.976562.320312-13.839843 1.03125-20.582031 2.109375zm0 0" fill="#33c0db"/><path d="m151.382812 103.992188c-23.101562 5.394531-44.550781 15.320312-63.453124 28.777343 21.980468-15.113281 47.40625-25.558593 74.871093-29.945312zm0 0" fill="#33c0db"/><path d="m85.792969 179.570312c1.351562 2.710938 4.117187 4.421876 7.152343 4.421876h19.054688c4.414062 0 8 3.585937 8 8v40c0 4.417968 3.585938 8 8 8h50.726562c3.203126 0 6.097657-1.902344 7.351563-4.847657l19.84375-46.300781c1.261719-2.945312 4.148437-4.851562 7.351563-4.851562h34.726562c4.414062 0 8-3.582032 8-8v-59.804688c-19.9375-7.152344-41.488281-11.074219-64-11.074219-2.886719 0-5.761719.082031-8.625.207031l-20.582031 2.042969c-27.457031 4.230469-52.882813 14.34375-74.871094 28.949219-5.96875 4.105469-11.691406 8.53125-17.121094 13.289062zm0 0" fill="#fcb641"/><path d="m384 287.992188c0-47.726563-17.632812-93.484376-49.640625-128.832032l-11.855469 10.746094c29.335938 32.398438 45.496094 74.335938 45.496094 118.085938 0 42.320312-15.023438 81.195312-40 111.585937v-39.585937c0-8.820313-7.175781-16-16-16h-27.71875l-27.25-40.871094c-2.976562-4.464844-7.953125-7.128906-13.3125-7.128906h-35.71875c-8.824219 0-16 7.179687-16 16v24h16v-24h35.71875l27.25 40.875c2.976562 4.460937 7.953125 7.125 13.3125 7.125h27.71875v56.585937c-.34375.320313-.679688.65625-1.023438.976563-3.207031 2.953124-6.527343 5.742187-9.921874 8.421874-1.023438.808594-2.03125 1.625-3.070313 2.417969-3.3125 2.511719-6.710937 4.863281-10.175781 7.121094-1.222656.796875-2.449219 1.597656-3.695313 2.375-3.441406 2.121094-6.953125 4.101563-10.519531 5.976563-1.328125.695312-2.65625 1.382812-4 2.054687-3.65625 1.800781-7.371094 3.472656-11.144531 5.015625-1.289063.527344-2.578125 1.03125-3.882813 1.527344-3.964844 1.511718-7.980468 2.898437-12.054687 4.113281-1.105469.335937-2.222657.640625-3.335938.953125-4.335937 1.207031-8.71875 2.269531-13.152343 3.144531-.847657.167969-1.703126.300781-2.550782.453125-4.738281.855469-9.503906 1.5625-14.328125 2.023438-.511719.050781-1.023437.074218-1.535156.121094-5.152344.441406-10.363281.71875-15.609375.71875-3.046875 0-6.089844-.078126-9.113281-.230469-2.40625-.121094-4.796875-.328125-7.183594-.542969-.574219-.058594-1.160156-.082031-1.734375-.136719-2.753906-.28125-5.480469-.640625-8.191406-1.046875-.191406-.03125-.394532-.050781-.585938-.082031-2.679687-.40625-5.335937-.894531-7.96875-1.421875-.246094-.050781-.496094-.089844-.734375-.136719-2.480469-.511719-4.929687-1.097656-7.375-1.703125-.425781-.105468-.855469-.203125-1.28125-.3125-2.199219-.570312-4.375-1.207031-6.542969-1.863281-.695312-.210937-1.402343-.410156-2.105468-.625-1.917969-.609375-3.816406-1.265625-5.710938-1.9375-.953125-.335937-1.90625-.664063-2.847656-1.015625-1.6875-.632812-3.359375-1.304688-5.023438-1.984375-1.128906-.464844-2.25-.917969-3.371093-1.40625-.679688-.296875-1.34375-.609375-2.015625-.914063l21.554687-64.640624h13.949219l11.25 16.875c2.976562 4.460937 7.953125 7.125 13.3125 7.125h11.71875c8.824219 0 16-7.175782 16-16v-40h-16v40h-11.71875l-11.25-16.871094c-2.976562-4.464844-7.953125-7.128906-13.3125-7.128906h-13.949219c-6.898437 0-13 4.402343-15.167969 10.9375l-20.808593 62.417968c-53.546875-30.21875-89.792969-87.617187-89.792969-153.355468 0-47.949219 20.03125-92.566407 52.59375-124.917969l10.039062 20.070312c2.71875 5.457031 8.199219 8.847657 14.3125 8.847657h19.054688v40c0 8.824218 7.175781 16 16 16h50.726562c6.417969 0 12.183594-3.804688 14.707032-9.695313l19.839844-46.304687h34.726562c8.824219 0 16-7.175782 16-16v-16h-16v16h-34.726562c-6.417969 0-12.183594 3.808593-14.707032 9.699218l-19.839844 46.300782h-50.726562v-40c0-8.820313-7.175781-16-16-16h-19.054688l-12.035156-24.054688c8.984375-7.390625 18.640625-14 29.011719-19.527344.703125-.367187 1.398437-.746094 2.109375-1.105468 3.984375-2.046876 8.03125-3.984376 12.191406-5.734376.417969-.175781.855469-.320312 1.273438-.488281 3.601562-1.480469 7.28125-2.816406 11-4.054687 1.335937-.449219 2.679687-.882813 4.03125-1.289063 3.847656-1.183593 7.746094-2.273437 11.703125-3.183593.304687-.074219.609375-.167969.914062-.234376l-1.167969-5.167968-2.351562-10.453125c-.257812.054687-.503906.144531-.761719.207031-4.457031 1.023438-8.863281 2.253906-13.238281 3.601562-1.554688.476563-3.089844 1-4.625 1.511719-3.398438 1.140625-6.769531 2.390625-10.105469 3.726563-1.214843.488281-2.445312.9375-3.648437 1.449218-4.566406 1.933594-9.0625 4.046876-13.46875 6.335938-.203125.101562-.394532.214844-.59375.320312-4.566406 2.390626-9.023438 5-13.398438 7.757813-.074218.046875-.152344.097656-.226562.144531-8.421875 5.328125-16.503906 11.238282-24.039063 17.839844-.367187.328125-.617187.734375-.910156 1.121094-39.839844 35.679687-64.609375 87.457031-64.609375 143.277344 0 75.167968 43.441406 140.347656 106.511719 171.851562.113281.0625.183593.167969.296875.222656.449218.222656.902344.40625 1.351562.625 1.609375.78125 3.238282 1.503906 4.871094 2.246094 2.722656 1.234375 5.457031 2.390625 8.207031 3.496094 1.648438.65625 3.28125 1.335937 4.945313 1.945312 1.921875.703125 3.863281 1.328125 5.800781 1.96875 1.238281.40625 2.472656.839844 3.726563 1.222656 2 .617188 4.023437 1.167969 6.042968 1.71875 1.222656.328126 2.4375.664063 3.671875.976563 2.023438.503906 4.0625.976563 6.101563 1.410156 1.296875.277344 2.59375.542969 3.898437.789063 1.980469.386718 3.957031.746094 5.957031 1.066406 1.480469.238281 2.976563.4375 4.472657.640625 1.839843.246094 3.671875.503906 5.519531.703125 1.90625.207031 3.824219.34375 5.746094.488281 1.480468.109375 2.949218.261719 4.4375.335938 3.464844.191406 6.9375.292969 10.441406.292969 5.984375 0 11.886719-.308594 17.734375-.847657.433594-.039062.867187-.054687 1.289063-.09375 5.527343-.542969 10.976562-1.367187 16.351562-2.375.792969-.144531 1.585938-.265625 2.367188-.425781 5.066406-1.015625 10.042968-2.265625 14.953124-3.664062 1.113282-.320313 2.234376-.617188 3.335938-.953126 4.609375-1.40625 9.136719-3.015624 13.59375-4.757812 1.351562-.527344 2.710938-1.039062 4.046875-1.601562 4.238281-1.765626 8.382813-3.710938 12.464844-5.765626 1.449219-.730468 2.886719-1.449218 4.320312-2.21875 3.984375-2.136718 7.871094-4.4375 11.6875-6.839843 1.367188-.863281 2.726563-1.71875 4.070313-2.613281 3.855468-2.570313 7.59375-5.296876 11.25-8.128907 1.167968-.90625 2.335937-1.800781 3.480468-2.738281 3.726563-3.03125 7.328126-6.222656 10.816407-9.519531.582031-.550781 1.222656-1.023438 1.804687-1.589844.113282-.113281.152344-.265625.265625-.386719 35.839844-34.894531 58.167969-83.613281 58.167969-137.480468zm0 0"/><path d="m131.921875 299.914062-8.722656-8.71875c-1.984375-1.984374-4.871094-2.785156-7.597657-2.105468l-22.136718 5.535156c-3.28125.824219-6.722656-.511719-8.601563-3.320312l-10.496093-15.742188c-1.480469-2.234375-3.976563-3.570312-6.648438-3.570312h-11.71875c-4.414062 0-8 3.585937-8 8v20.691406c0 2.117187.839844 4.160156 2.34375 5.65625l27.3125 27.308594c1.503906 1.503906 3.535156 2.34375 5.65625 2.34375h31.742188c3.035156 0 5.800781-1.710938 7.152343-4.421876l11.207031-22.425781c1.546876-3.070312.945313-6.789062-1.492187-9.230469zm0 0" fill="#fcb641"/><path d="m115.054688 343.992188h-31.742188c-4.207031 0-8.335938-1.703126-11.3125-4.6875l-27.3125-27.3125c-3.023438-3.023438-4.6875-7.039063-4.6875-11.308594v-20.691406c0-8.820313 7.175781-16 16-16h11.71875c5.359375 0 10.335938 2.664062 13.3125 7.128906l10.496094 15.746094 22.144531-5.539063c5.382813-1.359375 11.238281.25 15.191406 4.21875l8.710938 8.710937c4.875 4.878907 6.089843 12.304688 3 18.472657l-11.207031 22.421875c-2.71875 5.449218-8.199219 8.839844-14.3125 8.839844zm-59.054688-64v20.691406l27.3125 27.308594h31.742188l11.210937-22.421876-8.722656-8.71875-22.144531 5.535157c-6.550782 1.625-13.445313-1.039063-17.183594-6.648438l-10.496094-15.746093zm0 0"/><path d="m318.519531 253.035156-12.304687-24.617187c-1.359375-2.710938-4.125-4.425781-7.160156-4.425781h-16.628907c-1.578125 0-3.121093.464843-4.441406 1.347656l-16.113281 10.734375c-3.359375 2.238281-4.519532 6.625-2.71875 10.230469l11.800781 23.601562c.679687 1.359375 1.734375 2.496094 3.039063 3.28125l36.105468 21.664062c1.246094.75 2.671875 1.140626 4.117188 1.140626h21.785156c4.414062 0 8-3.582032 8-8v-18.230469c0-3.441407-2.199219-6.503907-5.472656-7.589844l-15.382813-5.128906c-2.015625-.671875-3.679687-2.113281-4.625-4.007813zm0 0" fill="#fcb641"/><path d="m336 303.992188h-21.785156c-2.894532 0-5.75-.789063-8.230469-2.277344l-36.105469-21.664063c-2.613281-1.578125-4.71875-3.839843-6.078125-6.5625l-11.808593-23.597656c-3.601563-7.199219-1.265626-16 5.441406-20.472656l16.109375-10.734375c2.640625-1.761719 5.703125-2.691406 8.871093-2.691406h16.632813c6.113281 0 11.59375 3.394531 14.3125 8.851562l12.296875 24.589844c.007812.007812.015625.015625.015625.015625l15.382813 5.128906c6.546874 2.183594 10.945312 8.289063 10.945312 15.183594v18.230469c0 8.824218-7.175781 16-16 16zm-36.945312-72h-16.628907l-16.113281 10.738281 11.808594 23.597656 36.09375 21.664063h21.785156v-18.230469l-15.390625-5.128907c-4.050781-1.351562-7.328125-4.199218-9.242187-8.007812 0 0-.007813-.007812-.007813-.007812zm0 0"/><path d="m224 124.355469 80 27.636719 80-27.636719v-52.363281l-30.054688-8.941407c-33.015624-9.824219-68.183593-9.746093-101.152343.230469l-28.792969 8.710938zm0 0" fill="#9c9792"/><path d="m304 7.992188-168 64 88 40v-40l29.425781-8.832032c32.988281-9.894531 68.160157-9.894531 101.140625 0l29.433594 8.832032v40l88-40zm0 0" fill="#706d69"/><path d="m456 167.992188v-24c0-8.839844 7.160156-16 16-16s16 7.160156 16 16v24" fill="#9bc53d"/><path d="m496 167.992188h-16v-24c0-4.40625-3.585938-8-8-8s-8 3.59375-8 8v24h-16v-24c0-13.230469 10.769531-24 24-24s24 10.769531 24 24zm0 0"/><path d="m464 191.992188h16v24h-16zm0 0"/><path d="m483.085938 189.585938 13.855468-8.003907 12 20.785157-13.855468 8.003906zm0 0"/><path d="m435.070312 202.371094 11.996094-20.785156 13.859375 7.996093-12 20.789063zm0 0"/><path d="m479.960938 71.992188c0-.085938.03125-.167969.03125-.246094-.097657-3.222656-2.128907-6.082032-5.144532-7.222656l-168-64c-1.839844-.699219-3.855468-.699219-5.703125 0l-168 64c-3.015625 1.152343-5.046875 4-5.144531 7.222656-.105469 3.222656 1.742188 6.191406 4.679688 7.527344l83.320312 37.871093v7.21875c0 3.40625 2.167969 6.445313 5.390625 7.558594l80 27.640625c.839844.289062 1.730469.429688 2.609375.429688s1.769531-.140626 2.609375-.4375l80-27.640626c3.222656-1.105468 5.390625-4.144531 5.390625-7.558593v-7.21875l72-32.726563v27.582032h16v-40zm-103.960938 46.664062-72 24.875-72-24.875v-40.710938l23.726562-7.121093c11.824219-3.550781 23.90625-5.765625 36.050782-6.652344.511718-.042969 1.023437-.027344 1.535156-.058594.902344-.054687 1.808594-.054687 2.71875-.09375l-.03125 55.972657h16l.03125-55.972657c.449219.023438.90625.023438 1.351562.046875.746094.039063 1.488282.03125 2.234376.078125 12.136718.867188 24.214843 3.058594 36.046874 6.578125l24.335938 7.238282zm16-19.085938v-27.578124c0-.878907-.144531-1.742188-.414062-2.542969-.1875-.535157-.496094-1.007813-.777344-1.488281-.144532-.238282-.222656-.519532-.394532-.742188-.316406-.433594-.75-.769531-1.15625-1.128906-.226562-.199219-.402343-.457032-.648437-.632813-.3125-.222656-.707031-.335937-1.058594-.511719-.414062-.207031-.796875-.472656-1.253906-.617187l-29.433594-8.832031c-13.183593-3.949219-26.648437-6.375-40.183593-7.316406-.121094-.007813-.238282-.007813-.367188-.019532-4.097656-.269531-8.199219-.4375-12.3125-.4375-.136719 0-.265625.015625-.398438.015625-2.867187 0-5.722656.175781-8.578124.3125-1.496094.070313-3 .0625-4.496094.175781-13.496094.976563-26.917969 3.429688-40.054688 7.40625l-28.488281 8.625-.28125.082032-.015625.007812c-.671875.199219-1.253906.542969-1.832031.894532-.144531.085937-.328125.128906-.464844.222656-2.085937 1.464844-3.390625 3.882812-3.390625 6.527344v27.578124l-59.230469-26.921874 147.230469-56.09375 147.230469 56.085937zm0 0"/><path d="m392 247.992188h80c8.839844 0 16 7.160156 16 16v48c0 8.84375-7.160156 16-16 16h-80zm0 0" fill="#fcb641"/><path d="m408 391.992188h32v80h-32zm0 0" fill="#c7ebf2"/><path d="m392 327.992188h96c8.839844 0 16 7.160156 16 16v32c0 8.84375-7.160156 16-16 16h-96zm0 0" fill="#9bc53d"/><path d="m432 327.992188h32v64h-32zm0 0" fill="#c5d998"/><path d="m408 247.992188h32v80h-32zm0 0" fill="#fce0b0"/><path d="m494.238281 320.921875c1.113281-2.769531 1.761719-5.769531 1.761719-8.929687v-48c0-13.230469-10.769531-24-24-24h-80v16h8v64h-8v16h32v48h-56v16h32v64h-112v16h176c13.230469 0 24-10.765626 24-24v-48c0-2.8125-.574219-5.484376-1.472656-8h1.472656c13.230469 0 24-10.765626 24-24v-32c0-11.0625-7.558594-20.308594-17.761719-23.070313zm-14.238281-56.929687v48c0 4.410156-3.585938 8-8 8h-24v-64h24c4.414062 0 8 3.59375 8 8zm-64-8h16v64h-16zm24 80h16v48h-16zm-24 128v-64h16v64zm56-56v48c0 4.410156-3.585938 8-8 8h-16v-64h16c4.414062 0 8 3.59375 8 8zm24-32c0 4.410156-3.585938 8-8 8h-16v-48h16c4.414062 0 8 3.59375 8 8zm0 0"/></svg>