<svg height="512" viewBox="0 0 64 64" width="512" xmlns="http://www.w3.org/2000/svg"><g id="Fill_Outline" data-name="Fill Outline"><g id="Stroke_copy" data-name="Stroke copy"><g><g><rect fill="#84d2f4" height="40" rx="4" width="58" x="3" y="5"/><path d="m46 53h-28l.6-.8a12 12 0 0 0 2.4-7.2h22a12 12 0 0 0 2.4 7.2z" fill="#fcbc04"/><path d="m13 53h38a4 4 0 0 1 4 4 0 0 0 0 1 0 0h-46a0 0 0 0 1 0 0 4 4 0 0 1 4-4z" fill="#f9e109"/><path d="m38 37a24 24 0 0 1 -24-24v-8h-7a4 4 0 0 0 -4 4v32a4 4 0 0 0 4 4h50a4 4 0 0 0 4-4v-4z" fill="#57b7eb"/><path d="m21 45a12 12 0 0 1 -2.4 7.2l-.6.8 25-8z" fill="#e59730"/><path d="m17 55a2.99 2.99 0 0 1 -2.816-2h-1.184a4 4 0 0 0 -4 4h46a3.955 3.955 0 0 0 -.555-2z" fill="#fcbc04"/></g><g><g><path d="m30 24h4a0 0 0 0 1 0 0v8a0 0 0 0 1 0 0h-4a4 4 0 0 1 -4-4 4 4 0 0 1 4-4z" fill="#57b7eb" transform="matrix(-1 0 0 -1 60 56)"/><path d="m18 34 8-2v-8l-8-2z" fill="#f89c8d"/><path d="m26.632 38a1.9 1.9 0 0 0 1.8-1.3l1.568-4.7h-4l-1.168 3.5a1.9 1.9 0 0 0 1.8 2.5z" fill="#f89c8d"/><path d="m24.832 35.5 1.168-3.5h4l-.339 1.018a3.992 3.992 0 0 0 -3.573 2.717l-.256.768a1.885 1.885 0 0 0 .049 1.331 1.891 1.891 0 0 1 -1.049-2.334z" fill="#f8664f"/><path d="m33 30a5 5 0 0 1 -5-5v-1h-2v8h4a3.982 3.982 0 0 0 3.445-2z" fill="#4891d3"/><path d="m24 30a3.219 3.219 0 0 1 -4-3.123v-4.377l-2-.5v12l8-2v-8l-.186-.047z" fill="#f8664f"/></g><path d="m40 31h8a7 7 0 0 1 7 7v7a0 0 0 0 1 0 0h-22a0 0 0 0 1 0 0v-7a7 7 0 0 1 7-7z" fill="#f89c8d"/><path d="m33 11h14a8 8 0 0 1 8 8 6 6 0 0 1 -6 6h-7a9 9 0 0 1 -9-9v-5a0 0 0 0 1 0 0z" fill="#f89c8d"/><path d="m53 19a2 2 0 0 0 -2-2h-1a9 9 0 0 1 -8.477-6h-8.523v5a9 9 0 0 0 9 9h7a6 6 0 0 0 5.254-3.1 3.977 3.977 0 0 1 -1.254-2.9z" fill="#f8664f"/><path d="m47 42a8 8 0 0 1 -8-8v-1.683a6.951 6.951 0 0 0 7.884-1.317h-6.884a7 7 0 0 0 -7 7v7h22v-3z" fill="#f8664f"/><path d="m41 28h6a0 0 0 0 1 0 0v5a3 3 0 0 1 -3 3 3 3 0 0 1 -3-3v-5a0 0 0 0 1 0 0z" fill="#fcbc04"/><path d="m45 34a2.979 2.979 0 0 1 -2.255-1.041 6.955 6.955 0 0 0 4.255-2.073v-2.886h-6v5a2.993 2.993 0 0 0 5.976.242 2.98 2.98 0 0 1 -1.976.758z" fill="#e59730"/><path d="m44 31a7 7 0 0 1 -7-7v-5h.838a4.387 4.387 0 0 0 4.162-3 10.242 10.242 0 0 0 7.243 3h1.757v5a7 7 0 0 1 -7 7z" fill="#f9e109"/><path d="m49.243 19a10.242 10.242 0 0 1 -7.243-3 4.387 4.387 0 0 1 -4.162 3h-.838v5a7 7 0 0 0 12.846 3.845 7 7 0 0 1 -10.846-5.845v-1.168a4.378 4.378 0 0 0 3-2.832 10.242 10.242 0 0 0 7.243 3h1.757v-2z" fill="#fcbc04"/><path d="m55 38v7h-22v-7a6.67 6.67 0 0 1 .16-1.49 24.077 24.077 0 0 0 4.84.49h16.92a5.474 5.474 0 0 1 .08 1z" fill="#f8664f"/><path d="m55 42v3h-22v-7a6.67 6.67 0 0 1 .16-1.49 24.077 24.077 0 0 0 4.84.49h1.58a8.008 8.008 0 0 0 7.42 5z" fill="#cc5144"/><path d="m24.02 32.5-6.02 1.5v-7.75a23.857 23.857 0 0 0 6.02 6.25z" fill="#cc5144"/><path d="m28.93 35.21-.5 1.49a1.9 1.9 0 1 1 -3.6-1.2l.67-2.02a22.042 22.042 0 0 0 3.43 1.73z" fill="#f8664f"/><path d="m25.83 36.5a1.893 1.893 0 0 0 .05 1.33 1.894 1.894 0 0 1 -1.05-2.33l.67-2.02c.47.29.95.57 1.44.81a4.056 4.056 0 0 0 -.85 1.45z" fill="#cc5144"/><path d="m29 45h5l-4-8a2.236 2.236 0 0 0 -3-1 2.236 2.236 0 0 0 -1 3z" fill="#fcbc04"/><path d="m27.764 38.528-.764-1.528a2.205 2.205 0 0 1 -.231-.854 2.228 2.228 0 0 0 -.769 2.854l3 6h5l-1.148-2.3a8.087 8.087 0 0 1 -5.088-4.172z" fill="#e59730"/></g><g><rect fill="#57b7eb" height="18" rx="2" width="14" x="41" y="43"/><path d="m52 49a1 1 0 0 0 -1 1v6.931a8 8 0 0 1 -7-7.931v-6h-1a2 2 0 0 0 -2 2v14a2 2 0 0 0 2 2h10a2 2 0 0 0 2-2v-10z" fill="#4891d3"/><rect fill="#84d2f4" height="12" rx="1" width="8" x="52" y="49"/><circle cx="48" cy="50" fill="#f9e109" r="2"/><path d="m47 52h2a2 2 0 0 1 2 2v2a0 0 0 0 1 0 0h-6a0 0 0 0 1 0 0v-2a2 2 0 0 1 2-2z" fill="#f9e109"/><path d="m56 54v-5h-3a1 1 0 0 0 -1 1v10a1 1 0 0 0 1 1h6a1 1 0 0 0 1-1v-2a4 4 0 0 1 -4-4z" fill="#57b7eb"/><path d="m49 51a1.992 1.992 0 0 1 -1.82-2.82 2 2 0 1 0 2.64 2.64 1.99 1.99 0 0 1 -.82.18z" fill="#fcbc04"/><path d="m50 55a3 3 0 0 1 -3-3 2 2 0 0 0 -2 2v2h6v-1z" fill="#fcbc04"/><path d="m48.14 56h-3.14v-2a1.891 1.891 0 0 1 .18-.82 7.935 7.935 0 0 0 2.96 2.82z" fill="#e59730"/></g><path d="m11.278 9.18 1.236 2.504 2.764.402-2 1.95.472 2.752-2.472-1.299-2.472 1.299.472-2.752-2-1.95 2.764-.402z" fill="#f9e109"/><path d="m13.28 14.04.47 2.75-2.47-1.3-2.47 1.3.47-2.75-2-1.95 2.76-.41 1.24-2.5 1.23 2.5 1.49.22v1.1c0 .11 0 .22.01.33z" fill="#fcbc04"/><path d="m23.278 9.18 1.236 2.504 2.764.402-2 1.95.472 2.752-2.472-1.299-2.472 1.299.472-2.752-2-1.95 2.764-.402z" fill="#f9e109"/><g><path d="m8 41h20a2 2 0 0 1 2 2v14a0 0 0 0 1 0 0h-24a0 0 0 0 1 0 0v-14a2 2 0 0 1 2-2z" fill="#84d2f4"/><path d="m17 53a8 8 0 0 1 -8-8v-4h-1a2 2 0 0 0 -2 2v14h24v-4z" fill="#57b7eb"/><path d="m3 57h30a0 0 0 0 1 0 0 4 4 0 0 1 -4 4h-22a4 4 0 0 1 -4-4 0 0 0 0 1 0 0z" fill="#84d2f4"/><g fill="#f9e109"><circle cx="15" cy="48" r="3"/><path d="m14 51h2a3 3 0 0 1 3 3v3a0 0 0 0 1 0 0h-8a0 0 0 0 1 0 0v-3a3 3 0 0 1 3-3z"/></g><path d="m18.816 53h-1.816a7.953 7.953 0 0 1 -4.653-1.5 3 3 0 0 0 -1.347 2.5v3h8v-3a2.962 2.962 0 0 0 -.184-1z" fill="#fcbc04"/><path d="m17 49a2.96 2.96 0 0 1 -2.86-3.86 2.992 2.992 0 1 0 3.72 3.72 2.983 2.983 0 0 1 -.86.14z" fill="#fcbc04"/><path d="m16 56a4 4 0 0 1 -4-4v-.206a2.97 2.97 0 0 0 -1 2.206v3h8v-1z" fill="#e59730"/><path d="m8 59a2 2 0 0 1 -2-2h-3a4 4 0 0 0 4 4h22a3.982 3.982 0 0 0 3.445-2z" fill="#57b7eb"/></g><path d="m23.278 9.18-.178 3.178a1 1 0 0 0 1.406.97l2.777-1.242-2 1.95.472 2.752-2.472-1.3-2.472 1.3.472-2.752-2-1.95 2.764-.4z" fill="#fcbc04"/><path d="m11.278 9.18-.178 3.178a1 1 0 0 0 1.406.97l2.777-1.242-2 1.95.472 2.752-2.472-1.3-2.472 1.3.472-2.752-2-1.95 2.764-.4z" fill="#fcbc04"/><path d="m13.28 14.04.47 2.75-2.47-1.3-2.47 1.3.47-2.75-2-1.95 2.76-.41 1.24-2.5-.19 3.18a1.006 1.006 0 0 0 1.41.97l1.5-.67v.34c0 .11 0 .22.01.33z" fill="#e59730"/></g></g><g id="Outline_copy" data-name="Outline copy"><g fill="#39519d"><path d="m61 23a1 1 0 0 0 1-1v-13a5.006 5.006 0 0 0 -5-5h-50a5.006 5.006 0 0 0 -5 5v32a4.985 4.985 0 0 0 3 4.564v7.436a1 1 0 0 0 2 0v-10a1 1 0 0 1 1-1h20a1 1 0 0 1 1 1v13h-9v-2a3.988 3.988 0 0 0 -1.965-3.425 3.962 3.962 0 0 0 .965-2.575 4 4 0 0 0 -8 0 3.962 3.962 0 0 0 .965 2.575 3.988 3.988 0 0 0 -1.965 3.425v2h-7a1 1 0 0 0 -1 1 5.006 5.006 0 0 0 5 5h13a1 1 0 0 0 0-2h-13a3.006 3.006 0 0 1 -2.829-2h27.658a3.006 3.006 0 0 1 -2.829 2h-5a1 1 0 0 0 0 2h5a5.009 5.009 0 0 0 4.9-4h6.1v1a3 3 0 0 0 3 3h5a1 1 0 0 0 0-2h-5a1 1 0 0 1 -1-1v-14a1 1 0 0 1 1-1h10a1 1 0 0 1 1 1v3h-1a2 2 0 0 0 -2 2v1.78a3.078 3.078 0 0 0 -.4-.309 2.967 2.967 0 0 0 .4-1.471 3 3 0 0 0 -6 0 2.967 2.967 0 0 0 .4 1.471 2.994 2.994 0 0 0 -1.4 2.529v2a1 1 0 0 0 1 1h6v3a2 2 0 0 0 2 2h6a2 2 0 0 0 2-2v-10a2 2 0 0 0 -2-2h-3v-2h1a5.006 5.006 0 0 0 5-5v-15a1 1 0 0 0 -2 0v15a3 3 0 0 1 -3 3h-1v-6a8.006 8.006 0 0 0 -6.831-7.9 7.985 7.985 0 0 0 2.707-4.742 6.987 6.987 0 0 0 4.124-6.358 9.011 9.011 0 0 0 -9-9h-10a1 1 0 0 0 0 2h10a7.008 7.008 0 0 1 7 7 4.988 4.988 0 0 1 -2.378 4.235.982.982 0 0 0 -.622-.235 1 1 0 0 0 -1 1c0 .2-.011.4-.03.59v.017a6 6 0 0 1 -11.97-.607v-4a5.381 5.381 0 0 0 4.313-2.385 11.159 11.159 0 0 0 6.93 2.385h.757a1 1 0 0 0 2 0v-1a1 1 0 0 0 -1-1h-1.757a9.182 9.182 0 0 1 -6.536-2.707 1 1 0 0 0 -1.656.391 3.383 3.383 0 0 1 -3.213 2.316h-.838a1 1 0 0 0 -1 1v2.283a7.98 7.98 0 0 1 -2-5.283v-5a1 1 0 0 0 -2 0v5a9.976 9.976 0 0 0 4 7.975v.025a8 8 0 0 0 4 6.918v2.082a4 4 0 0 0 8 0v-1a6.006 6.006 0 0 1 6 6v4.184a2.966 2.966 0 0 0 -1-.184h-10a3 3 0 0 0 -2.816 2h-5.566l-.618-1.236v-4.764a6.028 6.028 0 0 1 2.952-5.161 1 1 0 1 0 -1.018-1.72 8.034 8.034 0 0 0 -3.934 6.881v.764l-1.1-2.211a3.22 3.22 0 0 0 -.977-1.143l.828-2.485a4.99 4.99 0 0 0 -.751-9.925h-3.876l-7.881-1.97a1 1 0 0 0 -1.243.97v5a1 1 0 0 0 2 0v-3.719l6 1.5v6.438l-6 1.5v-1.719a1 1 0 0 0 -2 0v3a1 1 0 0 0 1.243.97l6.232-1.558-.591 1.775a2.867 2.867 0 0 0 .9 3.138 3.233 3.233 0 0 0 .318 1.122l.277.553h-17.379a3 3 0 0 0 -3 3v.218a2.972 2.972 0 0 1 -1-2.218v-32a3 3 0 0 1 3-3h50a3 3 0 0 1 3 3v13a1 1 0 0 0 1 1zm-13 26a1 1 0 1 1 -1 1 1 1 0 0 1 1-1zm2 6h-4v-1a1 1 0 0 1 1-1h2a1 1 0 0 1 1 1zm9 5h-6v-10h6zm-15-25a2 2 0 0 1 -2-2v-1.263a7.736 7.736 0 0 0 4 0v1.263a2 2 0 0 1 -2 2zm-4 17h-9v-6h9zm-25-6a2 2 0 1 1 -2 2 2 2 0 0 1 2-2zm-3 10v-2a2 2 0 0 1 2-2h2a2 2 0 0 1 2 2v2zm19 0v-2h9v2zm-4.447-20.9a3.23 3.23 0 0 0 -.7.487l.868-2.587h1.891l-.592 1.777a3.221 3.221 0 0 0 -1.467.323zm6.447-7.1a3 3 0 0 1 -3 3h-3v-6h3a3 3 0 0 1 3 3zm-6.1 10.553a1.236 1.236 0 0 1 2.21-1.106l3.272 6.553h-1.382v-1a3 3 0 0 0 -3-3h-.382z"/><path d="m13 27h-3a1 1 0 0 0 0 2h3a1 1 0 0 0 0-2z"/><path d="m9.684 23.949 3 1a1 1 0 0 0 .632-1.9l-3-1a1 1 0 0 0 -.632 1.9z"/><path d="m12.684 31.051-3 1a1 1 0 0 0 .632 1.9l3-1a1 1 0 1 0 -.632-1.9z"/><circle cx="47" cy="23" r="1"/><circle cx="41" cy="23" r="1"/><path d="m44 27.827a3.814 3.814 0 0 0 2.707-1.12 1 1 0 0 0 -1.414-1.414 1.831 1.831 0 0 1 -2.586 0 1 1 0 0 0 -1.414 1.414 3.814 3.814 0 0 0 2.707 1.12z"/><circle cx="56" cy="57" r="1"/><path d="m16.229 11.777a1 1 0 0 0 -.808-.681l-2.243-.325-1-2.034a1.041 1.041 0 0 0 -1.793 0l-1 2.034-2.251.329a1 1 0 0 0 -.554 1.7l1.62 1.585-.38 2.234a1 1 0 0 0 1.451 1.054l2.007-1.054 2.007 1.054a1 1 0 0 0 1.451-1.054l-.383-2.234 1.623-1.585a1 1 0 0 0 .253-1.023zm-3.649 1.543a1 1 0 0 0 -.288.885l.13.755-.679-.356a1 1 0 0 0 -.931 0l-.678.356.13-.755a1 1 0 0 0 -.288-.885l-.549-.536.759-.11a1 1 0 0 0 .753-.547l.339-.688.34.688a1 1 0 0 0 .753.547l.758.11z"/><path d="m28.229 11.777a1 1 0 0 0 -.808-.681l-2.243-.325-1-2.034a1.041 1.041 0 0 0 -1.793 0l-1 2.034-2.244.325a1 1 0 0 0 -.561 1.704l1.62 1.585-.383 2.234a1 1 0 0 0 1.451 1.054l2.007-1.054 2.007 1.054a1 1 0 0 0 1.451-1.054l-.383-2.234 1.626-1.585a1 1 0 0 0 .253-1.023zm-3.649 1.543a1 1 0 0 0 -.288.885l.13.755-.679-.356a1 1 0 0 0 -.931 0l-.678.356.13-.755a1 1 0 0 0 -.288-.885l-.549-.536.759-.11a1 1 0 0 0 .753-.547l.339-.688.34.688a1 1 0 0 0 .753.547l.758.11z"/><path d="m24 47a1 1 0 0 0 -1 1v1h-1a1 1 0 0 0 0 2h1v1a1 1 0 0 0 2 0v-1h1a1 1 0 0 0 0-2h-1v-1a1 1 0 0 0 -1-1z"/></g></g></g></svg>