<?xml version='1.0' encoding='utf-8'?>
<svg xmlns="http://www.w3.org/2000/svg" version="1.1" width="600px" height="976px" viewBox="0 0 600 976"> <g id="layer1"> <g style="fill:rgb(0,0,0); fill-opacity:1.0; stroke-linejoin: miter"> <path d="M260.65012,453.44162C261.06122,453.44162,262.0258,455.20734,263.28027,458.34344C265.75964,464.64514,265.8629,465.8332,264.365,467.58942C263.603,468.46027,263.22336,468.77032,262.29495,468.77032C261.90173,468.77032,261.41006,468.7147,260.7492,468.6225C257.9599,468.26093,257.90826,468.0027,258.78638,463.7671C259.81946,459.16986,260.49097,455.24414,260.43933,454.31445C260.4098,453.72412,260.4857,453.44162,260.65012,453.44162 Z M282.78198,527.29083L334.45325,531.17505L348.922,531.17505L348.6637,532.983C348.50873,533.96436,348.40546,536.3921,348.40546,538.3549L348.40546,541.91907L339.88257,541.45416C335.18213,541.19586,324.74805,540.98926,316.63843,540.98926C308.5288,540.98926,296.28693,540.78265,289.417,540.5244L276.8651,540.0595L276.8651,549.977C276.8651,556.2271,276.6585,559.8429,276.34863,559.8429C276.03864,559.8429,275.83203,556.3304,275.83203,550.33856C275.83203,544.2434,275.6255,540.6794,275.31555,540.4727C274.90228,540.2145,274.90228,539.90454,275.26385,539.4913C275.57385,539.12976,275.88373,536.4437,275.93536,533.4478L276.09033,528.0758L278.1565,527.7659C279.09796,527.5948,280.71307,527.49445,282.0325,527.49445C282.27185,527.49445,282.50146,527.4978,282.71555,527.5046L282.78198,527.29083 Z M237.2904,527.8104C237.474,527.8104,237.60835,527.9239,237.60835,528.1792C237.60835,529.78046,238.84804,535.5656,239.41628,536.857C240.39766,539.0264,244.42665,559.42957,243.96178,559.89453C243.7035,560.10114,241.3791,560.3594,238.7964,560.4627L233.9926,560.6693L233.9926,558.8614C233.9926,557.82837,234.25087,554.8841,234.50914,552.3531C234.76741,549.7704,235.23232,543.57196,235.54225,538.5616C235.85216,533.4995,236.2137,529.0573,236.3687,528.59235C236.56079,528.1121,236.99104,527.8104,237.2904,527.8104 Z M258.87598,475.09213C259.7853,475.0928,261.75592,475.8226,264.46826,477.24866C268.8072,479.4698,270.925,481.7942,271.64813,485.0484C271.90637,486.02972,271.85474,493.41626,271.64813,501.52588C271.3899,509.5838,271.1316,526.4746,271.07996,539.0264L270.925,561.909L264.3133,561.909L264.62323,543.67523C264.93317,523.99524,264.46826,512.838,263.17694,507.9309C262.71204,506.22638,262.24713,503.38538,262.14386,501.6292C262.04053,499.92462,261.67896,497.08368,261.36902,495.37915C261.0075,493.6745,260.9041,491.24683,261.05914,490.00708C261.9889,483.96362,261.93726,483.60205,260.9041,480.60614C260.33594,478.9016,259.50946,477.19702,259.04468,476.68048C258.09805,475.61554,258.10553,475.0927,258.87338,475.09213 Z M240.77011,369.8908C239.21747,369.8908,237.92097,370.1809,236.31703,370.89374C232.1331,372.80493,230.01527,374.30286,229.4471,375.85254C229.13716,376.62738,228.77559,379.00336,228.62062,381.17285C228.25908,385.97662,228.05244,386.6482,226.50282,387.00977C225.88301,387.16467,225.2115,387.62958,225.05653,387.9911C224.69496,389.02423,225.93465,392.2268,227.4326,394.0346C228.93053,395.79083,229.8603,398.5285,229.8603,401.11115C229.8603,403.9521,226.9677,406.4831,217.25682,412.21674C204.08516,419.96478,201.65742,423.01227,200.67601,432.87823C200.46938,434.6344,200.2628,436.7005,200.2111,437.4237C200.10777,438.1468,200.2111,443.41553,200.41774,449.09747C200.77934,458.75665,200.88261,459.7381,202.1223,462.42407C202.89708,464.07697,204.65334,466.5047,206.30626,468.10596C212.71129,474.511,213.02122,477.0937,210.9551,505.86475C210.59352,511.54663,210.23195,519.4497,210.28358,523.42706C210.28358,530.29694,210.49022,532.7763,211.6782,542.5389C211.98817,544.81165,212.50468,550.13196,212.86629,554.41925C213.22783,558.6548,213.74437,562.3222,214.0543,562.5289C214.36421,562.7355,214.46751,562.9937,214.36421,563.09705C214.20924,563.252,204.85994,563.51025,193.59944,563.71686C186.78242,563.83936,182.1429,563.90533,179.02443,563.90533C174.25078,563.90533,173.0413,563.7507,173.0413,563.407C173.0413,562.9937,171.49168,561.39246,169.58052,559.8429C167.66933,558.2932,160.17955,551.9398,152.99968,545.793C138.22673,533.13794,136.1606,531.63995,126.96623,527.14606C123.29881,525.3899,120.35457,523.7886,120.35457,523.6336C120.35457,523.4787,120.922745,522.70386,121.59425,521.9807C122.26576,521.25757,123.19551,520.1212,123.60875,519.553C123.991516,519.01074,124.256096,518.764,124.68225,518.764C124.946205,518.764,125.27215,518.85864,125.72655,519.03644C126.66129,519.3798,127.54672,519.55414,128.39584,519.55414C129.8459,519.55414,131.19008,519.04584,132.49318,518.0034C137.60689,513.9744,140.44786,507.72437,144.68346,491.50507C146.07811,486.18475,148.50581,478.28174,150.1071,473.9428C151.70833,469.60394,153.56786,464.43854,154.29103,462.4757C155.84062,458.0852,160.12788,439.54144,160.12788,437.21704C160.12788,436.13232,159.4564,434.58276,158.16502,432.7232C156.5121,430.34717,155.94392,429.88226,154.0844,429.57233C151.45006,429.15906,150.1071,428.4876,147.78267,426.47314C146.85289,425.64667,145.09666,424.5103,143.90865,423.99377C134.61098,419.8098,124.64183,415.62585,121.64592,414.74774C117.886734,413.59985,114.06379,413.02594,110.38077,413.02594C107.43425,413.02594,104.57729,413.39328,101.9142,414.12793C100.72618,414.43787,96.33565,415.4192,92.15169,416.24567C79.5482,418.72504,73.40141,422.7024,69.579056,430.812C66.22154,437.8369,66.066574,439.07666,65.6017,463.2505C64.878525,497.39362,64.25871,502.6106,60.539627,506.74286C58.00859,509.53217,56.149094,510.25537,51.24199,510.25537L47.212997,510.25537L47.36795,516.0406C47.57457,523.582,48.452682,582.4155,48.86592,616.7652L49.227493,643.41846L198.29994,643.62506L347.37238,643.83167L353.3125,641.1457C363.79828,636.4452,384.30475,626.9926,392.82758,622.912C395.66852,621.51733,400.4723,619.2962,403.5199,617.9532C406.56744,616.6102,409.15015,615.1639,409.3051,614.80237C409.41888,614.51794,409.76932,614.39355,410.16736,614.39355C410.85355,614.39355,411.68115,614.7631,411.68115,615.3189C411.68115,615.6288,414.9353,619.34784,418.91266,623.58344C422.89,627.8191,426.14417,631.4348,426.14417,631.6414C426.14417,631.8481,425.16278,632.3129,423.97473,632.6745C418.4478,634.48236,415.71014,636.03204,408.1687,641.71387L405.43103,643.78L447.16718,643.935C452.90033,643.9479,458.3946,643.95435,463.41763,643.95435C478.4882,643.95435,489.31662,643.89624,489.62653,643.78C490.2464,643.5218,490.29803,640.37085,489.9881,622.7053C489.7815,611.2899,489.3166,582.0539,488.90338,557.77673C488.1286,510.0487,487.8703,505.8131,485.23596,499.873C482.91156,494.70758,477.79785,490.8852,464.52283,484.3769C454.50208,479.4698,450.16315,474.56262,448.87183,466.65967C448.30365,463.19885,448.45856,461.64923,450.0598,454.21118C450.93793,450.18213,451.19623,447.28955,451.19623,441.0395C451.19623,433.13647,451.19623,432.9815,449.59497,429.67566C446.599,423.3739,435.90674,410.09888,430.58643,406.06995C424.95792,401.84854,419.02994,399.49887,414.14093,399.49887C413.28693,399.49887,412.46463,399.57056,411.68115,399.7165C405.74097,400.80127,396.90826,406.12158,389.6767,412.83655C386.6808,415.57422,385.6994,416.91724,384.51135,419.70654C383.1684,422.909,383.06506,423.68384,383.27167,428.38428C383.47827,435.30585,383.5299,442.02087,383.37494,446.72137C383.1684,451.37024,384.04645,462.4757,384.8213,465.47162C386.1126,470.43036,388.64362,477.66187,390.1416,480.45117C392.41437,484.84174,394.7904,486.7013,398.97437,487.5794C400.88556,487.94098,402.64172,488.50916,402.90002,488.81903C403.15833,489.12897,403.5199,490.52362,403.67487,492.0216L404.03638,494.65594L400.7823,496.877C396.75323,499.56305,380.7406,515.524,378.9328,518.6233C377.1765,521.61914,376.24677,525.4415,375.26532,533.8611C374.74884,538.1483,374.12897,541.2992,373.7157,541.7124C373.37762,542.0505,372.76288,542.21954,370.94098,542.21954C369.4228,542.21954,367.0664,542.1022,363.33337,541.8674C357.49646,541.5058,353.51917,541.0409,353.3125,540.6794C352.64105,539.64624,352.27948,532.7763,352.84766,532.2081C353.10236,531.90247,356.77362,531.6471,361.136,531.541L361.13962,531.541L355.1931,394.1363L355.1931,394.1363L343.39508,394.2929C290.0368,395.06763,273.2494,395.42926,272.99115,395.68756C272.83618,395.84247,272.57788,405.50177,272.37128,417.17548C272.21637,428.90082,271.90637,438.4568,271.69977,438.4568C271.49316,438.4568,270.925,436.28735,270.46008,433.65295C268.7555,424.45856,266.4311,421.35944,257.495,416.5556C254.34416,414.90277,250.93504,412.93982,249.8503,412.16498C247.9391,410.87372,247.88747,410.77045,248.14574,408.29108C248.30064,406.94806,248.76555,405.5534,249.17879,405.19183C250.31517,404.36536,251.55486,401.0595,251.55486,398.89C251.55486,397.8053,251.9681,394.91272,252.43297,392.3817C253.25941,388.09448,253.25941,387.62958,252.43297,384.53033C251.9681,382.67078,251.55486,380.50128,251.55486,379.5716C251.55486,377.19556,250.41847,375.38763,247.11263,372.59833C244.58162,370.42896,243.85847,370.06732,241.53404,369.91235C241.27138,369.89816,241.01749,369.8908,240.77011,369.8908 Z"/> </g> <g style="fill:rgb(0,0,0); fill-opacity:1.0; stroke-linejoin: miter"> </g> </g> </svg>