<?xml version="1.0" encoding="UTF-8" standalone="no"?>
<svg
   xmlns:dc="http://purl.org/dc/elements/1.1/"
   xmlns:cc="http://creativecommons.org/ns#"
   xmlns:rdf="http://www.w3.org/1999/02/22-rdf-syntax-ns#"
   xmlns:svg="http://www.w3.org/2000/svg"
   xmlns="http://www.w3.org/2000/svg"
   xmlns:sodipodi="http://sodipodi.sourceforge.net/DTD/sodipodi-0.dtd"
   xmlns:inkscape="http://www.inkscape.org/namespaces/inkscape"
   width="1280"
   height="720"
   enable-background="new 0 0 590.466 457.416"
   viewBox="0 0 1279.9914 719.99368"
   version="1.1"
   id="svg62"
   sodipodi:docname="sgnificado.svg"
   inkscape:version="1.0.1 (3bc2e813f5, 2020-09-07)">
  <metadata
     id="metadata68">
    <rdf:RDF>
      <cc:Work
         rdf:about="">
        <dc:format>image/svg+xml</dc:format>
        <dc:type
           rdf:resource="http://purl.org/dc/dcmitype/StillImage" />
        <dc:title></dc:title>
      </cc:Work>
    </rdf:RDF>
  </metadata>
  <defs
     id="defs66" />
  <sodipodi:namedview
     pagecolor="#ffffff"
     bordercolor="#666666"
     borderopacity="1"
     objecttolerance="10"
     gridtolerance="10"
     guidetolerance="10"
     inkscape:pageopacity="0"
     inkscape:pageshadow="2"
     inkscape:window-width="1360"
     inkscape:window-height="745"
     id="namedview64"
     showgrid="false"
     inkscape:zoom="0.31590223"
     inkscape:cx="78.541764"
     inkscape:cy="491.50731"
     inkscape:window-x="1358"
     inkscape:window-y="-8"
     inkscape:window-maximized="1"
     inkscape:current-layer="svg62" />
  <g
     fill-rule="evenodd"
     id="g60"
     transform="matrix(1.6379651,0,0,1.4775099,148.77921,28.48964)">
    <path
       d="m 533,168 c 11.277,1.802 21.349,-10.27 30,-11 2.959,3.153 -1.188,4.748 -2,8 -2.569,10.283 -0.598,27.501 0,42 0.471,11.404 -0.431,16.29 4,27 -1.922,2.494 1.526,4.109 -1,6 5.211,12.211 16.026,4.372 26,10 3.965,16.056 -18.554,45.514 -24,59 -1.188,2.943 -0.131,5.151 -1,7 -2.365,5.03 -7.876,9.438 -10,15 -2.176,5.695 -3.096,10.687 -6,16 -3.299,6.036 -8.175,11.396 -11,17 -1.664,3.301 -1.341,7.922 -3,11 -1.236,2.293 -4.083,3.389 -5,5 -0.917,1.611 0.077,4.938 -1,7 -4.158,7.961 -8.622,15.792 -13,25 -5.658,11.901 -15.672,42.787 -29,45 -8.02,1.332 -14.257,-0.864 -24,-2 -37.085,-4.322 -87.824,-10.796 -138,-16 -14.469,-1.501 -35.677,-6.777 -48,-4 -10.811,2.437 -19.635,16.908 -32,17 -13.812,0.104 -27.04,-6.951 -36,-22 -11.844,0.694 -21.044,0.809 -32,3 -5.354,1.07 -13.461,-0.631 -15,0 -1.124,0.461 -2.376,3.911 -3,4 -0.547,0.078 -8.904,-5.701 -14,1 -3.222,-1.326 -15.648,-1.382 -18,4 -8.074,-5.883 -26.253,-2.98 -30,1 -22.541,-1.773 -37.267,2.854 -72,4 -8.751,0.289 -13.358,3.232 -24,-4 0.543,-2.798 -0.446,-4.529 -1,-9 11.863,-5.293 13.776,-26.16 28,-28 -8.521,12.663 4.85,7.356 16,10 -6.946,7.612 -13.477,1.738 -19,9 0.188,2.812 3.263,2.737 4,5 28.832,-5.336 48.118,-2.318 79,-6 36.806,-4.388 66.873,-9.454 103,-8 4.365,4.78 3.533,12.649 8,18 3.236,3.877 12.253,9.403 17,10 18.383,2.312 26.569,-10.694 31,-24 1.163,0.162 1.779,-0.221 2,-1 10.349,0.439 15.904,2.749 23,3 3.084,0.109 6.938,-0.975 12,0 5.969,1.148 10.513,1.63 17,2 17.963,1.025 36.728,5.566 55,8 35.339,4.707 68.509,6.041 96,10 -1.489,-21.526 -3.714,-39.037 -6,-57 -1.847,-14.511 0.725,-14.197 -12,-10 -9.636,3.178 -20.604,3.426 -28,6 -22.42,-2.959 -46.645,-4.66 -75,-12 -7.465,-1.933 -13.71,-6.098 -21,-7 -25.487,-3.153 -56.212,-5.255 -78,13 -3.914,3.279 -6.844,7.612 -12,10 -55.522,-44.058 -99.47,-12.77 -181,-20 -5.834,-0.518 -9.77,-0.74 -18,-2 -6.747,-1.033 -10.594,-3.837 -16,4 1.287,2.713 4.97,3.03 9,3 0.528,2.108 11.357,3.763 16,4 26.273,1.34 43.201,1.062 82,-2 23.644,-1.865 52.952,-3.319 73,6 3.281,1.525 5.892,3.074 7,7 -6.028,2.018 -11.42,-4.313 -19,-6 -26.912,-5.987 -59.113,-2.337 -87,0 -16.447,1.378 -34.357,0.394 -49,0 -2.053,-0.055 -6.424,0.353 -9,0 -11.428,-1.565 -20.642,-11.661 -24,2 11.568,5.542 19.859,4.877 37,6 32.984,2.16 62.303,-4.584 92,-5 12.583,-0.177 24.383,2.369 38,6 3.419,0.912 9.479,-1.51 10,5 -36.2,-9.9 -58.115,-2.027 -108,0 -10.548,0.429 -20.168,0.268 -30,0 -16.511,-0.448 -30.418,-8.785 -37,4 8.281,6.354 19.091,3.931 29,4 21.241,0.148 41.322,1.326 63,-1 22.393,-2.403 39.753,-6.698 59,-4 4.885,4.828 9.444,-0.718 12,6 -57.388,-3.516 -93.383,10.169 -140,6 -14.786,-1.322 -22.524,-5.899 -32,-9 -1.31,-7.334 7.8,-7.226 7,-11 -2.003,-3.724 -2.992,-2.28 -8,-3 -2.661,-5.281 2.645,-8.579 7,-12 -1.165,-3.502 -5.03,-4.304 -7,-7 1.8,-2.867 3.756,-5.577 6,-8 -4.037,-4.296 -10.083,-6.583 -16,-9 3.608,-5.547 10.619,-6.218 16,-10 8.924,-6.272 16.795,-17.609 24,-25 6.944,-7.124 14.836,-12.379 12,-20 -8.119,-21.817 -1.157,-61.262 35,-73 0.433,-3.766 -2.113,-4.554 -4,-6 -22.775,6.793 -39.946,27.064 -42,53 -3.32,1.25 -3.132,-1.467 -8,-1 C 22.646,243.385 5.679,234.41 7,196 c 16.239,-37.141 64.233,-60.123 94,-57 0.778,-7.519 -4.808,-26.633 0,-35 -16.634,-16.982 -1.464,-46.058 13,-63 1.27,-1.487 5.144,-2.765 7,-5 4.186,-5.04 17.851,-18.978 26,-22 2.034,-0.754 5.708,-0.341 7,-1 22.652,-11.564 54.549,-12.958 77,-9 4.962,0.875 10.127,1.45 12,2 5.944,1.747 16.312,7.59 18,9 1.769,1.477 0.813,3.346 2,5 6.259,8.728 16.161,17.631 21,28 38.3,-13.904 66.408,-42.926 115,-46 0.891,-0.443 1.788,-0.878 2,-2 17.092,2.792 41.519,-1.082 62,13 3.31,2.275 5.984,5.161 10,8 13.073,9.243 24.584,27.605 32,42 5.78,11.22 11.431,24.279 14,36 1.45,6.617 6.181,12.484 7,17 0.273,1.508 -1.354,3.516 -1,5 0.8,3.344 3.333,6.116 4,11 1.79,13.09 1.28,20.91 4,36 z M 258,25 C 249.347,18.881 239.384,14.503 229,13 196.583,8.308 168.738,8.196 144,26 c -1.158,2.092 0.468,3.758 -3,5 -2.409,-0.409 -2.174,1.826 -5,1 -12.991,23.341 -34.255,32.684 -32,66 11.392,9.608 22.144,19.856 35,28 -10.687,7.096 -20.059,-7.184 -29,-13 -6.244,11.766 -1.824,25.282 6,41 14.183,-18.276 44.444,-10.148 57,6 2.515,-2.485 8.137,-1.863 10,-5 -4.797,-19.127 11.618,-36.682 31,-33 10.886,2.067 20.355,12.06 26,16 11.225,-15.38 19.445,-28.895 30,-44 0.469,-3.469 -5.427,-0.573 -6,-3 8.625,-8.185 18.569,-9.794 21,-23 C 274.18,54.029 268.11,40.44 258,25 Z m 35,107 c 15.788,-5.78 21.504,-20.438 27,-37 3.048,-9.184 3.273,-29.639 -8,-34 -19.146,-7.406 -32.817,23.683 -30,38 -3.611,4.212 -10.851,6.737 -15,12 -3.693,4.685 -6.759,13.302 -11,20 -4.846,7.653 -11.351,14.759 -12,20 -0.704,5.683 2.938,11.284 2,17 -0.957,5.835 -5.062,7.492 -5,13 -12.237,8.434 -21.638,12.95 -34,8 -10.784,-4.318 -16.056,-17.343 -27,-21 -3.233,6.831 0.878,11.666 2,17 2.419,11.498 -1.391,20.177 6,31 10.968,-5.758 8.815,-19.834 18,-26 0.294,2.039 2.706,1.961 3,4 -1.365,11.459 -8.884,20.534 -16,29 19.733,14.937 53.723,18.006 80,4 20.5,-20.274 25.604,-54.65 18,-88 -2.99,-1.344 -6.942,-1.725 -7,-6 1.86,-4.22 5.13,-1.92 9,-1 z m -97,4 c -17.042,20.878 11.828,58.365 37,39 11.92,-27.15 -20.44,-52.95 -37,-39 z m -68,20 c -1.25,5.692 -4.761,7.69 -5,12 -0.027,0.492 1.967,9.913 2,10 7.529,19.736 45.154,25.054 44,1 -0.427,-8.905 -7.496,-12.176 -11,-20 -11.51,-4.75 -17.75,-6.08 -30,-3 z m 357,27 c -9.071,-2.539 -20.452,-6.745 -27,0 -13.059,27.575 -31.703,55.611 -59,72 -6.574,-5.184 -1.517,-9.244 -3,-14 -6.013,-19.273 -38.908,-37.093 -52,-26 10.868,3.583 23.463,9.009 32,20 11.58,14.909 5.248,26.236 -11,38 -3.094,0.906 -5.508,2.492 -8,4 0.878,13.22 -9.93,22.488 -22,26 -10.59,-8.59 -19.072,0.724 -31,-8 -9.462,4.069 -18.745,-5.621 -20,-15 -14.567,4.261 -33.391,39.957 -49,31 -2.928,-1.68 -2.988,-5.617 -2,-10 4.124,-18.302 36.321,-50.212 53,-55 2.812,-2.092 -0.162,-3.759 3,-5 8.64,-4.693 18.147,-8.519 26,-14 1.028,-11.052 11.386,-15.757 12,-27 -8.292,-3.052 -14.455,-6.397 -25,-6 -7.5,16.014 -18.239,36.098 -35,45 -5.378,2.856 -12.28,2.935 -19,4 -32.681,5.183 -66.3,-10.768 -96,-36 -8.948,0.821 -12.456,-4.189 -22,-5 -1.531,12.205 -10.815,19.53 -11,30 12.233,6.688 37.927,-0.134 33,19 -12.277,16.558 -32.221,15.715 -48,4 -12.944,14.205 -22.413,37.432 -39,48 -11.478,18.855 -30.949,29.718 -43,48 34.763,13.994 93.874,2.561 130,-1 29.276,2.727 59.106,3.183 87,23 9.768,-23.47 25.042,-46.19 39,-74 3.276,-0.854 4.724,-7.298 8,-5 -10.307,28.366 -26.733,47.516 -37,74 12.487,-7.612 23.048,-15.502 35,-18 26.192,-5.475 50.394,4.167 81,12 32.772,8.388 66.923,14.878 98,2 1.82,-4.223 2.744,-6.109 3,-10 1.966,0.299 1.983,-1.351 3,-2 0.574,-9.002 6.615,-14.221 11,-23 2.582,-5.17 2.499,-11.397 5,-17 2.716,-6.083 8.108,-11.446 11,-18 8.662,-19.631 18.146,-38.766 25,-58 1.156,-3.244 4.597,-5.79 6,-9 0.588,-1.346 -0.505,-3.684 0,-5 1.338,-3.486 5.243,-6.193 7,-10 6.283,-13.612 13.531,-30.403 19,-42 1.535,-0.239 0.146,-1.646 -1,-2 -18.76,11.01 -45.94,11.23 -67,15 z m 47,41 c -5.026,18.86 -11.31,20.559 -17,41 -10.551,22.628 -24.539,45.521 -34,70 -0.936,2.42 -0.035,5.417 -1,8 -2.879,7.71 -9.401,14.762 -11,21 -1.881,7.337 0.568,17.652 4,24 5.521,-19.645 14.679,-28.963 21,-49 6.824,-10.264 12.183,-20.459 18,-32 6.072,-12.046 10.064,-27.386 19,-37 -2.904,11.008 -8.697,22.704 -14,32 -1.084,1.9 -0.651,6.479 -2,10 -5.09,13.293 -16.175,28.603 -23,44 -7.479,16.873 -19.663,33.513 -17,46 17.978,-35.995 37.492,-79.155 60,-116 3.091,5.599 -3.361,5.401 -3,13 -4.481,0.981 -2.73,5.491 -4,8 -14.754,29.15 -28.499,54.227 -44,88 -5.828,7.488 -6.9,11.526 -9,23 5.485,-6.453 8.82,-14.353 13,-23 7.45,-15.414 16.044,-28.459 24,-44 6.312,-12.328 7.182,-30.046 19,-38 -3.434,10.057 -9.099,19.036 -13,28 -1.32,3.033 -0.659,6.883 -2,10 -9.544,22.193 -26.172,41.649 -33,67 -3.213,3.447 -6.452,9.897 -4,13 6.952,-6.478 6.628,-15.558 11,-24 2.64,-5.097 8.377,-8.94 10,-13 0.555,-1.387 -0.687,-3.685 0,-5 0.97,-1.859 4.339,-2.806 5,-5 1.754,-5.817 2.056,-8.379 4,-12 3.189,-5.939 5.04,-11.7 8,-18 11.904,-25.342 22.249,-42.793 37,-71 4.35,-8.317 10.678,-18.49 12,-27 -14.397,-18.965 -10.812,-57.583 -14,-72 -8.15,16.22 -9.47,26.59 -20,40 z M 162,206 c 5.378,2.77 11.498,9.634 17,9 -2.146,-10.457 0.903,-15.903 -4,-24 -1.1,8.24 -10.43,8.23 -13,15 z m 160,18 c 13.89,-7.015 28.087,-18.254 32,-32 -16.96,-0.81 -28.71,19.85 -32,32 z m 54,30 c 0.03,-4.349 1.052,-10.762 -1,-13 -9.667,-10.547 -24.932,-21.607 -37,-19 -6.923,1.496 -17.253,9.707 -23,13 -11.661,6.683 -22.436,12.004 -32,19 -7.417,5.425 -14.851,10.949 -19,14 -5.802,4.267 -12.95,14.654 -16,19 1.504,2.829 4.407,4.26 5,8 -2.87,4.131 -8.455,5.546 -11,10 12.417,-4.962 24.171,-16.854 35,-26 3.959,-3.344 9.281,-8.482 12,-12 4.229,-5.471 6.65,-17.792 16,-13 -11.747,8.219 -20.66,34.697 -3,35 -1.257,-15.595 5.592,-28.402 16,-29 -8.749,11.878 -18.361,29.698 1,33 0.664,-10.251 1.116,-25.183 14,-31 0.262,9.588 -11.656,20.811 -8,28 6.562,12.904 26.946,1.379 27,-11 -6.271,-2.469 -8.493,8.599 -15,4 9.44,-11.96 28.6,-15.6 39,-29 z M 86,228 c -5.357,3.294 -5.706,9.884 -14,12 -9.198,14.825 -15.346,37.349 -6,54 14.908,-10.257 8.077,-32.207 23,-43 12.516,-14.688 40.547,20.965 55,-4 -5.8,-2.4 -9.316,3.248 -13,4 -0.426,-1.907 -2.857,-1.81 -2,-5 3.467,-0.444 9.784,0.116 12,-6 -23.34,9.91 -31.9,-26.2 -55,-12 z m -1,44 c 1.41,-7.219 14.077,-12.851 10,-19 -5.386,4.35 -14.95,13.34 -10,19 z m 156,26 c 4.236,0.236 5.923,-2.076 7,-5 -1.907,-0.426 -1.81,-2.857 -5,-2 -2.16,2.9 -1.34,2.59 -2,7 z"
       id="path2" />
    <path
       d="m 166,93 c -10.125,-12.786 -4.648,-32.868 3,-49 5.855,-12.349 15.807,-28.491 28,-28 1.163,4.39 -3.215,9.482 -8,11 -12.32,19.083 -24.36,38.075 -23,66 z"
       id="path4" />
    <path
       d="m 206,20 c -0.534,4.8 -2.194,8.473 -7,9 -10.972,19.546 -24.238,36.409 -24,58 0.056,5.102 6.3,14.309 -1,19 -11.832,-20.469 -2.225,-51.742 11,-70 5.6,-7.725 13.88,-15.197 21,-16 z"
       id="path6" />
    <path
       d="m 251,49 c -2.286,5.9 -9.151,11.796 -15,17 -1.02,1.314 -0.98,3.686 -2,5 -9.632,4.523 -11.875,21.247 -22,22 3.831,-18.242 22.561,-30.052 33,-45 2.46,-0.132 4.82,-0.151 6,1 z"
       id="path8" />
    <path
       d="m 259,52 c 1.975,0.691 2.666,2.667 3,5 -8.587,5.746 -13.621,15.046 -22,21 -0.766,7.972 -6.805,16.489 -12,14 3.84,-15.857 18,-29.974 31,-40 z"
       id="path10" />
    <path
       d="m 270,60 c -4.071,6.262 -9.587,11.08 -16,15 -3.508,4.159 -5.076,10.257 -11,12 1.2,-12.857 14.47,-22.158 27,-27 z"
       id="path12" />
    <path
       d="m 284,133 c 0.058,4.275 4.01,4.656 7,6 7.604,33.35 2.5,67.726 -18,88 -26.277,14.006 -60.267,10.937 -80,-4 7.116,-8.466 14.635,-17.541 16,-29 -0.294,-2.039 -2.706,-1.961 -3,-4 -9.185,6.166 -7.032,20.242 -18,26 -7.391,-10.823 -3.581,-19.502 -6,-31 -1.122,-5.334 -5.233,-10.169 -2,-17 10.944,3.657 16.216,16.682 27,21 12.362,4.95 21.763,0.434 34,-8 -0.062,-5.508 4.043,-7.165 5,-13 0.938,-5.716 -2.704,-11.317 -2,-17 0.649,-5.241 7.154,-12.347 12,-20 4.241,-6.698 7.307,-15.315 11,-20 4.149,-5.263 11.389,-7.788 15,-12 -2.817,-14.317 10.854,-45.406 30,-38 11.273,4.361 11.048,24.816 8,34 -5.496,16.562 -11.212,31.22 -27,37 -3.87,-0.92 -7.14,-3.22 -9,1 z m 1,-32 c 2.517,1.483 2.971,5.029 8,4 4.191,-2.809 5.798,-8.202 11,-10 6.338,8.599 -6.261,13.073 -10,18 -1.323,-0.349 -5.02,-1.613 -8,-3 -3.641,6.321 3.507,9.573 8,11 10.671,-6.885 20.791,-17.862 16,-31 -7.125,-3.906 -12.987,3.021 -18,7 -1.508,-12.041 6.839,-22.123 16,-29 -2.062,-0.272 -0.238,-4.428 -3,-4 -12.34,8.876 -19.3,17.153 -20,37 z m -60,119 c 2.832,4.88 9.801,3.542 11,-4 -2.91,-3.31 -9.06,-1.13 -11,4 z"
       fill="#ffffff"
       id="path14" />
    <path
       d="m 305,64 c 2.762,-0.428 0.938,3.728 3,4 -9.161,6.877 -17.508,16.959 -16,29 5.013,-3.979 10.875,-10.906 18,-7 4.791,13.138 -5.329,24.115 -16,31 -4.493,-1.427 -11.641,-4.679 -8,-11 2.98,1.387 6.677,2.651 8,3 3.739,-4.927 16.338,-9.401 10,-18 -5.202,1.798 -6.809,7.191 -11,10 -5.029,1.029 -5.483,-2.517 -8,-4 0.7,-19.847 7.66,-28.124 20,-37 z"
       id="path16" />
    <path
       d="m 275,66 c 0.89,0.443 1.789,0.878 2,2 -1.301,4.365 -4.271,7.062 -9,8 -5.102,5.657 -11.533,15.009 -19,15 2.65,-10.405 15.23,-19.389 26,-25 z"
       id="path18" />
    <path
       d="m 135,79 c 15.627,8.039 23.273,24.061 34,37 -2.259,0.56 1.212,1.56 -1,3 -12.87,-7.49 -25.48,-23.836 -33,-40 z"
       id="path20" />
    <path
       d="m 121,84 c 15.187,11.223 30.21,22.839 40,37 -3.514,3.711 -9.793,-2.123 -13,-5 -9.74,-8.74 -22.48,-22.813 -27,-32 z"
       id="path22" />
    <path
       d="m 115,92 h 3 c 6.714,12.983 25.622,19.003 30,31 -15.58,-5.76 -26.27,-16.4 -33,-31 z"
       id="path24" />
    <path
       d="m 233,175 c -25.172,19.365 -54.042,-18.122 -37,-39 16.56,-13.95 48.92,11.85 37,39 z m -29,-5 c 3.522,1.929 6.059,3.909 9,4 1.947,-4.007 0.419,-9.626 -8,-10 -1.15,1.18 -1.13,3.54 -1,6 z"
       fill="#ffffff"
       id="path26" />
    <path
       d="m 158,159 c 3.504,7.824 10.573,11.095 11,20 1.154,24.054 -36.471,18.736 -44,-1 -0.033,-0.087 -2.027,-9.508 -2,-10 0.239,-4.31 3.75,-6.308 5,-12 12.25,-3.08 18.49,-1.75 30,3 z m 4,27 c 1.3,-7.633 -4.066,-8.601 -9,-10 -3.26,5.76 3.36,13 9,10 z"
       fill="#ffffff"
       id="path28" />
    <path
       d="m 205,164 c 8.419,0.374 9.947,5.993 8,10 -2.941,-0.091 -5.478,-2.071 -9,-4 -0.13,-2.46 -0.15,-4.82 1,-6 z"
       id="path30" />
    <path
       d="m 552,168 c 1.146,0.354 2.535,1.761 1,2 -5.469,11.597 -12.717,28.388 -19,42 -1.757,3.807 -5.662,6.514 -7,10 -0.505,1.316 0.588,3.654 0,5 -1.403,3.21 -4.844,5.756 -6,9 -6.854,19.234 -16.338,38.369 -25,58 -2.892,6.554 -8.284,11.917 -11,18 -2.501,5.603 -2.418,11.83 -5,17 -4.385,8.779 -10.426,13.998 -11,23 -1.017,0.649 -1.034,2.299 -3,2 -0.256,3.891 -1.18,5.777 -3,10 -31.077,12.878 -65.228,6.388 -98,-2 -30.606,-7.833 -54.808,-17.475 -81,-12 -11.952,2.498 -22.513,10.388 -35,18 10.267,-26.484 26.693,-45.634 37,-74 -3.276,-2.298 -4.724,4.146 -8,5 -13.958,27.81 -29.232,50.53 -39,74 -27.894,-19.817 -57.724,-20.273 -87,-23 -36.126,3.561 -95.237,14.994 -130,1 12.051,-18.282 31.522,-29.145 43,-48 16.587,-10.568 26.056,-33.795 39,-48 15.779,11.715 35.723,12.558 48,-4 4.927,-19.134 -20.767,-12.312 -33,-19 0.185,-10.47 9.469,-17.795 11,-30 9.544,0.811 13.052,5.821 22,5 29.7,25.232 63.319,41.183 96,36 6.72,-1.065 13.622,-1.144 19,-4 16.761,-8.902 27.5,-28.986 35,-45 10.545,-0.397 16.708,2.948 25,6 -0.614,11.243 -10.972,15.948 -12,27 -7.853,5.481 -17.36,9.307 -26,14 -3.162,1.241 -0.188,2.908 -3,5 -16.679,4.788 -48.876,36.698 -53,55 -0.988,4.383 -0.928,8.32 2,10 15.609,8.957 34.433,-26.739 49,-31 1.255,9.379 10.538,19.069 20,15 11.928,8.724 20.41,-0.59 31,8 12.07,-3.512 22.878,-12.78 22,-26 2.492,-1.508 4.906,-3.094 8,-4 16.248,-11.764 22.58,-23.091 11,-38 -8.537,-10.991 -21.132,-16.417 -32,-20 13.092,-11.093 45.987,6.727 52,26 1.483,4.756 -3.574,8.816 3,14 27.297,-16.389 45.941,-44.425 59,-72 6.548,-6.745 17.929,-2.539 27,0 21.06,-3.77 48.24,-3.99 67,-15 z"
       fill="#ffffff"
       id="path32" />
    <path
       d="m 153,176 c 4.934,1.399 10.3,2.367 9,10 -5.64,3 -12.26,-4.24 -9,-10 z"
       id="path34" />
    <path
       d="m 552,184 c 3.188,14.417 -0.397,53.035 14,72 -1.322,8.51 -7.65,18.683 -12,27 -14.751,28.207 -25.096,45.658 -37,71 -2.96,6.3 -4.811,12.061 -8,18 -1.944,3.621 -2.246,6.183 -4,12 -0.661,2.194 -4.03,3.141 -5,5 -0.687,1.315 0.555,3.613 0,5 -1.623,4.06 -7.36,7.903 -10,13 -4.372,8.442 -4.048,17.522 -11,24 -2.452,-3.103 0.787,-9.553 4,-13 6.828,-25.351 23.456,-44.807 33,-67 1.341,-3.117 0.68,-6.967 2,-10 3.901,-8.964 9.566,-17.943 13,-28 -11.818,7.954 -12.688,25.672 -19,38 -7.956,15.541 -16.55,28.586 -24,44 -4.18,8.647 -7.515,16.547 -13,23 2.1,-11.474 3.172,-15.512 9,-23 15.501,-33.773 29.246,-58.85 44,-88 1.27,-2.509 -0.481,-7.019 4,-8 -0.361,-7.599 6.091,-7.401 3,-13 -22.508,36.845 -42.022,80.005 -60,116 -2.663,-12.487 9.521,-29.127 17,-46 6.825,-15.397 17.91,-30.707 23,-44 1.349,-3.521 0.916,-8.1 2,-10 5.303,-9.296 11.096,-20.992 14,-32 -8.936,9.614 -12.928,24.954 -19,37 -5.817,11.541 -11.176,21.736 -18,32 -6.321,20.037 -15.479,29.355 -21,49 -3.432,-6.348 -5.881,-16.663 -4,-24 1.599,-6.238 8.121,-13.29 11,-21 0.965,-2.583 0.064,-5.58 1,-8 9.461,-24.479 23.449,-47.372 34,-70 5.69,-20.441 11.974,-22.14 17,-41 10.53,-13.41 11.85,-23.78 20,-40 z m -23,65 c -7.74,7.333 -8.874,18.077 -13,27 -7.618,16.476 -17.733,34.622 -24,50 -1.52,3.729 -5.329,6.275 -7,10 -5.093,11.352 -8.665,23.421 -11,34 24.788,-42.676 45.698,-97.528 66,-137 -7.7,1.3 -8.71,9.29 -11,16 z"
       fill="#ffffff"
       id="path36" />
    <path
       d="m 175,191 c 4.903,8.097 1.854,13.543 4,24 -5.502,0.634 -11.622,-6.23 -17,-9 2.57,-6.77 11.9,-6.76 13,-15 z"
       fill="#ffffff"
       id="path38" />
    <path
       d="m 354,192 c -3.913,13.746 -18.11,24.985 -32,32 3.29,-12.15 15.04,-32.81 32,-32 z"
       fill="#ffffff"
       id="path40" />
    <path
       d="m 236,216 c -1.199,7.542 -8.168,8.88 -11,4 1.94,-5.13 8.09,-7.31 11,-4 z"
       id="path42" />
    <path
       d="m 337,283 c 6.507,4.599 8.729,-6.469 15,-4 -0.054,12.379 -20.438,23.904 -27,11 -3.656,-7.189 8.262,-18.412 8,-28 -12.884,5.817 -13.336,20.749 -14,31 -19.361,-3.302 -9.749,-21.122 -1,-33 -10.408,0.598 -17.257,13.405 -16,29 -17.66,-0.303 -8.747,-26.781 3,-35 -9.35,-4.792 -11.771,7.529 -16,13 -2.719,3.518 -8.041,8.656 -12,12 -10.829,9.146 -22.583,21.038 -35,26 2.545,-4.454 8.13,-5.869 11,-10 -0.593,-3.74 -3.496,-5.171 -5,-8 3.05,-4.346 10.198,-14.733 16,-19 4.149,-3.051 11.583,-8.575 19,-14 9.564,-6.996 20.339,-12.317 32,-19 5.747,-3.293 16.077,-11.504 23,-13 12.068,-2.607 27.333,8.453 37,19 2.052,2.238 1.03,8.651 1,13 -10.4,13.4 -29.56,17.04 -39,29 z"
       fill="#ffffff"
       id="path44" />
    <path
       d="m 141,240 c -2.216,6.116 -8.533,5.556 -12,6 -0.857,3.19 1.574,3.093 2,5 3.684,-0.752 7.2,-6.4 13,-4 -14.453,24.965 -42.484,-10.688 -55,4 -14.923,10.793 -8.092,32.743 -23,43 -9.346,-16.651 -3.198,-39.175 6,-54 8.294,-2.116 8.643,-8.706 14,-12 23.1,-14.2 31.66,21.91 55,12 z"
       fill="#ffffff"
       id="path46" />
    <path
       d="m 540,233 c -20.302,39.472 -41.212,94.324 -66,137 2.335,-10.579 5.907,-22.648 11,-34 1.671,-3.725 5.48,-6.271 7,-10 6.267,-15.378 16.382,-33.524 24,-50 4.126,-8.923 5.26,-19.667 13,-27 2.29,-6.71 3.3,-14.7 11,-16 z"
       id="path48" />
    <path
       d="m 95,253 c 4.077,6.149 -8.59,11.781 -10,19 -4.95,-5.66 4.614,-14.65 10,-19 z"
       fill="#ffffff"
       id="path50" />
    <path
       d="m 243,291 c 3.19,-0.857 3.093,1.574 5,2 -1.077,2.924 -2.764,5.236 -7,5 0.66,-4.41 -0.16,-4.1 2,-7 z"
       fill="#ffffff"
       id="path52" />
    <path
       d="m 415,389 c -6.788,4.921 -17.909,3.126 -26,3 -45.432,-0.709 -82.128,-25.111 -126,-5 5.479,-8.646 17.907,-11.076 25,-12 32.304,-4.209 64.081,8.476 95,10 5.807,0.286 10.535,2.002 16,3 5.07,0.93 11.66,-3.83 16,1 z"
       id="path54" />
    <path
       d="m 370,409 c -35.199,-5.143 -70.305,-12.96 -108,-4 7.734,-10.945 20.802,-7.139 29,-11 24.69,1.47 56.24,1.5 79,15 z"
       id="path56" />
    <path
       d="m 285,68 c -2.431,13.206 -12.375,14.815 -21,23 0.573,2.427 6.469,-0.469 6,3 -10.555,15.105 -18.775,28.62 -30,44 -5.645,-3.94 -15.114,-13.933 -26,-16 -19.382,-3.682 -35.797,13.873 -31,33 -1.863,3.137 -7.485,2.515 -10,5 -12.556,-16.148 -42.817,-24.276 -57,-6 -7.824,-15.718 -12.244,-29.234 -6,-41 8.941,5.816 18.313,20.096 29,13 -12.856,-8.144 -23.608,-18.392 -35,-28 -2.255,-33.316 19.009,-42.659 32,-66 2.826,0.826 2.591,-1.409 5,-1 3.468,-1.242 1.842,-2.908 3,-5 24.738,-17.804 52.583,-17.692 85,-13 10.384,1.503 20.347,5.881 29,12 10.11,15.44 16.18,29.029 27,43 z M 185,36 c -13.225,18.258 -22.832,49.531 -11,70 7.3,-4.691 1.056,-13.898 1,-19 -0.238,-21.591 13.028,-38.454 24,-58 4.806,-0.527 6.466,-4.2 7,-9 -7.12,0.803 -15.4,8.275 -21,16 z m 4,-9 c 4.785,-1.518 9.163,-6.61 8,-11 -12.193,-0.491 -22.145,15.651 -28,28 -7.648,16.132 -13.125,36.214 -3,49 -1.36,-27.925 10.68,-46.917 23,-66 z m 56,21 c -10.439,14.948 -29.169,26.758 -33,45 10.125,-0.753 12.368,-17.477 22,-22 1.02,-1.314 0.98,-3.686 2,-5 5.849,-5.204 12.714,-11.1 15,-17 -1.18,-1.151 -3.54,-1.132 -6,-1 z m -17,44 c 5.195,2.489 11.234,-6.028 12,-14 8.379,-5.954 13.413,-15.254 22,-21 -0.334,-2.333 -1.025,-4.309 -3,-5 -13,10.026 -27.16,24.143 -31,40 z m 15,-5 c 5.924,-1.743 7.492,-7.841 11,-12 6.413,-3.92 11.929,-8.738 16,-15 -12.53,4.842 -25.8,14.143 -27,27 z m 6,4 c 7.467,0.009 13.898,-9.343 19,-15 4.729,-0.938 7.699,-3.635 9,-8 -0.211,-1.122 -1.11,-1.557 -2,-2 -10.77,5.611 -23.35,14.595 -26,25 z m -81,28 c 2.212,-1.44 -1.259,-2.44 1,-3 -10.727,-12.939 -18.373,-28.961 -34,-37 7.52,16.164 20.13,32.51 33,40 z m -20,-3 c 3.207,2.877 9.486,8.711 13,5 -9.79,-14.161 -24.813,-25.777 -40,-37 4.52,9.187 17.26,23.26 27,32 z m 0,7 c -4.378,-11.997 -23.286,-18.017 -30,-31 h -3 c 6.73,14.6 17.42,25.24 33,31 z"
       fill="#ffffff"
       id="path58" />
  </g>
</svg>
