<svg width="32" height="32" viewBox="0 0 32 32" fill="none" xmlns="http://www.w3.org/2000/svg">
<path d="M5.81231 16.4915C5.81231 18.2862 6.29526 20.0477 7.21049 21.5914C8.12571 23.1351 9.4395 24.4041 11.014 25.2652C12.5886 26.1263 14.3658 26.5478 16.1593 26.4855C17.9529 26.4232 19.6966 25.8795 21.2076 24.9112C22.7186 23.943 23.9412 22.5859 24.7472 20.9825C25.5531 19.379 25.9127 17.5882 25.7882 15.7979C25.6638 14.0076 25.0598 12.2838 24.0397 10.8073C23.0196 9.33083 21.621 8.15606 19.9905 7.40623" stroke="black" stroke-width="2" stroke-linecap="round"/>
<path d="M14.0397 5.29828L21.154 3.77557L18.5814 10.9821L14.0397 5.29828Z" stroke="black" stroke-width="2" stroke-linecap="round" stroke-linejoin="round"/>
</svg>
